<?xml version="1.0" encoding="UTF-8"?>
<svg id="Layer_2" data-name="Layer 2" xmlns="http://www.w3.org/2000/svg" xmlns:xlink="http://www.w3.org/1999/xlink" viewBox="0 0 1920 1080">
  <defs>
    <style>
      .cls-1 {
        fill: #231e55;
      }

      .cls-2 {
        opacity: .12;
      }

      .cls-3 {
        fill: none;
      }

      .cls-4 {
        clip-path: url(#clippath-1);
      }

      .cls-5 {
        clip-path: url(#clippath-3);
      }

      .cls-6 {
        clip-path: url(#clippath-2);
      }

      .cls-7 {
        clip-path: url(#clippath);
      }
    </style>
    <clipPath id="clippath">
      <rect class="cls-3" width="1920" height="1080"/>
    </clipPath>
    <clipPath id="clippath-1">
      <rect class="cls-3" x="-2062.27" y="-657.7" width="4071.88" height="2631.78"/>
    </clipPath>
    <clipPath id="clippath-2">
      <rect class="cls-3" x="-2039.14" y="-657.7" width="2008.49" height="2631.78"/>
    </clipPath>
    <clipPath id="clippath-3">
      <rect class="cls-3" x="-22.01" y="-657.7" width="2008.49" height="2631.78"/>
    </clipPath>
  </defs>
  <g id="Layer_1-2" data-name="Layer 1">
    <g class="cls-7">
      <g id="Artwork_1" data-name="Artwork 1" class="cls-2">
        <g class="cls-4">
          <g class="cls-6">
            <path class="cls-1" d="M-37.15,99.3c-28.14-7.39-53.41-6.69-87.84,7.94-29.77,13.25-55.42,26.58-82.46,44.5-31.86,21.12-63.3,42.9-96.94,61.22-31.65,17.24-64.63,30.91-100.24,37.8-17.21,3.32-34.52,3.32-51.93,3.43-22.36.15-43.92-3.85-65-10.79-38.25-12.58-70.88-34.27-99.39-62.37-24.96-24.6-45.53-52.52-61.96-83.47-.56-1.06-1.14-2.1-1.26-3.71,1.12.98,2.35,1.87,3.31,2.97,20.42,23.63,43.23,44.58,69.22,61.98,37.9,25.35,79.36,41.34,124.62,47.17,55.59,7.18,109.51.26,161.85-19.58.45-.17.91-.39,1.21-1.23-6.8,1-13.56,2.15-20.38,2.97-41.26,4.95-81.27,1.4-118.94-17.75-12.06-6.12-23.07-13.75-32.42-23.89,1.8.83,3.66,1.58,5.42,2.49,26.99,13.81,55.67,20.14,85.93,18.94,27.14-1.08,53.14-7.7,78.55-16.95,30.01-10.92,58.46-25.26,87.09-39.24,25.41-12.4,50.6-25.57,77.97-33.12,38.48-13.19,91.87-19.59,120.18-2.31C-8.89,92.39,3.42,125.22,3.42,125.22c0,.28-15.34-17.93-40.56-25.92"/>
            <path class="cls-1" d="M737.12,99.3c-28.14-7.39-53.41-6.69-87.84,7.94-29.77,13.25-55.42,26.58-82.46,44.5-31.86,21.12-63.3,42.9-96.94,61.22-31.65,17.24-64.63,30.91-100.24,37.8-17.21,3.32-34.52,3.32-51.93,3.43-22.36.15-43.92-3.85-65-10.79-38.25-12.58-70.88-34.27-99.39-62.37-24.96-24.6-45.53-52.52-61.96-83.47-.56-1.06-1.14-2.1-1.26-3.71,1.12.98,2.35,1.87,3.31,2.97,20.42,23.63,43.23,44.58,69.22,61.98,37.9,25.35,79.36,41.34,124.62,47.17,55.59,7.18,109.51.26,161.85-19.58.45-.17.91-.39,1.21-1.23-6.8,1-13.56,2.15-20.38,2.97-41.26,4.95-81.27,1.4-118.94-17.75-12.06-6.12-23.07-13.75-32.42-23.89,1.8.83,3.66,1.58,5.42,2.49,26.99,13.81,55.67,20.14,85.93,18.94,27.14-1.08,53.14-7.7,78.55-16.95,30.01-10.92,58.46-25.26,87.09-39.24,25.41-12.4,50.6-25.57,77.97-33.12,38.48-13.19,91.87-19.59,120.18-2.31,31.67,16.07,43.97,48.9,43.97,48.9,0,.28-15.34-17.93-40.56-25.92"/>
            <path class="cls-1" d="M607.1,23.63c-54.27-62.33-120.23-103.28-203.5-112.77-54.48-6.2-107.22,1.62-158.21,21.94,2-.31,3.99-.6,5.99-.93,2.03-.34,4.07-.74,6.11-1.05,38.41-6.03,76.2-4.76,112.9,9.45,16.61,6.43,31.83,15.25,45.1,27.24.92.84,1.79,1.74,2.63,2.63.16.16.11.5.2,1.09-5.96-2.79-11.67-5.68-17.54-8.17-36.81-15.65-74.69-16.72-113.24-8.06-33.61,7.54-64.9,21.28-95.82,35.98-26.91,12.78-53.71,25.82-80.85,38.07-38.17,17.25-78.49,21.61-119.83,17.8-17.27-1.61-34.04-5.6-49.08-14.86-1.88-1.15-3.62-2.53-5.39-3.84-.51-.38-.93-.87-1.35-1.26,8.49,1.44,16.84,3.23,25.28,4.21,22.37,2.61,44-1.29,65.12-8.48C56.3,12.18,83.9-4.26,110.94-21.73c30.72-19.84,61.05-40.3,92.04-59.71,29.77-18.65,61.08-34.41,94.94-44.4,87.29-25.73,165.28-8.26,233.7,51.44,30.38,26.51,54.4,58.21,73.41,93.72.75,1.4,1.37,2.87,2.06,4.31"/>
            <path class="cls-1" d="M420.92,4.55c26.3,35.25,22.43,84.81-8.73,116.86-30.85,31.74-80.89,36.22-117.61,10.52-36.24-25.35-48.83-73.59-29.69-113.72,18.7-39.24,64.35-60.48,105.24-48.5-17.48,11.54-24.47,26.8-16.18,46.59,5.78,13.8,19.84,21.28,35.17,20.02,15.74-1.29,26.41-11.82,31.81-31.77"/>
            <path class="cls-1" d="M1511.38,99.3c-28.14-7.39-53.41-6.69-87.84,7.94-29.77,13.25-55.42,26.58-82.46,44.5-31.86,21.12-63.3,42.9-96.94,61.22-31.65,17.24-64.63,30.91-100.24,37.8-17.21,3.32-34.52,3.32-51.93,3.43-22.36.15-43.92-3.85-65-10.79-38.25-12.58-70.88-34.27-99.39-62.37-24.96-24.6-45.53-52.52-61.96-83.47-.56-1.06-1.14-2.1-1.26-3.71,1.12.98,2.35,1.87,3.31,2.97,20.42,23.63,43.23,44.58,69.22,61.98,37.9,25.35,79.36,41.34,124.62,47.17,55.59,7.18,109.51.26,161.85-19.58.45-.17.91-.39,1.21-1.23-6.8,1-13.56,2.15-20.38,2.97-41.26,4.95-81.27,1.4-118.94-17.75-12.06-6.12-23.07-13.75-32.42-23.89,1.8.83,3.66,1.58,5.42,2.49,26.99,13.81,55.67,20.14,85.93,18.94,27.14-1.08,53.14-7.7,78.55-16.95,30.01-10.92,58.46-25.26,87.09-39.24,25.41-12.4,50.6-25.57,77.97-33.12,38.48-13.19,91.87-19.59,120.18-2.31,31.67,16.07,43.97,48.9,43.97,48.9,0,.28-15.34-17.93-40.56-25.92"/>
            <path class="cls-1" d="M1381.36,23.63c-54.27-62.33-120.23-103.28-203.5-112.77-54.48-6.2-107.22,1.62-158.21,21.94,2-.31,3.99-.6,5.99-.93,2.03-.34,4.07-.74,6.11-1.05,38.41-6.03,76.2-4.76,112.9,9.45,16.61,6.43,31.83,15.25,45.1,27.24.92.84,1.79,1.74,2.63,2.63.16.16.11.5.2,1.09-5.96-2.79-11.67-5.68-17.54-8.17-36.81-15.65-74.69-16.72-113.24-8.06-33.61,7.54-64.9,21.28-95.82,35.98-26.91,12.78-53.71,25.82-80.85,38.07-38.17,17.25-78.49,21.61-119.83,17.8-17.27-1.61-34.04-5.6-49.08-14.86-1.88-1.15-3.62-2.53-5.39-3.84-.51-.38-.93-.87-1.35-1.26,8.49,1.44,16.84,3.23,25.28,4.21,22.37,2.61,44-1.29,65.12-8.48,30.69-10.45,58.3-26.89,85.34-44.36,30.72-19.84,61.05-40.3,92.04-59.71,29.77-18.65,61.08-34.41,94.94-44.4,87.29-25.73,165.28-8.26,233.7,51.44,30.38,26.51,54.4,58.21,73.41,93.72.75,1.4,1.37,2.87,2.06,4.31"/>
            <path class="cls-1" d="M1195.18,4.55c26.3,35.25,22.43,84.81-8.73,116.86-30.85,31.74-80.89,36.22-117.61,10.52-36.24-25.35-48.83-73.59-29.69-113.72,18.7-39.24,64.35-60.48,105.24-48.5-17.48,11.54-24.47,26.8-16.18,46.59,5.78,13.8,19.84,21.28,35.17,20.02,15.74-1.29,26.41-11.82,31.81-31.77"/>
            <path class="cls-1" d="M2285.64,99.3c-28.14-7.39-53.41-6.69-87.84,7.94-29.77,13.25-55.42,26.58-82.46,44.5-31.86,21.12-63.3,42.9-96.94,61.22-31.65,17.24-64.63,30.91-100.24,37.8-17.21,3.32-34.52,3.32-51.93,3.43-22.36.15-43.92-3.85-65-10.79-38.25-12.58-70.88-34.27-99.39-62.37-24.96-24.6-45.53-52.52-61.96-83.47-.56-1.06-1.14-2.1-1.26-3.71,1.12.98,2.35,1.87,3.31,2.97,20.43,23.63,43.23,44.58,69.22,61.98,37.9,25.35,79.36,41.34,124.62,47.17,55.59,7.18,109.51.26,161.85-19.58.45-.17.91-.39,1.21-1.23-6.8,1-13.56,2.15-20.39,2.97-41.26,4.95-81.27,1.4-118.94-17.75-12.06-6.12-23.07-13.75-32.42-23.89,1.8.83,3.66,1.58,5.42,2.49,26.99,13.81,55.67,20.14,85.93,18.94,27.14-1.08,53.14-7.7,78.55-16.95,30.01-10.92,58.46-25.26,87.09-39.24,25.41-12.4,50.6-25.57,77.97-33.12,38.48-13.19,91.87-19.59,120.18-2.31,31.67,16.07,43.97,48.9,43.97,48.9,0,.28-15.34-17.93-40.56-25.92"/>
            <path class="cls-1" d="M2155.62,23.63c-54.27-62.33-120.23-103.28-203.5-112.77-54.48-6.2-107.22,1.62-158.21,21.94,2-.31,3.99-.6,5.99-.93,2.03-.34,4.07-.74,6.11-1.05,38.41-6.03,76.2-4.76,112.9,9.45,16.61,6.43,31.83,15.25,45.1,27.24.92.84,1.79,1.74,2.63,2.63.16.16.11.5.2,1.09-5.96-2.79-11.67-5.68-17.54-8.17-36.81-15.65-74.69-16.72-113.24-8.06-33.61,7.54-64.9,21.28-95.82,35.98-26.91,12.78-53.71,25.82-80.85,38.07-38.17,17.25-78.49,21.61-119.83,17.8-17.27-1.61-34.04-5.6-49.08-14.86-1.88-1.15-3.62-2.53-5.39-3.84-.51-.38-.93-.87-1.35-1.26,8.49,1.44,16.84,3.23,25.28,4.21,22.37,2.61,44-1.29,65.12-8.48,30.69-10.45,58.3-26.89,85.34-44.36,30.72-19.84,61.05-40.3,92.04-59.71,29.77-18.65,61.08-34.41,94.94-44.4,87.29-25.73,165.28-8.26,233.7,51.44,30.38,26.51,54.4,58.21,73.41,93.72.75,1.4,1.37,2.87,2.06,4.31"/>
            <path class="cls-1" d="M1969.44,4.55c26.3,35.25,22.43,84.81-8.73,116.86-30.85,31.74-80.89,36.22-117.61,10.52-36.24-25.35-48.83-73.59-29.69-113.72,18.7-39.24,64.35-60.48,105.24-48.5-17.48,11.54-24.47,26.8-16.18,46.59,5.78,13.8,19.84,21.28,35.17,20.02,15.74-1.29,26.41-11.82,31.81-31.77"/>
            <path class="cls-1" d="M325.18,396.66c-28.14-7.39-53.41-6.69-87.84,7.94-29.77,13.25-55.42,26.58-82.46,44.5-31.86,21.12-63.3,42.9-96.94,61.22-31.65,17.24-64.63,30.91-100.24,37.8-17.21,3.32-34.52,3.32-51.93,3.43-22.36.15-43.92-3.85-65-10.79-38.25-12.58-70.88-34.27-99.39-62.37-24.96-24.6-45.53-52.52-61.96-83.47-.56-1.06-1.14-2.1-1.26-3.71,1.12.98,2.35,1.87,3.31,2.97,20.42,23.63,43.23,44.58,69.22,61.98,37.9,25.35,79.36,41.34,124.62,47.18,55.59,7.18,109.51.26,161.85-19.58.45-.17.91-.39,1.21-1.23-6.8,1-13.56,2.15-20.38,2.97-41.26,4.95-81.27,1.4-118.94-17.75-12.06-6.12-23.07-13.74-32.42-23.89,1.8.83,3.66,1.58,5.42,2.49,26.99,13.81,55.67,20.14,85.93,18.94,27.14-1.08,53.14-7.7,78.55-16.95,30.01-10.92,58.46-25.26,87.09-39.24,25.41-12.4,50.6-25.57,77.97-33.12,38.48-13.19,91.87-19.59,120.18-2.31,31.67,16.07,43.97,48.9,43.97,48.9,0,.28-15.34-17.93-40.56-25.92"/>
            <path class="cls-1" d="M195.16,320.99c-54.27-62.33-120.23-103.28-203.5-112.77-54.48-6.2-107.22,1.62-158.21,21.94,2-.31,3.99-.6,5.99-.93,2.03-.34,4.07-.74,6.11-1.05,38.41-6.03,76.2-4.76,112.9,9.45,16.61,6.43,31.83,15.25,45.1,27.24.92.84,1.79,1.74,2.63,2.63.15.16.1.5.19,1.09-5.96-2.79-11.67-5.68-17.54-8.17-36.81-15.65-74.69-16.72-113.24-8.06-33.61,7.54-64.9,21.28-95.82,35.98-26.91,12.78-53.71,25.82-80.85,38.07-38.17,17.25-78.49,21.61-119.83,17.8-17.27-1.61-34.04-5.6-49.08-14.86-1.88-1.15-3.62-2.53-5.4-3.84-.51-.38-.93-.87-1.35-1.26,8.49,1.44,16.84,3.23,25.28,4.21,22.37,2.61,44-1.29,65.12-8.48,30.69-10.45,58.3-26.89,85.34-44.36,30.72-19.84,61.05-40.3,92.04-59.71,29.77-18.65,61.08-34.41,94.94-44.4,87.29-25.73,165.28-8.26,233.7,51.44,30.38,26.51,54.4,58.21,73.41,93.72.75,1.4,1.37,2.87,2.06,4.31"/>
            <path class="cls-1" d="M8.98,301.92c26.3,35.25,22.43,84.81-8.73,116.86-30.85,31.74-80.89,36.22-117.61,10.52-36.24-25.35-48.83-73.59-29.69-113.72,18.7-39.24,64.35-60.48,105.24-48.5-17.48,11.54-24.47,26.8-16.18,46.59,5.78,13.8,19.84,21.28,35.17,20.02,15.74-1.29,26.41-11.82,31.81-31.77"/>
            <path class="cls-1" d="M1099.44,396.66c-28.14-7.39-53.41-6.69-87.84,7.94-29.77,13.25-55.42,26.58-82.46,44.5-31.86,21.12-63.3,42.9-96.94,61.22-31.65,17.24-64.63,30.91-100.24,37.8-17.21,3.32-34.52,3.32-51.93,3.43-22.36.15-43.92-3.85-65-10.79-38.25-12.58-70.88-34.27-99.39-62.37-24.96-24.6-45.53-52.52-61.96-83.47-.56-1.06-1.14-2.1-1.26-3.71,1.12.98,2.35,1.87,3.31,2.97,20.42,23.63,43.23,44.58,69.22,61.98,37.9,25.35,79.36,41.34,124.62,47.18,55.59,7.18,109.51.26,161.85-19.58.45-.17.91-.39,1.21-1.23-6.8,1-13.56,2.15-20.38,2.97-41.26,4.95-81.27,1.4-118.94-17.75-12.06-6.12-23.07-13.74-32.42-23.89,1.8.83,3.66,1.58,5.42,2.49,26.99,13.81,55.67,20.14,85.93,18.94,27.14-1.08,53.14-7.7,78.55-16.95,30.01-10.92,58.46-25.26,87.09-39.24,25.41-12.4,50.6-25.57,77.97-33.12,38.48-13.19,91.87-19.59,120.18-2.31,31.67,16.07,43.97,48.9,43.97,48.9,0,.28-15.34-17.93-40.56-25.92"/>
            <path class="cls-1" d="M969.42,320.99c-54.27-62.33-120.23-103.28-203.5-112.77-54.49-6.2-107.23,1.62-158.21,21.94,2-.31,3.99-.6,5.99-.93,2.03-.34,4.07-.74,6.11-1.05,38.41-6.03,76.2-4.76,112.9,9.45,16.61,6.43,31.83,15.25,45.1,27.24.92.84,1.79,1.74,2.63,2.63.15.16.1.5.19,1.09-5.96-2.79-11.67-5.68-17.54-8.17-36.81-15.65-74.69-16.72-113.24-8.06-33.61,7.54-64.9,21.28-95.82,35.98-26.91,12.78-53.71,25.82-80.85,38.07-38.17,17.25-78.49,21.61-119.83,17.8-17.27-1.61-34.04-5.6-49.08-14.86-1.88-1.15-3.62-2.53-5.4-3.84-.51-.38-.93-.87-1.35-1.26,8.49,1.44,16.84,3.23,25.28,4.21,22.37,2.61,44-1.29,65.12-8.48,30.69-10.45,58.3-26.89,85.34-44.36,30.72-19.84,61.05-40.3,92.04-59.71,29.77-18.65,61.08-34.41,94.94-44.4,87.3-25.73,165.28-8.26,233.7,51.44,30.38,26.51,54.4,58.21,73.41,93.72.76,1.4,1.37,2.87,2.06,4.31"/>
            <path class="cls-1" d="M783.24,301.92c26.3,35.25,22.43,84.81-8.73,116.86-30.85,31.74-80.89,36.22-117.61,10.52-36.24-25.35-48.83-73.59-29.69-113.72,18.7-39.24,64.35-60.48,105.24-48.5-17.48,11.54-24.47,26.8-16.18,46.59,5.78,13.8,19.84,21.28,35.17,20.02,15.74-1.29,26.41-11.82,31.81-31.77"/>
            <path class="cls-1" d="M1873.7,396.66c-28.14-7.39-53.41-6.69-87.84,7.94-29.77,13.25-55.42,26.58-82.46,44.5-31.86,21.12-63.3,42.9-96.94,61.22-31.65,17.24-64.63,30.91-100.24,37.8-17.21,3.32-34.52,3.32-51.93,3.43-22.36.15-43.92-3.85-65-10.79-38.25-12.58-70.88-34.27-99.39-62.37-24.96-24.6-45.53-52.52-61.96-83.47-.56-1.06-1.14-2.1-1.26-3.71,1.12.98,2.35,1.87,3.31,2.97,20.42,23.63,43.23,44.58,69.22,61.98,37.9,25.35,79.36,41.34,124.62,47.18,55.59,7.18,109.51.26,161.85-19.58.45-.17.91-.39,1.21-1.23-6.8,1-13.56,2.15-20.39,2.97-41.26,4.95-81.27,1.4-118.94-17.75-12.06-6.12-23.07-13.74-32.42-23.89,1.8.83,3.66,1.58,5.42,2.49,26.99,13.81,55.67,20.14,85.93,18.94,27.14-1.08,53.14-7.7,78.55-16.95,30.01-10.92,58.46-25.26,87.09-39.24,25.41-12.4,50.6-25.57,77.97-33.12,38.48-13.19,91.87-19.59,120.18-2.31,31.67,16.07,43.97,48.9,43.97,48.9,0,.28-15.34-17.93-40.56-25.92"/>
            <path class="cls-1" d="M1743.68,320.99c-54.27-62.33-120.23-103.28-203.5-112.77-54.48-6.2-107.22,1.62-158.21,21.94,2-.31,3.99-.6,5.99-.93,2.03-.34,4.07-.74,6.11-1.05,38.41-6.03,76.2-4.76,112.9,9.45,16.61,6.43,31.83,15.25,45.1,27.24.92.84,1.79,1.74,2.63,2.63.16.16.11.5.2,1.09-5.96-2.79-11.67-5.68-17.54-8.17-36.81-15.65-74.69-16.72-113.24-8.06-33.61,7.54-64.9,21.28-95.82,35.98-26.91,12.78-53.71,25.82-80.85,38.07-38.17,17.25-78.49,21.61-119.83,17.8-17.27-1.61-34.04-5.6-49.08-14.86-1.88-1.15-3.62-2.53-5.39-3.84-.51-.38-.93-.87-1.35-1.26,8.49,1.44,16.84,3.23,25.28,4.21,22.37,2.61,44-1.29,65.12-8.48,30.69-10.45,58.3-26.89,85.34-44.36,30.72-19.84,61.05-40.3,92.04-59.71,29.77-18.65,61.08-34.41,94.94-44.4,87.29-25.73,165.28-8.26,233.7,51.44,30.38,26.51,54.4,58.21,73.41,93.72.75,1.4,1.37,2.87,2.06,4.31"/>
            <path class="cls-1" d="M1557.51,301.92c26.3,35.25,22.43,84.81-8.73,116.86-30.85,31.74-80.89,36.22-117.61,10.52-36.24-25.35-48.83-73.59-29.69-113.72,18.7-39.24,64.35-60.48,105.24-48.5-17.48,11.54-24.47,26.8-16.18,46.59,5.78,13.8,19.84,21.28,35.17,20.02,15.74-1.29,26.41-11.82,31.81-31.77"/>
            <path class="cls-1" d="M2517.95,320.99c-54.27-62.33-120.23-103.28-203.5-112.77-54.48-6.2-107.22,1.62-158.21,21.94,2-.31,3.99-.6,5.99-.93,2.03-.34,4.07-.74,6.11-1.05,38.41-6.03,76.2-4.76,112.9,9.45,16.61,6.43,31.83,15.25,45.1,27.24.92.84,1.79,1.74,2.63,2.63.16.16.11.5.2,1.09-5.96-2.79-11.67-5.68-17.54-8.17-36.81-15.65-74.69-16.72-113.24-8.06-33.61,7.54-64.9,21.28-95.82,35.98-26.91,12.78-53.71,25.82-80.85,38.07-38.17,17.25-78.49,21.61-119.83,17.8-17.27-1.61-34.04-5.6-49.08-14.86-1.88-1.15-3.62-2.53-5.4-3.84-.51-.38-.93-.87-1.35-1.26,8.49,1.44,16.84,3.23,25.28,4.21,22.37,2.61,44-1.29,65.12-8.48,30.69-10.45,58.3-26.89,85.34-44.36,30.72-19.84,61.05-40.3,92.04-59.71,29.77-18.65,61.08-34.41,94.94-44.4,87.29-25.73,165.28-8.26,233.7,51.44,30.38,26.51,54.4,58.21,73.41,93.72.75,1.4,1.37,2.87,2.06,4.31"/>
            <path class="cls-1" d="M703.05,694.03c-28.14-7.39-53.41-6.69-87.84,7.94-29.77,13.25-55.42,26.58-82.46,44.5-31.86,21.12-63.3,42.9-96.94,61.22-31.65,17.24-64.63,30.91-100.24,37.8-17.21,3.32-34.52,3.32-51.93,3.43-22.36.15-43.92-3.85-65-10.79-38.25-12.58-70.88-34.27-99.39-62.37-24.96-24.6-45.53-52.52-61.96-83.47-.56-1.06-1.14-2.1-1.26-3.71,1.12.98,2.35,1.87,3.31,2.97,20.42,23.63,43.23,44.58,69.22,61.98,37.9,25.35,79.36,41.34,124.62,47.18,55.59,7.18,109.51.26,161.85-19.58.45-.17.91-.39,1.21-1.23-6.8,1-13.56,2.15-20.38,2.97-41.26,4.95-81.27,1.4-118.94-17.75-12.06-6.12-23.07-13.74-32.42-23.89,1.8.83,3.66,1.58,5.42,2.49,26.99,13.81,55.67,20.14,85.93,18.94,27.14-1.08,53.14-7.7,78.55-16.95,30.01-10.92,58.46-25.26,87.09-39.24,25.41-12.4,50.6-25.57,77.97-33.12,38.48-13.19,91.87-19.59,120.18-2.31,31.67,16.07,43.97,48.9,43.97,48.9,0,.28-15.34-17.93-40.56-25.92"/>
            <path class="cls-1" d="M573.03,618.36c-54.27-62.33-120.23-103.28-203.5-112.77-54.48-6.2-107.22,1.62-158.21,21.94,2-.31,3.99-.6,5.99-.93,2.03-.34,4.07-.74,6.11-1.05,38.41-6.03,76.2-4.76,112.9,9.45,16.61,6.43,31.83,15.25,45.1,27.24.92.84,1.79,1.74,2.63,2.63.15.16.1.5.19,1.09-5.96-2.79-11.67-5.68-17.54-8.17-36.81-15.65-74.69-16.72-113.24-8.06-33.61,7.54-64.9,21.28-95.82,35.98-26.91,12.78-53.71,25.82-80.85,38.07-38.17,17.25-78.49,21.61-119.83,17.8-17.27-1.61-34.04-5.6-49.08-14.86-1.88-1.15-3.62-2.53-5.4-3.84-.51-.38-.93-.87-1.35-1.26,8.49,1.44,16.84,3.23,25.28,4.21,22.37,2.61,44-1.29,65.12-8.48,30.69-10.45,58.3-26.89,85.34-44.36,30.72-19.84,61.05-40.3,92.04-59.71,29.77-18.65,61.08-34.41,94.94-44.4,87.3-25.73,165.28-8.26,233.7,51.44,30.38,26.51,54.4,58.21,73.41,93.72.76,1.4,1.37,2.87,2.06,4.31"/>
            <path class="cls-1" d="M386.85,599.28c26.3,35.25,22.43,84.81-8.73,116.86-30.85,31.74-80.89,36.22-117.61,10.52-36.24-25.35-48.83-73.59-29.69-113.72,18.7-39.24,64.35-60.48,105.24-48.5-17.48,11.54-24.47,26.8-16.18,46.59,5.78,13.8,19.84,21.28,35.17,20.02,15.74-1.29,26.41-11.82,31.81-31.77"/>
            <path class="cls-1" d="M1477.31,694.03c-28.14-7.39-53.41-6.69-87.84,7.94-29.77,13.25-55.42,26.58-82.46,44.5-31.86,21.12-63.3,42.9-96.94,61.22-31.65,17.24-64.63,30.91-100.24,37.8-17.21,3.32-34.52,3.32-51.93,3.43-22.36.15-43.92-3.85-65-10.79-38.25-12.58-70.88-34.27-99.39-62.37-24.96-24.6-45.53-52.52-61.96-83.47-.56-1.06-1.14-2.1-1.26-3.71,1.12.98,2.35,1.87,3.31,2.97,20.42,23.63,43.23,44.58,69.22,61.98,37.9,25.35,79.36,41.34,124.62,47.18,55.59,7.18,109.51.26,161.85-19.58.45-.17.91-.39,1.21-1.23-6.8,1-13.56,2.15-20.38,2.97-41.26,4.95-81.27,1.4-118.94-17.75-12.06-6.12-23.07-13.74-32.42-23.89,1.8.83,3.66,1.58,5.42,2.49,26.99,13.81,55.67,20.14,85.93,18.94,27.14-1.08,53.14-7.7,78.55-16.95,30.01-10.92,58.46-25.26,87.09-39.24,25.41-12.4,50.6-25.57,77.97-33.12,38.48-13.19,91.87-19.59,120.18-2.31,31.67,16.07,43.97,48.9,43.97,48.9,0,.28-15.34-17.93-40.56-25.92"/>
            <path class="cls-1" d="M1347.29,618.36c-54.27-62.33-120.23-103.28-203.5-112.77-54.49-6.2-107.23,1.62-158.21,21.94,2-.31,3.99-.6,5.99-.93,2.03-.34,4.07-.74,6.11-1.05,38.41-6.03,76.2-4.76,112.9,9.45,16.61,6.43,31.83,15.25,45.1,27.24.92.84,1.79,1.74,2.63,2.63.15.16.1.5.19,1.09-5.96-2.79-11.67-5.68-17.54-8.17-36.81-15.65-74.69-16.72-113.24-8.06-33.61,7.54-64.9,21.28-95.82,35.98-26.91,12.78-53.71,25.82-80.85,38.07-38.17,17.25-78.49,21.61-119.83,17.8-17.27-1.61-34.04-5.6-49.08-14.86-1.88-1.15-3.62-2.53-5.4-3.84-.51-.38-.93-.87-1.35-1.26,8.49,1.44,16.84,3.23,25.28,4.21,22.37,2.61,44-1.29,65.12-8.48,30.69-10.45,58.3-26.89,85.34-44.36,30.72-19.84,61.05-40.3,92.04-59.71,29.77-18.65,61.08-34.41,94.94-44.4,87.3-25.73,165.28-8.26,233.7,51.44,30.38,26.51,54.4,58.21,73.41,93.72.75,1.4,1.37,2.87,2.06,4.31"/>
            <path class="cls-1" d="M1161.11,599.28c26.3,35.25,22.43,84.81-8.73,116.86-30.85,31.74-80.89,36.22-117.61,10.52-36.24-25.35-48.83-73.59-29.69-113.72,18.7-39.24,64.35-60.48,105.24-48.5-17.48,11.54-24.47,26.8-16.18,46.59,5.78,13.8,19.84,21.28,35.17,20.02,15.74-1.29,26.41-11.82,31.81-31.77"/>
            <path class="cls-1" d="M2251.57,694.03c-28.14-7.39-53.41-6.69-87.84,7.94-29.77,13.25-55.42,26.58-82.46,44.5-31.86,21.12-63.3,42.9-96.94,61.22-31.65,17.24-64.63,30.91-100.24,37.8-17.21,3.32-34.52,3.32-51.93,3.43-22.36.15-43.92-3.85-65-10.79-38.25-12.58-70.88-34.27-99.39-62.37-24.96-24.6-45.53-52.52-61.96-83.47-.56-1.06-1.14-2.1-1.26-3.71,1.12.98,2.35,1.87,3.31,2.97,20.43,23.63,43.23,44.58,69.22,61.98,37.9,25.35,79.36,41.34,124.62,47.18,55.59,7.18,109.51.26,161.85-19.58.45-.17.91-.39,1.21-1.23-6.8,1-13.56,2.15-20.39,2.97-41.26,4.95-81.27,1.4-118.94-17.75-12.06-6.12-23.07-13.74-32.42-23.89,1.8.83,3.66,1.58,5.42,2.49,26.99,13.81,55.67,20.14,85.93,18.94,27.14-1.08,53.14-7.7,78.55-16.95,30.01-10.92,58.46-25.26,87.09-39.24,25.41-12.4,50.6-25.57,77.97-33.12,38.48-13.19,91.87-19.59,120.18-2.31,31.67,16.07,43.97,48.9,43.97,48.9,0,.28-15.34-17.93-40.56-25.92"/>
            <path class="cls-1" d="M2121.55,618.36c-54.27-62.33-120.23-103.28-203.5-112.77-54.49-6.2-107.23,1.62-158.21,21.94,2-.31,3.99-.6,5.99-.93,2.03-.34,4.07-.74,6.11-1.05,38.41-6.03,76.2-4.76,112.9,9.45,16.61,6.43,31.83,15.25,45.1,27.24.92.84,1.79,1.74,2.63,2.63.15.16.1.5.19,1.09-5.96-2.79-11.67-5.68-17.54-8.17-36.81-15.65-74.69-16.72-113.24-8.06-33.61,7.54-64.9,21.28-95.82,35.98-26.91,12.78-53.71,25.82-80.85,38.07-38.17,17.25-78.49,21.61-119.83,17.8-17.27-1.61-34.04-5.6-49.08-14.86-1.88-1.15-3.62-2.53-5.4-3.84-.51-.38-.93-.87-1.35-1.26,8.49,1.44,16.84,3.23,25.28,4.21,22.37,2.61,44-1.29,65.12-8.48,30.69-10.45,58.3-26.89,85.34-44.36,30.72-19.84,61.05-40.3,92.04-59.71,29.77-18.65,61.08-34.41,94.94-44.4,87.3-25.73,165.28-8.26,233.7,51.44,30.38,26.51,54.4,58.21,73.41,93.72.76,1.4,1.37,2.87,2.06,4.31"/>
            <path class="cls-1" d="M1935.37,599.28c26.3,35.25,22.43,84.81-8.73,116.86-30.85,31.74-80.89,36.22-117.61,10.52-36.24-25.35-48.83-73.59-29.69-113.72,18.7-39.24,64.35-60.48,105.24-48.5-17.48,11.54-24.47,26.8-16.18,46.59,5.78,13.8,19.84,21.28,35.17,20.02,15.74-1.29,26.41-11.82,31.81-31.77"/>
            <path class="cls-1" d="M257.04,979.96c-28.14-7.39-53.41-6.69-87.84,7.94-29.77,13.25-55.42,26.58-82.46,44.5-31.86,21.12-63.3,42.9-96.94,61.22-31.65,17.24-64.63,30.91-100.24,37.8-17.21,3.32-34.52,3.32-51.93,3.43-22.36.15-43.92-3.85-65-10.79-38.25-12.58-70.88-34.27-99.39-62.37-24.96-24.6-45.53-52.52-61.96-83.47-.56-1.06-1.14-2.1-1.26-3.71,1.12.98,2.35,1.87,3.31,2.97,20.42,23.63,43.23,44.58,69.22,61.98,37.9,25.35,79.36,41.34,124.62,47.18,55.59,7.18,109.51.26,161.85-19.58.45-.17.91-.39,1.21-1.23-6.8,1-13.56,2.15-20.38,2.97-41.26,4.95-81.27,1.4-118.94-17.75-12.06-6.12-23.07-13.74-32.42-23.89,1.8.83,3.66,1.58,5.42,2.49,26.99,13.81,55.67,20.14,85.93,18.94,27.14-1.08,53.14-7.7,78.55-16.95,30.01-10.92,58.46-25.26,87.09-39.24,25.41-12.4,50.6-25.57,77.97-33.12,38.48-13.19,91.87-19.59,120.18-2.31,31.67,16.07,43.97,48.9,43.97,48.9,0,.28-15.34-17.93-40.56-25.92"/>
            <path class="cls-1" d="M127.02,904.29c-54.27-62.33-120.23-103.28-203.5-112.77-54.48-6.2-107.22,1.62-158.21,21.94,2-.31,3.99-.6,5.99-.93,2.03-.34,4.07-.74,6.11-1.05,38.41-6.03,76.2-4.76,112.9,9.45,16.61,6.43,31.83,15.25,45.1,27.24.92.84,1.79,1.74,2.63,2.63.16.16.11.5.2,1.09-5.96-2.79-11.67-5.68-17.54-8.17-36.81-15.65-74.69-16.72-113.24-8.06-33.61,7.54-64.9,21.28-95.82,35.98-26.91,12.78-53.71,25.82-80.85,38.07-38.17,17.25-78.49,21.61-119.83,17.8-17.27-1.61-34.04-5.6-49.08-14.86-1.88-1.15-3.62-2.53-5.39-3.84-.51-.38-.93-.87-1.35-1.26,8.49,1.44,16.84,3.23,25.28,4.21,22.37,2.61,44-1.29,65.12-8.48,30.69-10.45,58.3-26.89,85.34-44.36,30.72-19.84,61.05-40.3,92.04-59.71,29.77-18.65,61.08-34.41,94.94-44.4,87.29-25.73,165.28-8.26,233.7,51.44,30.38,26.51,54.4,58.21,73.41,93.72.75,1.4,1.37,2.87,2.06,4.31"/>
            <path class="cls-1" d="M1031.31,979.96c-28.14-7.39-53.41-6.69-87.84,7.94-29.77,13.25-55.42,26.58-82.46,44.5-31.86,21.12-63.3,42.9-96.94,61.22-31.65,17.24-64.63,30.91-100.24,37.8-17.21,3.32-34.52,3.32-51.93,3.43-22.36.15-43.92-3.85-65-10.79-38.25-12.58-70.88-34.27-99.39-62.37-24.96-24.6-45.53-52.52-61.96-83.47-.56-1.06-1.14-2.1-1.26-3.71,1.12.98,2.35,1.87,3.31,2.97,20.42,23.63,43.23,44.58,69.22,61.98,37.9,25.35,79.36,41.34,124.62,47.18,55.59,7.18,109.51.26,161.85-19.58.45-.17.91-.39,1.21-1.23-6.8,1-13.56,2.15-20.38,2.97-41.26,4.95-81.27,1.4-118.94-17.75-12.06-6.12-23.07-13.74-32.42-23.89,1.8.83,3.66,1.58,5.42,2.49,26.99,13.81,55.67,20.14,85.93,18.94,27.14-1.08,53.14-7.7,78.55-16.95,30.01-10.92,58.46-25.26,87.09-39.24,25.41-12.4,50.6-25.57,77.97-33.12,38.48-13.19,91.87-19.59,120.18-2.31,31.67,16.07,43.97,48.9,43.97,48.9,0,.28-15.34-17.93-40.56-25.92"/>
            <path class="cls-1" d="M901.28,904.29c-54.27-62.33-120.23-103.28-203.5-112.77-54.48-6.2-107.22,1.62-158.21,21.94,2-.31,3.99-.6,5.99-.93,2.03-.34,4.07-.74,6.11-1.05,38.41-6.03,76.2-4.76,112.9,9.45,16.61,6.43,31.83,15.25,45.1,27.24.92.84,1.79,1.74,2.63,2.63.15.16.1.5.19,1.09-5.96-2.79-11.67-5.68-17.54-8.17-36.81-15.65-74.69-16.72-113.24-8.06-33.61,7.54-64.9,21.28-95.82,35.98-26.91,12.78-53.71,25.82-80.85,38.07-38.17,17.25-78.49,21.61-119.83,17.8-17.27-1.61-34.04-5.6-49.08-14.86-1.88-1.15-3.62-2.53-5.39-3.84-.51-.38-.93-.87-1.35-1.26,8.49,1.44,16.84,3.23,25.28,4.21,22.37,2.61,44-1.29,65.12-8.48,30.69-10.45,58.3-26.89,85.34-44.36,30.72-19.84,61.05-40.3,92.04-59.71,29.77-18.65,61.08-34.41,94.94-44.4,87.29-25.73,165.28-8.26,233.7,51.44,30.38,26.51,54.4,58.21,73.41,93.72.75,1.4,1.37,2.87,2.06,4.31"/>
            <path class="cls-1" d="M715.11,885.22c26.3,35.25,22.43,84.81-8.73,116.86-30.85,31.74-80.89,36.22-117.61,10.52-36.24-25.35-48.83-73.59-29.69-113.72,18.7-39.24,64.35-60.48,105.24-48.5-17.48,11.54-24.47,26.8-16.18,46.59,5.78,13.8,19.84,21.28,35.17,20.02,15.74-1.29,26.41-11.82,31.81-31.77"/>
            <path class="cls-1" d="M1805.57,979.96c-28.14-7.39-53.41-6.69-87.84,7.94-29.77,13.25-55.42,26.58-82.46,44.5-31.86,21.12-63.3,42.9-96.94,61.22-31.65,17.24-64.63,30.91-100.24,37.8-17.21,3.32-34.52,3.32-51.93,3.43-22.36.15-43.92-3.85-65-10.79-38.25-12.58-70.88-34.27-99.39-62.37-24.96-24.6-45.53-52.52-61.96-83.47-.56-1.06-1.14-2.1-1.26-3.71,1.12.98,2.35,1.87,3.31,2.97,20.42,23.63,43.23,44.58,69.22,61.98,37.9,25.35,79.36,41.34,124.62,47.18,55.59,7.18,109.51.26,161.85-19.58.45-.17.91-.39,1.21-1.23-6.8,1-13.56,2.15-20.39,2.97-41.26,4.95-81.27,1.4-118.94-17.75-12.06-6.12-23.07-13.74-32.42-23.89,1.8.83,3.66,1.58,5.42,2.49,26.99,13.81,55.67,20.14,85.93,18.94,27.14-1.08,53.14-7.7,78.55-16.95,30.01-10.92,58.46-25.26,87.09-39.24,25.41-12.4,50.6-25.57,77.97-33.12,38.48-13.19,91.87-19.59,120.18-2.31,31.67,16.07,43.97,48.9,43.97,48.9,0,.28-15.34-17.93-40.56-25.92"/>
            <path class="cls-1" d="M1675.55,904.29c-54.27-62.33-120.23-103.28-203.5-112.77-54.48-6.2-107.22,1.62-158.21,21.94,2-.31,3.99-.6,5.99-.93,2.03-.34,4.07-.74,6.11-1.05,38.41-6.03,76.2-4.76,112.9,9.45,16.61,6.43,31.83,15.25,45.1,27.24.92.84,1.79,1.74,2.63,2.63.16.16.11.5.2,1.09-5.96-2.79-11.67-5.68-17.54-8.17-36.81-15.65-74.69-16.72-113.24-8.06-33.61,7.54-64.9,21.28-95.82,35.98-26.91,12.78-53.71,25.82-80.85,38.07-38.17,17.25-78.49,21.61-119.83,17.8-17.27-1.61-34.04-5.6-49.08-14.86-1.88-1.15-3.62-2.53-5.4-3.84-.51-.38-.93-.87-1.35-1.26,8.49,1.44,16.84,3.23,25.28,4.21,22.37,2.61,44-1.29,65.12-8.48,30.69-10.45,58.3-26.89,85.34-44.36,30.72-19.84,61.05-40.3,92.04-59.71,29.77-18.65,61.08-34.41,94.94-44.4,87.29-25.73,165.28-8.26,233.7,51.44,30.38,26.51,54.4,58.21,73.41,93.72.75,1.4,1.37,2.87,2.06,4.31"/>
            <path class="cls-1" d="M1489.37,885.22c26.3,35.25,22.43,84.81-8.73,116.86-30.85,31.74-80.89,36.22-117.61,10.52-36.24-25.35-48.83-73.59-29.69-113.72,18.7-39.24,64.35-60.48,105.24-48.5-17.48,11.54-24.47,26.8-16.18,46.59,5.78,13.8,19.84,21.28,35.17,20.02,15.74-1.29,26.41-11.82,31.81-31.77"/>
            <path class="cls-1" d="M2449.81,904.29c-54.27-62.33-120.23-103.28-203.5-112.77-54.48-6.2-107.22,1.62-158.21,21.94,2-.31,3.99-.6,5.99-.93,2.03-.34,4.07-.74,6.11-1.05,38.41-6.03,76.2-4.76,112.9,9.45,16.61,6.43,31.83,15.25,45.1,27.24.92.84,1.79,1.74,2.63,2.63.15.16.1.5.19,1.09-5.96-2.79-11.67-5.68-17.54-8.17-36.81-15.65-74.69-16.72-113.24-8.06-33.61,7.54-64.9,21.28-95.82,35.98-26.91,12.78-53.71,25.82-80.85,38.07-38.17,17.25-78.49,21.61-119.83,17.8-17.27-1.61-34.04-5.6-49.08-14.86-1.88-1.15-3.62-2.53-5.4-3.84-.51-.38-.93-.87-1.35-1.26,8.49,1.44,16.84,3.23,25.28,4.21,22.37,2.61,44-1.29,65.12-8.48,30.69-10.45,58.3-26.89,85.34-44.36,30.72-19.84,61.05-40.3,92.04-59.71,29.77-18.65,61.08-34.41,94.94-44.4,87.29-25.73,165.28-8.26,233.7,51.44,30.38,26.51,54.4,58.21,73.41,93.72.76,1.4,1.37,2.87,2.06,4.31"/>
            <path class="cls-1" d="M504.89,1201.66c-54.27-62.33-120.23-103.28-203.5-112.77-54.48-6.2-107.22,1.62-158.21,21.94,2-.31,3.99-.6,5.99-.93,2.03-.34,4.07-.74,6.11-1.05,38.41-6.03,76.2-4.76,112.9,9.45,16.61,6.43,31.83,15.25,45.1,27.24.92.84,1.79,1.74,2.63,2.63.16.16.11.5.2,1.09-5.96-2.79-11.67-5.68-17.54-8.17-36.81-15.65-74.69-16.72-113.24-8.06-33.61,7.54-64.9,21.28-95.82,35.98-26.91,12.78-53.71,25.82-80.85,38.07-38.17,17.25-78.49,21.61-119.83,17.8-17.27-1.61-34.04-5.6-49.08-14.86-1.88-1.15-3.62-2.53-5.39-3.84-.51-.38-.93-.87-1.35-1.26,8.49,1.44,16.84,3.23,25.28,4.21,22.37,2.61,44-1.29,65.12-8.48,30.69-10.45,58.3-26.89,85.34-44.36,30.72-19.84,61.05-40.3,92.04-59.71,29.77-18.65,61.08-34.41,94.94-44.4,87.29-25.73,165.28-8.26,233.7,51.44,30.38,26.51,54.4,58.21,73.41,93.72.75,1.4,1.37,2.87,2.06,4.31"/>
            <path class="cls-1" d="M1279.15,1201.66c-54.27-62.33-120.23-103.28-203.5-112.77-54.48-6.2-107.22,1.62-158.21,21.94,2-.31,3.99-.6,5.99-.93,2.03-.34,4.07-.74,6.11-1.05,38.41-6.03,76.2-4.76,112.9,9.45,16.61,6.43,31.83,15.25,45.1,27.24.92.84,1.79,1.74,2.63,2.63.15.16.1.5.19,1.09-5.96-2.79-11.67-5.68-17.54-8.17-36.81-15.65-74.69-16.72-113.24-8.06-33.61,7.54-64.9,21.28-95.82,35.98-26.91,12.78-53.71,25.82-80.85,38.07-38.17,17.25-78.49,21.61-119.83,17.8-17.27-1.61-34.04-5.6-49.08-14.86-1.88-1.15-3.62-2.53-5.39-3.84-.51-.38-.93-.87-1.35-1.26,8.49,1.44,16.84,3.23,25.28,4.21,22.37,2.61,44-1.29,65.12-8.48,30.69-10.45,58.3-26.89,85.34-44.36,30.72-19.84,61.05-40.3,92.04-59.71,29.77-18.65,61.08-34.41,94.94-44.4,87.29-25.73,165.28-8.26,233.7,51.44,30.38,26.51,54.4,58.21,73.41,93.72.76,1.4,1.37,2.87,2.06,4.31"/>
            <path class="cls-1" d="M2053.42,1201.66c-54.27-62.33-120.23-103.28-203.5-112.77-54.48-6.2-107.22,1.62-158.21,21.94,2-.31,3.99-.6,5.99-.93,2.03-.34,4.07-.74,6.11-1.05,38.41-6.03,76.2-4.76,112.9,9.45,16.61,6.43,31.83,15.25,45.1,27.24.92.84,1.79,1.74,2.63,2.63.16.16.11.5.2,1.09-5.96-2.79-11.67-5.68-17.54-8.17-36.81-15.65-74.69-16.72-113.24-8.06-33.61,7.54-64.9,21.28-95.82,35.98-26.91,12.78-53.71,25.82-80.85,38.07-38.17,17.25-78.49,21.61-119.83,17.8-17.27-1.61-34.04-5.6-49.08-14.86-1.88-1.15-3.62-2.53-5.39-3.84-.51-.38-.93-.87-1.35-1.26,8.49,1.44,16.84,3.23,25.28,4.21,22.37,2.61,44-1.29,65.12-8.48,30.69-10.45,58.3-26.89,85.34-44.36,30.72-19.84,61.05-40.3,92.04-59.71,29.77-18.65,61.08-34.41,94.94-44.4,87.29-25.73,165.28-8.26,233.7,51.44,30.38,26.51,54.4,58.21,73.41,93.72.75,1.4,1.37,2.87,2.06,4.31"/>
          </g>
          <g class="cls-5">
            <path class="cls-1" d="M1533.01,1217.08c28.14,7.39,53.41,6.69,87.84-7.94,29.77-13.25,55.42-26.58,82.46-44.5,31.86-21.12,63.3-42.9,96.94-61.22,31.65-17.23,64.63-30.91,100.24-37.8,17.21-3.32,34.52-3.32,51.93-3.43,22.36-.15,43.92,3.85,65,10.79,38.25,12.58,70.88,34.27,99.39,62.37,24.96,24.6,45.53,52.52,61.96,83.47.56,1.06,1.14,2.1,1.26,3.71-1.12-.98-2.35-1.87-3.31-2.97-20.42-23.63-43.23-44.58-69.22-61.98-37.9-25.35-79.36-41.34-124.62-47.18-55.59-7.18-109.51-.26-161.85,19.58-.45.17-.91.39-1.21,1.23,6.8-1,13.56-2.15,20.39-2.97,41.26-4.95,81.27-1.4,118.94,17.75,12.06,6.12,23.07,13.74,32.42,23.89-1.8-.83-3.66-1.58-5.42-2.49-26.99-13.81-55.67-20.14-85.93-18.94-27.14,1.08-53.14,7.7-78.55,16.95-30.01,10.92-58.46,25.26-87.09,39.24-25.41,12.4-50.6,25.57-77.97,33.12-38.48,13.19-91.87,19.59-120.18,2.31-31.67-16.07-43.97-48.9-43.97-48.9,0-.28,15.34,17.93,40.56,25.92"/>
            <path class="cls-1" d="M758.75,1217.08c28.14,7.39,53.41,6.69,87.84-7.94,29.77-13.25,55.42-26.58,82.46-44.5,31.86-21.12,63.3-42.9,96.94-61.22,31.65-17.23,64.63-30.91,100.24-37.8,17.21-3.32,34.52-3.32,51.93-3.43,22.36-.15,43.92,3.85,65,10.79,38.25,12.58,70.88,34.27,99.39,62.37,24.96,24.6,45.53,52.52,61.96,83.47.56,1.06,1.14,2.1,1.26,3.71-1.12-.98-2.35-1.87-3.31-2.97-20.42-23.63-43.23-44.58-69.22-61.98-37.9-25.35-79.36-41.34-124.62-47.18-55.59-7.18-109.51-.26-161.85,19.58-.45.17-.91.39-1.21,1.23,6.8-1,13.56-2.15,20.38-2.97,41.26-4.95,81.27-1.4,118.94,17.75,12.06,6.12,23.07,13.74,32.42,23.89-1.8-.83-3.66-1.58-5.42-2.49-26.99-13.81-55.67-20.14-85.93-18.94-27.14,1.08-53.14,7.7-78.55,16.95-30.01,10.92-58.46,25.26-87.09,39.24-25.41,12.4-50.6,25.57-77.97,33.12-38.48,13.19-91.87,19.59-120.18,2.31-31.67-16.07-43.97-48.9-43.97-48.9,0-.28,15.34,17.93,40.56,25.92"/>
            <path class="cls-1" d="M-15.52,1217.08c28.14,7.39,53.41,6.69,87.84-7.94,29.77-13.25,55.42-26.58,82.46-44.5,31.86-21.12,63.3-42.9,96.94-61.22,31.65-17.23,64.63-30.91,100.24-37.8,17.21-3.32,34.52-3.32,51.93-3.43,22.36-.15,43.92,3.85,65,10.79,38.25,12.58,70.88,34.27,99.39,62.37,24.96,24.6,45.53,52.52,61.96,83.47.56,1.06,1.14,2.1,1.26,3.71-1.12-.98-2.35-1.87-3.31-2.97-20.42-23.63-43.23-44.58-69.22-61.98-37.9-25.35-79.36-41.34-124.62-47.18-55.59-7.18-109.51-.26-161.85,19.58-.45.17-.91.39-1.21,1.23,6.8-1,13.56-2.15,20.38-2.97,41.26-4.95,81.27-1.4,118.94,17.75,12.06,6.12,23.07,13.74,32.42,23.89-1.8-.83-3.66-1.58-5.42-2.49-26.99-13.81-55.67-20.14-85.93-18.94-27.14,1.08-53.14,7.7-78.55,16.95-30.01,10.92-58.46,25.26-87.09,39.24-25.41,12.4-50.6,25.57-77.97,33.12-38.48,13.19-91.87,19.59-120.18,2.31-31.67-16.07-43.97-48.9-43.97-48.9,0-.28,15.34,17.93,40.56,25.92"/>
            <path class="cls-1" d="M1944.95,919.71c28.14,7.39,53.41,6.69,87.84-7.94,29.77-13.25,55.42-26.58,82.46-44.5,31.86-21.12,63.3-42.9,96.94-61.22,31.65-17.24,64.63-30.91,100.24-37.8,17.21-3.32,34.52-3.32,51.93-3.43,22.36-.15,43.92,3.85,65,10.79,38.25,12.58,70.88,34.27,99.39,62.37,24.96,24.6,45.53,52.52,61.96,83.47.56,1.06,1.14,2.1,1.26,3.71-1.12-.98-2.35-1.87-3.31-2.97-20.42-23.63-43.23-44.58-69.22-61.98-37.9-25.35-79.36-41.34-124.62-47.18-55.59-7.18-109.51-.26-161.85,19.58-.45.17-.91.39-1.21,1.23,6.8-1,13.56-2.15,20.39-2.97,41.26-4.95,81.27-1.4,118.94,17.75,12.06,6.12,23.07,13.75,32.42,23.89-1.8-.83-3.66-1.58-5.42-2.49-26.99-13.81-55.67-20.14-85.93-18.94-27.14,1.08-53.14,7.7-78.55,16.95-30.01,10.92-58.46,25.26-87.09,39.24-25.41,12.4-50.6,25.57-77.97,33.12-38.48,13.19-91.87,19.59-120.18,2.31-31.67-16.07-43.97-48.9-43.97-48.9,0-.28,15.34,17.93,40.56,25.92"/>
            <path class="cls-1" d="M1170.68,919.71c28.14,7.39,53.41,6.69,87.84-7.94,29.77-13.25,55.42-26.58,82.46-44.5,31.86-21.12,63.3-42.9,96.94-61.22,31.65-17.24,64.63-30.91,100.24-37.8,17.21-3.32,34.52-3.32,51.93-3.43,22.36-.15,43.92,3.85,65,10.79,38.25,12.58,70.88,34.27,99.39,62.37,24.96,24.6,45.53,52.52,61.96,83.47.56,1.06,1.14,2.1,1.26,3.71-1.12-.98-2.35-1.87-3.31-2.97-20.42-23.63-43.23-44.58-69.22-61.98-37.9-25.35-79.36-41.34-124.62-47.18-55.59-7.18-109.51-.26-161.85,19.58-.45.17-.91.39-1.21,1.23,6.8-1,13.56-2.15,20.38-2.97,41.26-4.95,81.27-1.4,118.94,17.75,12.06,6.12,23.07,13.75,32.42,23.89-1.8-.83-3.66-1.58-5.42-2.49-26.99-13.81-55.67-20.14-85.93-18.94-27.14,1.08-53.14,7.7-78.55,16.95-30.01,10.92-58.46,25.26-87.09,39.24-25.41,12.4-50.6,25.57-77.97,33.12-38.48,13.19-91.87,19.59-120.18,2.31-31.67-16.07-43.97-48.9-43.97-48.9,0-.28,15.34,17.93,40.56,25.92"/>
            <path class="cls-1" d="M1300.7,995.38c54.27,62.33,120.23,103.28,203.5,112.77,54.48,6.2,107.22-1.62,158.21-21.94-2,.31-3.99.6-5.99.93-2.03.34-4.07.74-6.11,1.05-38.41,6.03-76.2,4.76-112.9-9.45-16.61-6.43-31.83-15.25-45.1-27.24-.92-.84-1.79-1.74-2.63-2.63-.16-.16-.11-.5-.2-1.09,5.96,2.79,11.67,5.68,17.54,8.17,36.81,15.65,74.69,16.72,113.24,8.06,33.61-7.54,64.9-21.28,95.82-35.98,26.91-12.78,53.71-25.82,80.85-38.07,38.17-17.25,78.49-21.61,119.83-17.8,17.27,1.61,34.04,5.6,49.08,14.86,1.88,1.15,3.62,2.53,5.4,3.84.51.38.93.87,1.35,1.26-8.49-1.44-16.84-3.23-25.28-4.21-22.37-2.61-44,1.29-65.12,8.48-30.69,10.45-58.3,26.89-85.34,44.36-30.72,19.84-61.05,40.3-92.04,59.71-29.77,18.65-61.08,34.41-94.94,44.4-87.29,25.73-165.28,8.26-233.7-51.44-30.38-26.51-54.4-58.21-73.41-93.72-.75-1.4-1.37-2.87-2.06-4.31"/>
            <path class="cls-1" d="M1486.88,1014.46c-26.3-35.25-22.43-84.81,8.73-116.86,30.85-31.74,80.89-36.22,117.61-10.52,36.24,25.35,48.83,73.59,29.69,113.72-18.7,39.24-64.35,60.48-105.24,48.5,17.48-11.54,24.47-26.8,16.18-46.59-5.78-13.8-19.84-21.28-35.17-20.02-15.74,1.29-26.41,11.82-31.81,31.77"/>
            <path class="cls-1" d="M396.42,919.71c28.14,7.39,53.41,6.69,87.84-7.94,29.77-13.25,55.42-26.58,82.46-44.5,31.86-21.12,63.3-42.9,96.94-61.22,31.65-17.24,64.63-30.91,100.24-37.8,17.21-3.32,34.52-3.32,51.93-3.43,22.36-.15,43.92,3.85,65,10.79,38.25,12.58,70.88,34.27,99.39,62.37,24.96,24.6,45.53,52.52,61.96,83.47.56,1.06,1.14,2.1,1.26,3.71-1.12-.98-2.35-1.87-3.31-2.97-20.42-23.63-43.23-44.58-69.22-61.98-37.9-25.35-79.36-41.34-124.62-47.18-55.59-7.18-109.51-.26-161.85,19.58-.45.17-.91.39-1.21,1.23,6.8-1,13.56-2.15,20.38-2.97,41.26-4.95,81.27-1.4,118.94,17.75,12.06,6.12,23.07,13.75,32.42,23.89-1.8-.83-3.66-1.58-5.42-2.49-26.99-13.81-55.67-20.14-85.93-18.94-27.14,1.08-53.14,7.7-78.55,16.95-30.01,10.92-58.46,25.26-87.09,39.24-25.41,12.4-50.6,25.57-77.97,33.12-38.48,13.19-91.87,19.59-120.18,2.31-31.67-16.07-43.97-48.9-43.97-48.9,0-.28,15.34,17.93,40.56,25.92"/>
            <path class="cls-1" d="M526.44,995.38c54.27,62.33,120.23,103.28,203.5,112.77,54.48,6.2,107.22-1.62,158.21-21.94-2,.31-3.99.6-5.99.93-2.03.34-4.07.74-6.11,1.05-38.41,6.03-76.2,4.76-112.9-9.45-16.61-6.43-31.83-15.25-45.1-27.24-.92-.84-1.79-1.74-2.63-2.63-.15-.16-.1-.5-.19-1.09,5.96,2.79,11.67,5.68,17.54,8.17,36.81,15.65,74.69,16.72,113.24,8.06,33.61-7.54,64.9-21.28,95.82-35.98,26.91-12.78,53.71-25.82,80.85-38.07,38.17-17.25,78.49-21.61,119.83-17.8,17.27,1.61,34.04,5.6,49.08,14.86,1.88,1.15,3.62,2.53,5.4,3.84.51.38.93.87,1.35,1.26-8.49-1.44-16.84-3.23-25.28-4.21-22.37-2.61-44,1.29-65.12,8.48-30.69,10.45-58.3,26.89-85.34,44.36-30.72,19.84-61.05,40.3-92.04,59.71-29.77,18.65-61.08,34.41-94.94,44.4-87.3,25.73-165.28,8.26-233.7-51.44-30.38-26.51-54.4-58.21-73.41-93.72-.76-1.4-1.37-2.87-2.06-4.31"/>
            <path class="cls-1" d="M712.62,1014.46c-26.3-35.25-22.43-84.81,8.73-116.86,30.85-31.74,80.89-36.22,117.61-10.52,36.24,25.35,48.83,73.59,29.69,113.72-18.7,39.24-64.35,60.48-105.24,48.5,17.48-11.54,24.47-26.8,16.18-46.59-5.78-13.8-19.84-21.28-35.17-20.02-15.74,1.29-26.41,11.82-31.81,31.77"/>
            <path class="cls-1" d="M-377.84,919.71c28.14,7.39,53.41,6.69,87.84-7.94,29.77-13.25,55.42-26.58,82.46-44.5,31.86-21.12,63.3-42.9,96.94-61.22,31.65-17.24,64.63-30.91,100.24-37.8,17.21-3.32,34.52-3.32,51.93-3.43,22.36-.15,43.92,3.85,65,10.79,38.25,12.58,70.88,34.27,99.39,62.37,24.96,24.6,45.53,52.52,61.96,83.47.56,1.06,1.14,2.1,1.26,3.71-1.12-.98-2.35-1.87-3.31-2.97-20.42-23.63-43.23-44.58-69.22-61.98-37.9-25.35-79.36-41.34-124.62-47.18-55.59-7.18-109.51-.26-161.85,19.58-.45.17-.91.39-1.21,1.23,6.8-1,13.56-2.15,20.38-2.97,41.26-4.95,81.27-1.4,118.94,17.75,12.06,6.12,23.07,13.75,32.42,23.89-1.8-.83-3.66-1.58-5.42-2.49-26.99-13.81-55.67-20.14-85.93-18.94-27.14,1.08-53.14,7.7-78.55,16.95-30.01,10.92-58.46,25.26-87.09,39.24-25.41,12.4-50.6,25.57-77.97,33.12-38.48,13.19-91.87,19.59-120.18,2.31-31.67-16.07-43.97-48.9-43.97-48.9,0-.28,15.34,17.93,40.56,25.92"/>
            <path class="cls-1" d="M-247.82,995.38c54.27,62.33,120.23,103.28,203.5,112.77,54.48,6.2,107.22-1.62,158.21-21.94-2,.31-3.99.6-5.99.93-2.03.34-4.07.74-6.11,1.05-38.41,6.03-76.2,4.76-112.9-9.45-16.61-6.43-31.83-15.25-45.1-27.24-.92-.84-1.79-1.74-2.63-2.63-.16-.16-.11-.5-.2-1.09,5.96,2.79,11.67,5.68,17.54,8.17,36.81,15.65,74.69,16.72,113.24,8.06,33.61-7.54,64.9-21.28,95.82-35.98,26.91-12.78,53.71-25.82,80.85-38.07,38.17-17.25,78.49-21.61,119.83-17.8,17.27,1.61,34.04,5.6,49.08,14.86,1.88,1.15,3.62,2.53,5.39,3.84.51.38.93.87,1.35,1.26-8.49-1.44-16.84-3.23-25.28-4.21-22.37-2.61-44,1.29-65.12,8.48-30.69,10.45-58.3,26.89-85.34,44.36-30.72,19.84-61.05,40.3-92.04,59.71-29.77,18.65-61.08,34.41-94.94,44.4-87.29,25.73-165.28,8.26-233.7-51.44-30.38-26.51-54.4-58.21-73.41-93.72-.75-1.4-1.37-2.87-2.06-4.31"/>
            <path class="cls-1" d="M-61.64,1014.46c-26.3-35.25-22.43-84.81,8.73-116.86,30.85-31.74,80.89-36.22,117.61-10.52,36.24,25.35,48.83,73.59,29.69,113.72-18.7,39.24-64.35,60.48-105.24,48.5,17.48-11.54,24.47-26.8,16.18-46.59-5.78-13.8-19.84-21.28-35.17-20.02-15.74,1.29-26.41,11.82-31.81,31.77"/>
            <path class="cls-1" d="M1567.08,622.35c28.14,7.39,53.41,6.69,87.84-7.94,29.77-13.25,55.42-26.58,82.46-44.5,31.86-21.12,63.3-42.9,96.94-61.22,31.65-17.24,64.63-30.91,100.24-37.8,17.21-3.32,34.52-3.32,51.93-3.43,22.36-.15,43.92,3.85,65,10.79,38.25,12.58,70.88,34.27,99.39,62.37,24.96,24.6,45.53,52.52,61.96,83.47.56,1.06,1.14,2.1,1.26,3.71-1.12-.98-2.35-1.87-3.31-2.97-20.42-23.63-43.23-44.58-69.22-61.98-37.9-25.35-79.36-41.34-124.62-47.18-55.59-7.18-109.51-.26-161.85,19.58-.45.17-.91.39-1.21,1.23,6.8-1,13.56-2.15,20.39-2.97,41.26-4.95,81.27-1.4,118.94,17.75,12.06,6.12,23.07,13.75,32.42,23.89-1.8-.83-3.66-1.58-5.42-2.49-26.99-13.81-55.67-20.14-85.93-18.94-27.14,1.08-53.14,7.7-78.55,16.95-30.01,10.92-58.46,25.26-87.09,39.24-25.41,12.4-50.6,25.57-77.97,33.12-38.48,13.19-91.87,19.59-120.18,2.31-31.67-16.07-43.97-48.9-43.97-48.9,0-.28,15.34,17.93,40.56,25.92"/>
            <path class="cls-1" d="M1697.1,698.02c54.27,62.33,120.23,103.28,203.5,112.77,54.48,6.2,107.22-1.62,158.21-21.94-2,.31-3.99.6-5.99.93-2.03.34-4.07.74-6.11,1.05-38.41,6.03-76.2,4.76-112.9-9.45-16.61-6.43-31.83-15.25-45.1-27.24-.92-.84-1.79-1.74-2.63-2.63-.15-.16-.1-.5-.19-1.09,5.96,2.79,11.67,5.68,17.54,8.17,36.81,15.65,74.69,16.72,113.24,8.06,33.61-7.54,64.9-21.28,95.82-35.98,26.91-12.78,53.71-25.82,80.85-38.07,38.17-17.25,78.49-21.61,119.83-17.8,17.27,1.61,34.04,5.6,49.08,14.86,1.88,1.15,3.62,2.53,5.4,3.84.51.38.93.87,1.35,1.26-8.49-1.44-16.84-3.23-25.28-4.21-22.37-2.61-44,1.29-65.12,8.48-30.69,10.45-58.3,26.89-85.34,44.36-30.72,19.84-61.05,40.3-92.04,59.71-29.77,18.65-61.08,34.41-94.94,44.4-87.3,25.73-165.28,8.26-233.7-51.44-30.38-26.51-54.4-58.21-73.41-93.72-.76-1.4-1.37-2.87-2.06-4.31"/>
            <path class="cls-1" d="M1883.28,717.09c-26.3-35.25-22.43-84.81,8.73-116.86,30.85-31.74,80.89-36.22,117.61-10.52,36.24,25.35,48.83,73.59,29.69,113.72-18.7,39.24-64.35,60.48-105.24,48.5,17.48-11.54,24.47-26.8,16.18-46.59-5.78-13.8-19.84-21.28-35.17-20.02-15.74,1.29-26.41,11.82-31.81,31.77"/>
            <path class="cls-1" d="M792.81,622.35c28.14,7.39,53.41,6.69,87.84-7.94,29.77-13.25,55.42-26.58,82.46-44.5,31.86-21.12,63.3-42.9,96.94-61.22,31.65-17.24,64.63-30.91,100.24-37.8,17.21-3.32,34.52-3.32,51.93-3.43,22.36-.15,43.92,3.85,65,10.79,38.25,12.58,70.88,34.27,99.39,62.37,24.96,24.6,45.53,52.52,61.96,83.47.56,1.06,1.14,2.1,1.26,3.71-1.12-.98-2.35-1.87-3.31-2.97-20.42-23.63-43.23-44.58-69.22-61.98-37.9-25.35-79.36-41.34-124.62-47.18-55.59-7.18-109.51-.26-161.85,19.58-.45.17-.91.39-1.21,1.23,6.8-1,13.56-2.15,20.38-2.97,41.26-4.95,81.27-1.4,118.94,17.75,12.06,6.12,23.07,13.75,32.42,23.89-1.8-.83-3.66-1.58-5.42-2.49-26.99-13.81-55.67-20.14-85.93-18.94-27.14,1.08-53.14,7.7-78.55,16.95-30.01,10.92-58.46,25.26-87.09,39.24-25.41,12.4-50.6,25.57-77.97,33.12-38.48,13.19-91.87,19.59-120.18,2.31-31.67-16.07-43.97-48.9-43.97-48.9,0-.28,15.34,17.93,40.56,25.92"/>
            <path class="cls-1" d="M922.84,698.02c54.27,62.33,120.23,103.28,203.5,112.77,54.48,6.2,107.22-1.62,158.21-21.94-2,.31-3.99.6-5.99.93-2.03.34-4.07.74-6.11,1.05-38.41,6.03-76.2,4.76-112.9-9.45-16.61-6.43-31.83-15.25-45.1-27.24-.92-.84-1.79-1.74-2.63-2.63-.15-.16-.1-.5-.19-1.09,5.96,2.79,11.67,5.68,17.54,8.17,36.81,15.65,74.69,16.72,113.24,8.06,33.61-7.54,64.9-21.28,95.82-35.98,26.91-12.78,53.71-25.82,80.85-38.07,38.17-17.25,78.49-21.61,119.83-17.8,17.27,1.61,34.04,5.6,49.08,14.86,1.88,1.15,3.62,2.53,5.39,3.84.51.38.93.87,1.35,1.26-8.49-1.44-16.84-3.23-25.28-4.21-22.37-2.61-44,1.29-65.12,8.48-30.69,10.45-58.3,26.89-85.34,44.36-30.72,19.84-61.05,40.3-92.04,59.71-29.77,18.65-61.08,34.41-94.94,44.4-87.29,25.73-165.28,8.26-233.7-51.44-30.38-26.51-54.4-58.21-73.41-93.72-.76-1.4-1.37-2.87-2.06-4.31"/>
            <path class="cls-1" d="M1109.01,717.09c-26.3-35.25-22.43-84.81,8.73-116.86,30.85-31.74,80.89-36.22,117.61-10.52,36.24,25.35,48.83,73.59,29.69,113.72-18.7,39.24-64.35,60.48-105.24,48.5,17.48-11.54,24.47-26.8,16.18-46.59-5.78-13.8-19.84-21.28-35.17-20.02-15.74,1.29-26.41,11.82-31.81,31.77"/>
            <path class="cls-1" d="M18.55,622.35c28.14,7.39,53.41,6.69,87.84-7.94,29.77-13.25,55.42-26.58,82.46-44.5,31.86-21.12,63.3-42.9,96.94-61.22,31.65-17.24,64.63-30.91,100.24-37.8,17.21-3.32,34.52-3.32,51.93-3.43,22.36-.15,43.92,3.85,65,10.79,38.25,12.58,70.88,34.27,99.39,62.37,24.96,24.6,45.53,52.52,61.96,83.47.56,1.06,1.14,2.1,1.26,3.71-1.12-.98-2.35-1.87-3.31-2.97-20.42-23.63-43.23-44.58-69.22-61.98-37.9-25.35-79.36-41.34-124.62-47.18-55.59-7.18-109.51-.26-161.85,19.58-.45.17-.91.39-1.21,1.23,6.8-1,13.56-2.15,20.38-2.97,41.26-4.95,81.27-1.4,118.94,17.75,12.06,6.12,23.07,13.75,32.42,23.89-1.8-.83-3.66-1.58-5.42-2.49-26.99-13.81-55.67-20.14-85.93-18.94-27.14,1.08-53.14,7.7-78.55,16.95-30.01,10.92-58.46,25.26-87.09,39.24-25.41,12.4-50.6,25.57-77.97,33.12-38.48,13.19-91.87,19.59-120.18,2.31-31.67-16.07-43.97-48.9-43.97-48.9,0-.28,15.34,17.93,40.56,25.92"/>
            <path class="cls-1" d="M148.57,698.02c54.27,62.33,120.23,103.28,203.5,112.77,54.48,6.2,107.22-1.62,158.21-21.94-2,.31-3.99.6-5.99.93-2.03.34-4.07.74-6.11,1.05-38.41,6.03-76.2,4.76-112.9-9.45-16.61-6.43-31.83-15.25-45.1-27.24-.92-.84-1.79-1.74-2.63-2.63-.16-.16-.11-.5-.2-1.09,5.96,2.79,11.67,5.68,17.54,8.17,36.81,15.65,74.69,16.72,113.24,8.06,33.61-7.54,64.9-21.28,95.82-35.98,26.91-12.78,53.71-25.82,80.85-38.07,38.17-17.25,78.49-21.61,119.83-17.8,17.27,1.61,34.04,5.6,49.08,14.86,1.88,1.15,3.62,2.53,5.39,3.84.51.38.93.87,1.35,1.26-8.49-1.44-16.84-3.23-25.28-4.21-22.37-2.61-44,1.29-65.12,8.48-30.69,10.45-58.3,26.89-85.34,44.36-30.72,19.84-61.05,40.3-92.04,59.71-29.77,18.65-61.08,34.41-94.94,44.4-87.29,25.73-165.28,8.26-233.7-51.44-30.38-26.51-54.4-58.21-73.41-93.72-.75-1.4-1.37-2.87-2.06-4.31"/>
            <path class="cls-1" d="M334.75,717.09c-26.3-35.25-22.43-84.81,8.73-116.86,30.85-31.74,80.89-36.22,117.61-10.52,36.24,25.35,48.83,73.59,29.69,113.72-18.7,39.24-64.35,60.48-105.24,48.5,17.48-11.54,24.47-26.8,16.18-46.59-5.78-13.8-19.84-21.28-35.17-20.02-15.74,1.29-26.41,11.82-31.81,31.77"/>
            <path class="cls-1" d="M-625.69,698.02c54.27,62.33,120.23,103.28,203.5,112.77,54.48,6.2,107.22-1.62,158.21-21.94-2,.31-3.99.6-5.99.93-2.03.34-4.07.74-6.11,1.05-38.41,6.03-76.2,4.76-112.9-9.45-16.61-6.43-31.83-15.25-45.1-27.24-.92-.84-1.79-1.74-2.63-2.63-.16-.16-.11-.5-.2-1.09,5.96,2.79,11.67,5.68,17.54,8.17,36.81,15.65,74.69,16.72,113.24,8.06,33.61-7.54,64.9-21.28,95.82-35.98,26.91-12.78,53.71-25.82,80.85-38.07,38.17-17.25,78.49-21.61,119.83-17.8,17.27,1.61,34.04,5.6,49.08,14.86,1.88,1.15,3.62,2.53,5.39,3.84.51.38.93.87,1.35,1.26-8.49-1.44-16.84-3.23-25.28-4.21-22.37-2.61-44,1.29-65.12,8.48-30.69,10.45-58.3,26.89-85.34,44.36-30.72,19.84-61.05,40.3-92.04,59.71-29.77,18.65-61.08,34.41-94.94,44.4-87.29,25.73-165.28,8.26-233.7-51.44-30.38-26.51-54.4-58.21-73.41-93.72-.75-1.4-1.37-2.87-2.06-4.31"/>
            <path class="cls-1" d="M1238.82,336.41c28.14,7.39,53.41,6.69,87.84-7.94,29.77-13.25,55.42-26.58,82.46-44.5,31.86-21.12,63.3-42.9,96.94-61.22,31.65-17.23,64.63-30.91,100.24-37.8,17.21-3.32,34.52-3.32,51.93-3.43,22.36-.15,43.92,3.85,65,10.79,38.25,12.58,70.88,34.27,99.39,62.37,24.96,24.6,45.53,52.52,61.96,83.47.56,1.06,1.14,2.1,1.26,3.71-1.12-.98-2.35-1.87-3.31-2.97-20.42-23.63-43.23-44.58-69.22-61.98-37.9-25.35-79.36-41.34-124.62-47.18-55.59-7.18-109.51-.26-161.85,19.58-.45.17-.91.39-1.21,1.23,6.8-1,13.56-2.15,20.38-2.97,41.26-4.95,81.27-1.4,118.94,17.75,12.06,6.12,23.07,13.74,32.42,23.89-1.8-.83-3.66-1.58-5.42-2.49-26.99-13.81-55.67-20.14-85.93-18.94-27.14,1.08-53.14,7.7-78.55,16.95-30.01,10.92-58.46,25.26-87.09,39.24-25.41,12.4-50.6,25.57-77.97,33.12-38.48,13.19-91.87,19.59-120.18,2.31-31.67-16.07-43.97-48.9-43.97-48.9,0-.28,15.34,17.93,40.56,25.92"/>
            <path class="cls-1" d="M1368.84,412.08c54.27,62.33,120.23,103.28,203.5,112.77,54.48,6.2,107.22-1.62,158.21-21.94-2,.31-3.99.6-5.99.93-2.03.34-4.07.74-6.11,1.05-38.41,6.03-76.2,4.76-112.9-9.45-16.61-6.43-31.83-15.25-45.1-27.24-.92-.84-1.79-1.74-2.63-2.63-.15-.16-.1-.5-.19-1.09,5.96,2.79,11.67,5.68,17.54,8.17,36.81,15.65,74.69,16.72,113.24,8.06,33.61-7.54,64.9-21.28,95.82-35.98,26.91-12.78,53.71-25.82,80.85-38.07,38.17-17.25,78.49-21.61,119.83-17.8,17.27,1.61,34.04,5.6,49.08,14.86,1.88,1.15,3.62,2.53,5.4,3.84.51.38.93.87,1.35,1.26-8.49-1.44-16.84-3.23-25.28-4.21-22.37-2.61-44,1.29-65.12,8.48-30.69,10.45-58.3,26.89-85.34,44.36-30.72,19.84-61.05,40.3-92.04,59.71-29.77,18.65-61.08,34.41-94.94,44.4-87.29,25.73-165.28,8.26-233.7-51.44-30.38-26.51-54.4-58.21-73.41-93.72-.76-1.4-1.37-2.87-2.06-4.31"/>
            <path class="cls-1" d="M1555.02,431.16c-26.3-35.25-22.43-84.81,8.73-116.86,30.85-31.74,80.89-36.22,117.61-10.52,36.24,25.35,48.83,73.59,29.69,113.72-18.7,39.24-64.35,60.48-105.24,48.5,17.48-11.54,24.47-26.8,16.18-46.59-5.78-13.8-19.84-21.28-35.17-20.02-15.74,1.29-26.41,11.82-31.81,31.77"/>
            <path class="cls-1" d="M464.56,336.41c28.14,7.39,53.41,6.69,87.84-7.94,29.77-13.25,55.42-26.58,82.46-44.5,31.86-21.12,63.3-42.9,96.94-61.22,31.65-17.23,64.63-30.91,100.24-37.8,17.21-3.32,34.52-3.32,51.93-3.43,22.36-.15,43.92,3.85,65,10.79,38.25,12.58,70.88,34.27,99.39,62.37,24.96,24.6,45.53,52.52,61.96,83.47.56,1.06,1.14,2.1,1.26,3.71-1.12-.98-2.35-1.87-3.31-2.97-20.42-23.63-43.23-44.58-69.22-61.98-37.9-25.35-79.36-41.34-124.62-47.18-55.59-7.18-109.51-.26-161.85,19.58-.45.17-.91.39-1.21,1.23,6.8-1,13.56-2.15,20.38-2.97,41.26-4.95,81.27-1.4,118.94,17.75,12.06,6.12,23.07,13.74,32.42,23.89-1.8-.83-3.66-1.58-5.42-2.49-26.99-13.81-55.67-20.14-85.93-18.94-27.14,1.08-53.14,7.7-78.55,16.95-30.01,10.92-58.46,25.26-87.09,39.24-25.41,12.4-50.6,25.57-77.97,33.12-38.48,13.19-91.87,19.59-120.18,2.31-31.67-16.07-43.97-48.9-43.97-48.9,0-.28,15.34,17.93,40.56,25.92"/>
            <path class="cls-1" d="M594.58,412.08c54.27,62.33,120.23,103.28,203.5,112.77,54.48,6.2,107.22-1.62,158.21-21.94-2,.31-3.99.6-5.99.93-2.03.34-4.07.74-6.11,1.05-38.41,6.03-76.2,4.76-112.9-9.45-16.61-6.43-31.83-15.25-45.1-27.24-.92-.84-1.79-1.74-2.63-2.63-.15-.16-.1-.5-.19-1.09,5.96,2.79,11.67,5.68,17.54,8.17,36.81,15.65,74.69,16.72,113.24,8.06,33.61-7.54,64.9-21.28,95.82-35.98,26.91-12.78,53.71-25.82,80.85-38.07,38.17-17.25,78.49-21.61,119.83-17.8,17.27,1.61,34.04,5.6,49.08,14.86,1.88,1.15,3.62,2.53,5.39,3.84.51.38.93.87,1.35,1.26-8.49-1.44-16.84-3.23-25.28-4.21-22.37-2.61-44,1.29-65.12,8.48-30.69,10.45-58.3,26.89-85.34,44.36-30.72,19.84-61.05,40.3-92.04,59.71-29.77,18.65-61.08,34.41-94.94,44.4-87.29,25.73-165.28,8.26-233.7-51.44-30.38-26.51-54.4-58.21-73.41-93.72-.75-1.4-1.37-2.87-2.06-4.31"/>
            <path class="cls-1" d="M780.76,431.16c-26.3-35.25-22.43-84.81,8.73-116.86,30.85-31.74,80.89-36.22,117.61-10.52,36.24,25.35,48.83,73.59,29.69,113.72-18.7,39.24-64.35,60.48-105.24,48.5,17.48-11.54,24.47-26.8,16.18-46.59-5.78-13.8-19.84-21.28-35.17-20.02-15.74,1.29-26.41,11.82-31.81,31.77"/>
            <path class="cls-1" d="M-309.71,336.41c28.14,7.39,53.41,6.69,87.84-7.94,29.77-13.25,55.42-26.58,82.46-44.5,31.86-21.12,63.3-42.9,96.94-61.22,31.65-17.23,64.63-30.91,100.24-37.8,17.21-3.32,34.52-3.32,51.93-3.43,22.36-.15,43.92,3.85,65,10.79,38.25,12.58,70.88,34.27,99.39,62.37,24.96,24.6,45.53,52.52,61.96,83.47.56,1.06,1.14,2.1,1.26,3.71-1.12-.98-2.35-1.87-3.31-2.97-20.42-23.63-43.23-44.58-69.22-61.98-37.9-25.35-79.36-41.34-124.62-47.18-55.59-7.18-109.51-.26-161.85,19.58-.45.17-.91.39-1.21,1.23,6.8-1,13.56-2.15,20.38-2.97,41.26-4.95,81.27-1.4,118.94,17.75,12.06,6.12,23.07,13.74,32.42,23.89-1.8-.83-3.66-1.58-5.42-2.49-26.99-13.81-55.67-20.14-85.93-18.94-27.14,1.08-53.14,7.7-78.55,16.95-30.01,10.92-58.46,25.26-87.09,39.24-25.41,12.4-50.6,25.57-77.97,33.12-38.48,13.19-91.87,19.59-120.18,2.31-31.67-16.07-43.97-48.9-43.97-48.9,0-.28,15.34,17.93,40.56,25.92"/>
            <path class="cls-1" d="M-179.68,412.08c54.27,62.33,120.23,103.28,203.5,112.77,54.48,6.2,107.22-1.62,158.21-21.94-2,.31-3.99.6-5.99.93-2.03.34-4.07.74-6.11,1.05-38.41,6.03-76.2,4.76-112.9-9.45-16.61-6.43-31.83-15.25-45.1-27.24-.92-.84-1.79-1.74-2.63-2.63-.15-.16-.1-.5-.19-1.09,5.96,2.79,11.67,5.68,17.54,8.17,36.81,15.65,74.69,16.72,113.24,8.06,33.61-7.54,64.9-21.28,95.82-35.98,26.91-12.78,53.71-25.82,80.85-38.07,38.17-17.25,78.49-21.61,119.83-17.8,17.27,1.61,34.04,5.6,49.08,14.86,1.88,1.15,3.62,2.53,5.4,3.84.51.38.93.87,1.35,1.26-8.49-1.44-16.84-3.23-25.28-4.21-22.37-2.61-44,1.29-65.12,8.48-30.69,10.45-58.3,26.89-85.34,44.36-30.72,19.84-61.05,40.3-92.04,59.71-29.77,18.65-61.08,34.41-94.94,44.4-87.3,25.73-165.28,8.26-233.7-51.44-30.38-26.51-54.4-58.21-73.41-93.72-.76-1.4-1.37-2.87-2.06-4.31"/>
            <path class="cls-1" d="M6.49,431.16c-26.3-35.25-22.43-84.81,8.73-116.86,30.85-31.74,80.89-36.22,117.61-10.52,36.24,25.35,48.83,73.59,29.69,113.72-18.7,39.24-64.35,60.48-105.24,48.5,17.48-11.54,24.47-26.8,16.18-46.59-5.78-13.8-19.84-21.28-35.17-20.02-15.74,1.29-26.41,11.82-31.81,31.77"/>
            <path class="cls-1" d="M1635.21,39.05c28.14,7.39,53.41,6.69,87.84-7.94,29.77-13.25,55.42-26.58,82.46-44.5,31.86-21.12,63.3-42.9,96.94-61.22,31.65-17.24,64.63-30.91,100.24-37.8,17.21-3.32,34.52-3.32,51.93-3.43,22.36-.15,43.92,3.85,65,10.79,38.25,12.58,70.88,34.27,99.39,62.37,24.96,24.6,45.53,52.52,61.96,83.47.56,1.06,1.14,2.1,1.26,3.71-1.12-.98-2.35-1.87-3.31-2.97-20.42-23.63-43.23-44.58-69.22-61.98-37.9-25.35-79.36-41.34-124.62-47.18-55.59-7.18-109.51-.26-161.85,19.58-.45.17-.91.39-1.21,1.23,6.8-1,13.56-2.15,20.39-2.97,41.26-4.95,81.27-1.4,118.94,17.75,12.06,6.12,23.07,13.75,32.42,23.89-1.8-.83-3.66-1.58-5.42-2.49-26.99-13.81-55.67-20.14-85.93-18.94-27.14,1.08-53.14,7.7-78.55,16.95-30.01,10.92-58.46,25.26-87.09,39.24-25.41,12.4-50.6,25.57-77.97,33.12-38.48,13.18-91.87,19.59-120.18,2.31-31.67-16.07-43.97-48.9-43.97-48.9,0-.28,15.34,17.93,40.56,25.92"/>
            <path class="cls-1" d="M1765.23,114.72c54.27,62.33,120.23,103.28,203.5,112.77,54.48,6.2,107.22-1.62,158.21-21.94-2,.31-3.99.6-5.99.93-2.03.34-4.07.74-6.11,1.05-38.41,6.03-76.2,4.76-112.9-9.45-16.61-6.43-31.83-15.25-45.1-27.24-.92-.84-1.79-1.74-2.63-2.63-.16-.16-.11-.5-.2-1.09,5.96,2.79,11.67,5.68,17.54,8.17,36.81,15.65,74.69,16.72,113.24,8.06,33.61-7.54,64.9-21.28,95.82-35.98,26.91-12.78,53.71-25.82,80.85-38.07,38.17-17.25,78.49-21.61,119.83-17.8,17.27,1.61,34.04,5.6,49.08,14.86,1.88,1.15,3.62,2.53,5.39,3.84.51.38.93.87,1.35,1.26-8.49-1.44-16.84-3.23-25.28-4.21-22.37-2.61-44,1.29-65.12,8.48-30.69,10.45-58.3,26.89-85.34,44.36-30.72,19.84-61.05,40.3-92.04,59.71-29.77,18.65-61.08,34.41-94.94,44.4-87.29,25.73-165.28,8.26-233.7-51.44-30.38-26.51-54.4-58.21-73.41-93.72-.75-1.4-1.37-2.87-2.06-4.31"/>
            <path class="cls-1" d="M860.95,39.05c28.14,7.39,53.41,6.69,87.84-7.94,29.77-13.25,55.42-26.58,82.46-44.5,31.86-21.12,63.3-42.9,96.94-61.22,31.65-17.24,64.63-30.91,100.24-37.8,17.21-3.32,34.52-3.32,51.93-3.43,22.36-.15,43.92,3.85,65,10.79,38.25,12.58,70.88,34.27,99.39,62.37,24.96,24.6,45.53,52.52,61.96,83.47.56,1.06,1.14,2.1,1.26,3.71-1.12-.98-2.35-1.87-3.31-2.97-20.42-23.63-43.23-44.58-69.22-61.98-37.9-25.35-79.36-41.34-124.62-47.18-55.59-7.18-109.51-.26-161.85,19.58-.45.17-.91.39-1.21,1.23,6.8-1,13.56-2.15,20.38-2.97,41.26-4.95,81.27-1.4,118.94,17.75,12.06,6.12,23.07,13.75,32.42,23.89-1.8-.83-3.66-1.58-5.42-2.49-26.99-13.81-55.67-20.14-85.93-18.94-27.14,1.08-53.14,7.7-78.55,16.95-30.01,10.92-58.46,25.26-87.09,39.24-25.41,12.4-50.6,25.57-77.97,33.12-38.48,13.18-91.87,19.59-120.18,2.31-31.67-16.07-43.97-48.9-43.97-48.9,0-.28,15.34,17.93,40.56,25.92"/>
            <path class="cls-1" d="M990.97,114.72c54.27,62.33,120.23,103.28,203.5,112.77,54.48,6.2,107.22-1.62,158.21-21.94-2,.31-3.99.6-5.99.93-2.03.34-4.07.74-6.11,1.05-38.41,6.03-76.2,4.76-112.9-9.45-16.61-6.43-31.83-15.25-45.1-27.24-.92-.84-1.79-1.74-2.63-2.63-.16-.16-.11-.5-.2-1.09,5.96,2.79,11.67,5.68,17.54,8.17,36.81,15.65,74.69,16.72,113.24,8.06,33.61-7.54,64.9-21.28,95.82-35.98,26.91-12.78,53.71-25.82,80.85-38.07,38.17-17.25,78.49-21.61,119.83-17.8,17.27,1.61,34.04,5.6,49.08,14.86,1.88,1.15,3.62,2.53,5.4,3.84.51.38.93.87,1.35,1.26-8.49-1.44-16.84-3.23-25.28-4.21-22.37-2.61-44,1.29-65.12,8.48-30.69,10.45-58.3,26.89-85.34,44.36-30.72,19.84-61.05,40.3-92.04,59.71-29.77,18.65-61.08,34.41-94.94,44.4-87.29,25.73-165.28,8.26-233.7-51.44-30.38-26.51-54.4-58.21-73.41-93.72-.75-1.4-1.37-2.87-2.06-4.31"/>
            <path class="cls-1" d="M1177.15,133.79c-26.3-35.25-22.43-84.81,8.73-116.86,30.85-31.74,80.89-36.22,117.61-10.52,36.24,25.35,48.83,73.59,29.69,113.72-18.7,39.24-64.35,60.48-105.24,48.5,17.48-11.54,24.47-26.8,16.18-46.59-5.78-13.8-19.84-21.28-35.17-20.02-15.74,1.29-26.41,11.82-31.81,31.77"/>
            <path class="cls-1" d="M86.69,39.05c28.14,7.39,53.41,6.69,87.84-7.94,29.77-13.25,55.42-26.58,82.46-44.5,31.86-21.12,63.3-42.9,96.94-61.22,31.65-17.24,64.63-30.91,100.24-37.8,17.21-3.32,34.52-3.32,51.93-3.43,22.36-.15,43.92,3.85,65,10.79,38.25,12.58,70.88,34.27,99.39,62.37,24.96,24.6,45.53,52.52,61.96,83.47.56,1.06,1.14,2.1,1.26,3.71-1.12-.98-2.35-1.87-3.31-2.97-20.42-23.63-43.23-44.58-69.22-61.98-37.9-25.35-79.36-41.34-124.62-47.18-55.59-7.18-109.51-.26-161.85,19.58-.45.17-.91.39-1.21,1.23,6.8-1,13.56-2.15,20.38-2.97,41.26-4.95,81.27-1.4,118.94,17.75,12.06,6.12,23.07,13.75,32.42,23.89-1.8-.83-3.66-1.58-5.42-2.49-26.99-13.81-55.67-20.14-85.93-18.94-27.14,1.08-53.14,7.7-78.55,16.95-30.01,10.92-58.46,25.26-87.09,39.24-25.41,12.4-50.6,25.57-77.97,33.12-38.48,13.18-91.87,19.59-120.18,2.31C58.43,45.96,46.13,13.12,46.13,13.12c0-.28,15.34,17.93,40.56,25.92"/>
            <path class="cls-1" d="M216.71,114.72c54.27,62.33,120.23,103.28,203.5,112.77,54.48,6.2,107.22-1.62,158.21-21.94-2,.31-3.99.6-5.99.93-2.03.34-4.07.74-6.11,1.05-38.41,6.03-76.2,4.76-112.9-9.45-16.61-6.43-31.83-15.25-45.1-27.24-.92-.84-1.79-1.74-2.63-2.63-.15-.16-.1-.5-.19-1.09,5.96,2.79,11.67,5.68,17.54,8.17,36.81,15.65,74.69,16.72,113.24,8.06,33.61-7.54,64.9-21.28,95.82-35.98,26.91-12.78,53.71-25.82,80.85-38.07,38.17-17.25,78.49-21.61,119.83-17.8,17.27,1.61,34.04,5.6,49.08,14.86,1.88,1.15,3.62,2.53,5.39,3.84.51.38.93.87,1.35,1.26-8.49-1.44-16.84-3.23-25.28-4.21-22.37-2.61-44,1.29-65.12,8.48-30.69,10.45-58.3,26.89-85.34,44.36-30.72,19.84-61.05,40.3-92.04,59.71-29.77,18.65-61.08,34.41-94.94,44.4-87.29,25.73-165.28,8.26-233.7-51.44-30.38-26.51-54.4-58.21-73.41-93.72-.76-1.4-1.37-2.87-2.06-4.31"/>
            <path class="cls-1" d="M402.89,133.79c-26.3-35.25-22.43-84.81,8.73-116.86,30.85-31.74,80.89-36.22,117.61-10.52,36.24,25.35,48.83,73.59,29.69,113.72-18.7,39.24-64.35,60.48-105.24,48.5,17.48-11.54,24.47-26.8,16.18-46.59-5.78-13.8-19.84-21.28-35.17-20.02-15.74,1.29-26.41,11.82-31.81,31.77"/>
            <path class="cls-1" d="M-557.55,114.72c54.27,62.33,120.23,103.28,203.5,112.77,54.48,6.2,107.22-1.62,158.21-21.94-2,.31-3.99.6-5.99.93-2.03.34-4.07.74-6.11,1.05-38.41,6.03-76.2,4.76-112.9-9.45-16.61-6.43-31.83-15.25-45.1-27.24-.92-.84-1.79-1.74-2.63-2.63-.16-.16-.11-.5-.2-1.09,5.96,2.79,11.67,5.68,17.54,8.17,36.81,15.65,74.69,16.72,113.24,8.06,33.61-7.54,64.9-21.28,95.82-35.98,26.91-12.78,53.71-25.82,80.85-38.07,38.17-17.25,78.49-21.61,119.83-17.8,17.27,1.61,34.04,5.6,49.08,14.86,1.88,1.15,3.62,2.53,5.4,3.84.51.38.93.87,1.35,1.26-8.49-1.44-16.84-3.23-25.28-4.21-22.37-2.61-44,1.29-65.12,8.48-30.69,10.45-58.3,26.89-85.34,44.36-30.72,19.84-61.05,40.3-92.04,59.71-29.77,18.65-61.08,34.41-94.94,44.4-87.3,25.73-165.28,8.26-233.7-51.44-30.38-26.51-54.4-58.21-73.41-93.72-.76-1.4-1.37-2.87-2.06-4.31"/>
            <path class="cls-1" d="M1419.87-157.77c54.27,62.33,120.23,103.28,203.5,112.77,54.48,6.2,107.22-1.62,158.21-21.94-2,.31-3.99.6-5.99.93-2.03.34-4.07.74-6.11,1.05-38.41,6.03-76.2,4.76-112.9-9.45-16.61-6.43-31.83-15.25-45.1-27.24-.92-.84-1.79-1.74-2.63-2.63-.16-.16-.11-.5-.2-1.09,5.96,2.79,11.67,5.68,17.54,8.17,36.81,15.65,74.69,16.72,113.24,8.06,33.61-7.54,64.9-21.28,95.82-35.98,26.91-12.78,53.71-25.82,80.85-38.07,38.17-17.25,78.49-21.61,119.83-17.8,17.27,1.61,34.04,5.6,49.08,14.86,1.88,1.15,3.62,2.53,5.4,3.84.51.38.93.87,1.35,1.26-8.49-1.44-16.84-3.23-25.28-4.21-22.37-2.61-44,1.29-65.12,8.48-30.69,10.45-58.3,26.89-85.34,44.36-30.72,19.84-61.05,40.3-92.04,59.71-29.77,18.65-61.08,34.41-94.94,44.4-87.29,25.73-165.28,8.26-233.7-51.44-30.38-26.51-54.4-58.21-73.41-93.72-.75-1.4-1.37-2.87-2.06-4.31"/>
            <path class="cls-1" d="M645.61-157.77c54.27,62.33,120.23,103.28,203.5,112.77,54.48,6.2,107.22-1.62,158.21-21.94-2,.31-3.99.6-5.99.93-2.03.34-4.07.74-6.11,1.05-38.41,6.03-76.2,4.76-112.9-9.45-16.61-6.43-31.83-15.25-45.1-27.24-.92-.84-1.79-1.74-2.63-2.63-.15-.16-.1-.5-.19-1.09,5.96,2.79,11.67,5.68,17.54,8.17,36.81,15.65,74.69,16.72,113.24,8.06,33.61-7.54,64.9-21.28,95.82-35.98,26.91-12.78,53.71-25.82,80.85-38.07,38.17-17.25,78.49-21.61,119.83-17.8,17.27,1.61,34.04,5.6,49.08,14.86,1.88,1.15,3.62,2.53,5.39,3.84.51.38.93.87,1.35,1.26-8.49-1.44-16.84-3.23-25.28-4.21-22.37-2.61-44,1.29-65.12,8.48-30.69,10.45-58.3,26.89-85.34,44.36-30.72,19.84-61.05,40.3-92.04,59.71-29.77,18.65-61.08,34.41-94.94,44.4C867.48,17.43,789.5-.04,721.07-59.74c-30.38-26.51-54.4-58.21-73.41-93.72-.76-1.4-1.37-2.87-2.06-4.31"/>
            <path class="cls-1" d="M-128.66-157.77C-74.39-95.44-8.43-54.48,74.85-44.99c54.48,6.2,107.22-1.62,158.21-21.94-2,.31-3.99.6-5.99.93-2.03.34-4.07.74-6.11,1.05-38.41,6.03-76.2,4.76-112.9-9.45-16.61-6.43-31.83-15.25-45.1-27.24-.92-.84-1.79-1.74-2.63-2.63-.16-.16-.11-.5-.2-1.09,5.96,2.79,11.67,5.68,17.54,8.17,36.81,15.65,74.69,16.72,113.24,8.06,33.61-7.54,64.9-21.28,95.82-35.98,26.91-12.78,53.71-25.82,80.85-38.07,38.17-17.25,78.49-21.61,119.83-17.8,17.27,1.61,34.04,5.6,49.08,14.86,1.88,1.15,3.62,2.53,5.39,3.84.51.38.93.87,1.35,1.26-8.49-1.44-16.84-3.23-25.28-4.21-22.37-2.61-44,1.29-65.12,8.48-30.69,10.45-58.3,26.89-85.34,44.36-30.72,19.84-61.05,40.3-92.04,59.71-29.77,18.65-61.08,34.41-94.94,44.4C93.22,17.43,15.24-.04-53.19-59.74c-30.38-26.51-54.4-58.21-73.41-93.72-.75-1.4-1.37-2.87-2.06-4.31"/>
          </g>
        </g>
      </g>
    </g>
  </g>
</svg>