<?xml version="1.0" encoding="UTF-8"?>
<svg id="Layer_2" data-name="Layer 2" xmlns="http://www.w3.org/2000/svg" viewBox="0 0 2240.02 392.15">
  <defs>
    <style>
      .cls-1 {
        fill: #ffce41;
      }

      .cls-2 {
        fill: #fff;
      }

      .cls-3 {
        fill: #44bfb7;
      }
    </style>
  </defs>
  <g id="Layer_1-2" data-name="Layer 1">
    <g>
      <g id="logo">
        <g>
          <path class="cls-3" d="M537.44,100.32c-11.93-3.13-22.64-2.84-37.23,3.36-12.62,5.62-23.49,11.27-34.95,18.86-13.51,8.95-26.83,18.18-41.09,25.95-13.42,7.31-27.4,13.1-42.49,16.02-7.29,1.41-14.63,1.41-22.01,1.46-9.48.06-18.62-1.63-27.56-4.57-16.22-5.33-30.05-14.53-42.13-26.44-10.58-10.43-19.3-22.26-26.26-35.38-.24-.45-.48-.89-.53-1.57.47.42.99.79,1.4,1.26,8.66,10.02,18.33,18.9,29.34,26.27,16.07,10.75,33.64,17.52,52.83,20,23.56,3.04,46.42.11,68.61-8.3.19-.07.38-.17.51-.52-2.88.42-5.75.91-8.64,1.26-17.49,2.1-34.45.59-50.42-7.52-5.11-2.59-9.78-5.83-13.74-10.13.76.35,1.55.67,2.3,1.06,11.44,5.85,23.6,8.54,36.43,8.03,11.5-.46,22.53-3.27,33.3-7.18,12.72-4.63,24.78-10.71,36.92-16.63,10.77-5.25,21.45-10.84,33.05-14.04,16.31-5.59,38.94-8.31,50.94-.98,13.42,6.81,18.64,20.73,18.64,20.73,0,.12-6.5-7.6-17.19-10.99"/>
          <path class="cls-3" d="M482.32,68.24c-23-26.42-50.97-43.78-86.27-47.8-23.1-2.63-45.45.69-67.07,9.3.85-.13,1.69-.25,2.54-.4.86-.14,1.73-.31,2.59-.45,16.28-2.56,32.3-2.02,47.86,4.01,7.04,2.73,13.49,6.46,19.12,11.55.39.36.76.74,1.12,1.12.07.07.04.21.08.46-2.53-1.18-4.95-2.41-7.44-3.46-15.61-6.63-31.66-7.09-48-3.42-14.25,3.2-27.51,9.02-40.62,15.25-11.41,5.42-22.77,10.94-34.27,16.14-16.18,7.31-33.27,9.16-50.8,7.55-7.32-.68-14.43-2.37-20.81-6.3-.8-.49-1.53-1.07-2.29-1.63-.21-.16-.4-.37-.57-.53,3.6.61,7.14,1.37,10.72,1.79,9.48,1.1,18.65-.55,27.6-3.59,13.01-4.43,24.71-11.4,36.17-18.8,13.02-8.41,25.88-17.08,39.02-25.31,12.62-7.9,25.89-14.59,40.25-18.82,37-10.91,70.06-3.5,99.07,21.81,12.88,11.24,23.06,24.67,31.12,39.73.32.59.58,1.21.87,1.82"/>
          <path class="cls-1" d="M403.4,60.16c11.15,14.94,9.51,35.95-3.7,49.54-13.08,13.46-34.29,15.35-49.86,4.46-15.36-10.75-20.7-31.19-12.59-48.21,7.93-16.63,27.28-25.64,44.61-20.56-7.41,4.89-10.37,11.36-6.86,19.75,2.45,5.85,8.41,9.02,14.91,8.49,6.67-.55,11.2-5.01,13.48-13.47"/>
          <rect class="cls-3" x="362.14" y="331.97" width="278.3" height="6.08"/>
          <rect class="cls-3" x=".2" y="331.97" width="283.62" height="6.08"/>
          <g>
            <path class="cls-1" d="M65.48,182.73l.49-.06c.27-.27.55-.55.82-.82.22-.27.49-.55.71-.82.06-.28.16-.6.27-.88-.27.11-.55.27-.82.38-.22.27-.49.49-.71.77-.27.27-.49.49-.77.77-.16.28-.38.49-.55.71l.44-.05h.11M65.37,182.73c-.6.44-2.2,1.81-2.42,1.92l-.82.82c-.27.22-.49.49-.77.71-.22.28-.49.55-.77.82-2.42,2.64-4.89,5.28-7.37,7.92-.33.44-.71.88-1.1,1.26-.17.28-.38.55-.6.77-.06.33-.11.6-.22.88.27-.11.49-.22.77-.33.22-.22.49-.49.77-.71.33-.38.71-.77,1.1-1.15,2.42-2.64,4.84-5.33,7.26-7.97.27-.27.49-.49.77-.77l.71-.77c.27-.28.49-.55.77-.82.11-.33,1.7-2.03,2.03-2.58,0-.06.05-.11.05-.11-.05,0-.11.06-.16.11M169.32,315.86c-4.84-.06-9.62.33-14.46.17-4.01-.11-8.19-.22-12.04-1.21-11.76-3.19-22.32-8.9-31.55-16.82-11.71-10-21.33-21.93-29.9-34.68-4.95-7.37-9.51-14.95-13.69-22.76-4.18-7.86-7.75-16.11-11.49-24.24-1.15-2.47-.93-4.51,1.15-6.76,16.44-18.14,33.8-35.29,52.27-51.34,17.75-15.5,36.33-29.96,56.07-42.82,5.55-3.68,10.99-7.64,17.42-9.78.27-4.01-1.37-7.15-5.22-10.11-2.2-1.7-4.62-2.14-7.15-1.32-1.32.44-2.64,1.04-3.79,1.76-6.27,3.79-12.75,7.31-18.74,11.49-22.98,15.83-44.74,33.2-65.03,52.38-7.42,7.04-14.68,14.29-22.04,21.49-.88.82-1.54,2.2-3.68,2.09.6-1.59.99-2.91,1.54-4.12,1.87-3.74,3.85-7.42,5.66-11.16,10.88-22.54,22.59-44.69,35.18-66.29.38-.66.55-1.43.93-2.09.93-1.54.49-3.02-.49-4.23-.66-.82-1.76-1.32-2.86-2.09.06-.33.27-1.04.38-1.43-1.32-1.26-2.69-2.31-3.63-3.57-1.26-1.65-3.3-1.26-4.78-2.42-2.14-1.76-3.3-1.59-5.11.66-2.14,2.64-4.12,5.5-5.77,8.47-12.09,21.93-22.87,44.47-33.53,67.17-9.84,21.05-18.69,42.54-27.04,64.26-7.2,18.63-13.63,37.54-16.6,57.39-1.32,8.57-.49,16.93,3.63,24.74,1.15,2.14,2.47,4.12,5,4.89,2.03.6,4.07,1.26,6.65,2.03,1.15-15.06,2.69-29.74,6.54-44.08,5.72-21.27,11.82-38.75,14.62-41.56.44.66.82,1.26,1.21,1.87,3.46,5.88,6.76,11.87,10.55,17.53,4.73,7.04,9.84,13.74,14.79,20.67,8.3,11.6,18.52,21.44,29.13,30.78,7.26,6.32,15.34,11.65,23.97,15.94,14.18,6.98,29.13,10.61,45.13,9.18,5.33-.49,10.11-2.14,14.51-5.11.6-.44,1.04-1.15,1.54-1.7-1.76-.82-3.13-1.7-4.67-2.25-1.48-.49-3.08-.99-4.62-.99M110.06,150.63c.82-.71,1.65-1.37,2.53-2.09.27-.22.55-.44.82-.66.44-.38.88-.71,1.26-1.1.44-.38,9.45-7.31,11.65-8.96-2.03,1.81-9.78,8.03-9.78,8.3-.49.38-.99.77-1.48,1.15-.38.38-.77.77-1.15,1.1-.27.27-.55.49-.82.71-.82.71-1.65,1.37-2.47,2.09-.27.17-.55.33-.77.55l.22-1.1ZM103.08,156.62l4.18-3.52c.38-.33.82-.66,1.26-.99.11.16.27.33.44.49-.38.38-.77.77-1.1,1.15-1.37,1.15-2.75,2.31-4.07,3.52-.55.44-1.04.88-1.54,1.37l-.49-.38c.44-.55.88-1.1,1.32-1.65M96.38,162.77c1.32-1.21,2.69-2.42,4.01-3.57.27-.22.55-.38.82-.55-.06.33-.11.71-.16,1.1l-4.18,3.57c-.22.17-.49.33-.71.55l.22-1.1ZM95,164.15c.16.11.38.33.38.38-.16.27-.38.49-.6.77l-.44-.44c.22-.28.44-.49.66-.71M81.86,176.35c.27-.27.55-.49.77-.77.27-.22.55-.49.77-.71.27-.27.55-.49.77-.77l.77-.77c.27-.22.55-.44.77-.66.27-.27.55-.49.77-.77l4.78-4.34.77-.77c.27-.22.55-.49.82-.71.22-.16.49-.33.71-.55-.05.38-.11.71-.16,1.1-.27.28-.49.49-.77.77-.27.22-.55.49-.88.71-1.54,1.43-3.13,2.91-4.67,4.4-.27.22-.55.44-.82.71-.22.22-.49.49-.77.77-.22.22-.49.49-.77.71-.22.27-.49.49-.77.77-.22.22-.49.49-.77.71l-.77.77c-.38.33-.77.66-1.15,1.04-.16-.16-.27-.33-.44-.49l1.04-1.15ZM80.33,178.39c.11,0,.22.17.27.22-.06.11-.06.16-.11.27-.11-.11-.27-.17-.38-.22.11-.11.16-.27.22-.27M79.06,179.32c.05.11.22.22.22.28-.05.11-.16.16-.27.22-.06,0-.16-.06-.22-.11.06-.11.16-.22.27-.38M76.92,181.35c.38-.33.77-.71,1.15-1.04.11.16.27.27.44.44l-1.04,1.15-1.15.99c-.16-.11-.27-.27-.44-.38.38-.38.71-.77,1.04-1.15M75.05,183.17c.11.11.22.17.38.27-.11.06-.16.17-.27.28-.05-.11-.16-.22-.22-.28,0-.05.05-.16.11-.27M72.96,185.42c.06.11.11.16.22.27-.11.06-.16.16-.27.22-.06-.06-.16-.06-.22-.11.06-.11.16-.28.27-.38M71.42,186.85c.06.11.11.16.22.27-.06.11-.11.16-.16.22-.11-.06-.22-.16-.33-.27.05-.06.16-.11.27-.22M57.68,183.72c.06.11.16.16.22.27-.06.16-.16.27-.22.44-.11-.06-.22-.17-.22-.22.06-.16.17-.33.22-.49M83.9,105.17c.33,2.75-1.43,4.45-2.36,6.54-.33-.16-.66-.38-.99-.55,1.15-1.98,2.25-4.01,3.35-5.99M81.04,112.48c-4.73,9.12-9.29,18.36-14.35,27.32-.33-.17-.6-.33-.93-.49l14.24-27.26c.33.17.71.28,1.04.44M55.48,150.35c7.7-15.17,15.45-30.34,23.14-45.57.22-.38.66-.71.99-1.04.16.11.27.28.38.44-8.14,16.16-16.33,32.32-24.46,48.43-.27-.06-.38-.11-.44-.16-.11-.06-.22-.22-.16-.27.16-.6.27-1.26.55-1.81M62.9,145.24c0,3.02-15.23,36.39-19.24,42.05,5.55-14.18,12.42-27.76,19.24-42.05M54.71,153.21c-1.59,5.44-4.23,10.39-7.15,15.23,1.65-5.39,4.29-10.33,7.15-15.23M46.8,169.04c.27.17.55.33.82.49-1.43,3.02-2.8,5.99-4.18,8.96-.27-.11-.55-.22-.82-.33,1.1-3.19,2.47-6.21,4.18-9.12M28.16,211.09l1.26.38c-1.1,2.91-2.25,5.83-3.35,8.74-.27-.05-.55-.16-.82-.27.33-3.13,2.25-5.83,2.91-8.85M24.81,220.38c.33,3.02-4.84,18.85-7.92,22.54,1.37-3.46,6.32-18.52,7.92-22.54M29.48,235.83c-1.81,3.85-6.21,18.41-8.85,21.93,2.42-8.3,8.85-26.66,12.37-34.52.88,2.2-.11,5.22-3.52,12.59M36.19,194.6c-.27.06-.55.11-.82.17l.49-.49c1.81-4.56,3.63-9.12,5.5-13.63.22-.55.66-1.04,1.15-1.81-.22,2.91-4.12,12.42-6.32,15.78M40.8,195.04c-.27-.11-.55-.27-.82-.38.93-2.2,1.92-4.34,2.86-6.54.33.22.66.38.99.6-.99,2.09-2.03,4.23-3.02,6.32M45.75,195.64c-.11.27-.55.38-.88.66,1.15-8.68,42.76-91.3,48.65-96.69.05.22.27.49.22.66-16.87,31.33-33.69,62.72-47.99,95.37M51.3,197.84c.11-.28.16-.55.22-.88.22-.22.44-.49.6-.77.38-.38.77-.82,1.1-1.26,2.47-2.64,4.95-5.28,7.37-7.92.27-.27.55-.55.77-.82.27-.22.49-.49.77-.71l.82-.82c.22-.11,1.81-1.48,2.42-1.92h.11c-.33.55-1.92,2.25-2.03,2.58-.27.27-.49.55-.77.82l-.71.77c-.27.28-.49.49-.77.77-2.42,2.64-4.84,5.33-7.26,7.97-.38.38-.77.77-1.1,1.15-.27.22-.55.49-.77.71-.27.11-.49.22-.77.33M63.23,189.98c-.11.33-.16.6-.27.93-.22.27-.49.55-.71.82-.22.22-.44.49-.71.77-.22.49-.38,1.04-.6,1.59l-.99-.82c.33-.44.6-.93.93-1.37.22-.27.49-.55.71-.82.27-.22.55-.49.77-.71.27-.11.6-.27.88-.38M52.73,201.03c1.21-2.64,3.57-4.4,5.55-6.43.44-.27.82-.6,1.26-.88-.22.49-.44,1.04-.66,1.54-1.81,2.09-3.68,4.18-5.5,6.27l-.66-.49ZM54.49,205.32c.05-.22.05-.44.11-.66,1.98-2.36,3.96-4.78,6.05-7.09,1.92-2.09,4.01-4.07,6.05-6.1.27-.27.55-.49.77-.77.22-.22.44-.38.66-.6l1.65-1.65c.33-.11.6-.22.88-.33-.11.33-.22.71-.38,1.04-.49.49-.99.99-1.48,1.54-.27.22-.49.49-.77.77-.22.27-.49.49-.71.77-4.12,4.29-8.19,8.57-12.31,12.81-.16.11-.33.16-.49.27M221.87,266.61c-.11.17-.22.33-.22.49,0,.11.11.16.22.22.06-.16.16-.33.27-.49-.11-.06-.22-.17-.27-.22M425.63,233.3v.49c.06-.06.16-.17.22-.22,0-.11-.16-.17-.22-.28M427.83,241.6c-.11.06-.16.17-.27.27.22.06.38.11.55.11v-.22c-.11-.06-.22-.17-.27-.17M415.02,252.32c.38-.77,2.03-3.57,2.03-3.63,0-.11.16-.17.22-.28.05.11.22.22.22.28,0,.11-1.87,2.8-2.47,3.63v.06c-.06.11-.11.16-.11.16M272.82,246.1c-.06.11-.16.17-.22.27.11.06.22.17.33.22.06-.06.06-.11.11-.22-.05-.06-.11-.16-.22-.27M609.99,105.22c-.16.11-.44.17-.55.33-.06.17.11.44.11.6.22-.11.49-.16.55-.33.06-.11-.06-.38-.11-.6M223.19,263.31c-.38.77-.71,1.54-1.04,2.31.22.11.44.22.66.27.38-.77.71-1.54,1.04-2.25-.22-.11-.44-.22-.66-.33M220.82,267.98c-.33.77-.66,1.54-.93,2.31.22.11.49.22.77.33.27-.82.6-1.59.88-2.36-.22-.11-.49-.22-.71-.28M554.58,237.2c-.33,1.26-.66,2.47-.99,3.74.28.06.49.11.77.17.38-1.15.77-2.36,1.15-3.57-.33-.11-.6-.22-.93-.33M348.13,246.54c0,.06-.05.06-.05.06M348.24,246.32l.16-.33c1.98-4.01,13.47-26.49,13.91-27.43.27.11.49.22.71.33-.38.99-.82,2.03-1.26,3.08-.33,0-11.05,20.23-13.36,24.02l-.16.33c-.06.11-.11.17-.11.22M219.5,270.62c-.77,1.54-1.37,2.69-1.92,3.85q2.14-1.43,1.92-3.85M581.85,151.89c-.88,2.8-8.14,19.4-8.14,20.17-.6,1.65-1.21,3.3-1.81,4.95-.27-.11-.6-.22-.88-.33.6-1.59,9.56-21.71,10.83-24.79.06-.16.11-.27.11-.33M560.68,203.56c-.55,1.65-1.1,3.3-1.7,4.95.27.11.55.16.82.27.55-1.65,1.1-3.3,1.65-4.95l-.77-.27ZM368.57,194.77c-.71,1.32-1.43,2.58-2.09,3.9.33.17.66.27.99.44,1.15-2.58.66-1.43,1.81-4.01l-.71-.33ZM556.34,231.04c-.38,1.59-.82,3.24-1.21,4.89.27.06.55.16.82.22.55-1.59,1.1-3.24,1.65-4.84-.44-.11-.82-.22-1.26-.27M316.52,336.58c-.6,2.53-1.15,5.11-1.7,7.64.27.06.55.17.82.22.6-2.53,1.15-5.11,1.76-7.64l-.88-.22ZM413.43,262.92c2.69-1.26,11.16-13.58,11.38-16.82-1.54,2.42-10.17,14.95-11.38,16.82M314.21,346.2c-.77,3.9-1.54,7.75-2.36,11.65.27.06.49.16.77.27,1.54-3.79,1.59-7.86,2.42-11.82-.27,0-.55-.05-.82-.11M365.88,199.33c-1.37,3.02-13.08,28.69-14.84,32.43,2.53-2.31,14.79-28.53,15.56-31.99-.22-.17-.44-.27-.71-.44M561.62,202.63c3.68-8.14,6.98-16.33,9.45-24.96-3.79,8.08-7.2,16.33-9.45,24.96M314.27,243.85c-3.41,10.55-8.14,20.67-10.11,31.72l.88.28,10.22-31.66c-.33-.11-.66-.22-.99-.33M677.1,248.63c-.38.49-.77.99-1.15,1.48-6.32,8.19-10.99,17.64-19.29,24.24-.88.71-1.98,1.65-1.37,3.52,2.25-.99,3.79-2.53,5.17-4.29,2.86-3.68,5.66-7.48,8.52-11.16.93-1.21,1.76-3.19,2.91-3.35,1.87-.27,1.59-1.87,2.2-2.64,1.37-1.76,2.14-3.9,3.08-5.94.27-.49.38-1.1.55-1.65-.16-.06-.38-.16-.6-.22M671.17,197.62c-3.08-1.65-6.32-2.53-9.84-1.92-5.39.93-10.06,3.35-14.29,6.65-5.66,4.4-10.06,9.95-14.24,15.67-11.6,15.83-17.7,33.91-21.93,52.77-.6,2.86-1.48,5.83-.44,9.4,1.21-.93,2.31-1.59,3.08-2.47,4.45-5.17,9.12-10.17,13.19-15.61,9.01-12.04,17.7-24.35,26.6-36.44,2.03-2.75,4.34-5.39,6.98-7.42,3.08-2.31,5.39-4.89,6.6-8.52.27-.93.77-1.81,1.26-2.97.6-.11.99-.22,1.32-.22,3.52-.06,4.73-1.32,4.56-4.78-.11-2.03-1.26-3.3-2.86-4.12M533.2,197.4c-3.08-1.54-6.32-2.36-9.84-1.65-8.08,1.59-14.35,6.16-19.79,11.98-17.53,18.91-26.27,41.88-30.95,66.78-.33,1.65-.06,3.41-.06,5.88,1.54-1.26,2.69-1.98,3.57-2.97,2.58-2.75,5.28-5.5,7.53-8.52,8.36-11.1,16.55-22.32,24.85-33.48,3.79-5.06,7.2-10.55,11.65-14.9,4.29-4.12,8.9-7.75,10.17-13.74.77-.16,1.15-.27,1.54-.27,3.35-.06,4.56-1.21,4.56-4.34,0-2.36-1.32-3.85-3.24-4.78M198.4,198.01c-3.02-2.03-6.43-2.97-10.11-2.36-8.41,1.43-14.84,6.1-20.45,12.2-17.92,19.35-26.71,42.87-31.17,68.38-.22,1.1-.05,2.31-.05,4.29,1.59-1.21,2.58-1.76,3.3-2.53,4.23-4.89,8.68-9.56,12.53-14.73,9.12-12.15,17.86-24.57,26.88-36.77,2.09-2.8,4.29-5.83,7.09-7.81,3.9-2.69,6.27-6.16,7.75-10.44.11-.44.38-.88.71-1.65.88,0,1.54,0,2.14.06,1.98.16,3.02-.71,3.46-2.69.6-2.75.22-4.4-2.09-5.94M383.08,191.47c-.49.27-.88.38-1.1.71-.55.82-1.1,1.65-1.59,2.53-8.35,14.9-15.78,30.23-22.81,45.79-2.97,6.54-5.66,13.19-8.46,19.84-.16.16-.38.33-.49.55-9.78,23.47-18.91,47.22-25.94,71.68-1.59,5.72-2.75,11.54-4.07,17.26-1.81,6.32-3.24,12.64-2.03,19.35.93-6.1,1.92-12.15,2.91-18.19.71-3.08,1.32-6.1,2.14-9.12,5-18.36,10.72-36.5,17.7-54.25,3.46-8.85,7.04-17.59,10.55-26.38,4.12-9.18,8.08-18.52,12.53-27.59,6.32-12.92,13.08-25.61,19.62-38.48.55-1.1,1.7-2.09,1.04-3.68M438.82,233.79c-5.83,9.62-11.65,19.29-17.42,28.91l-.49,1.43c.33-.33.71-.6,1.04-.88,7.2-8.79,13.3-18.3,17.31-29.08.05-.38.16-.82.22-1.26-.22.28-.44.6-.66.88M600.26,121.77c-.38.99-.71,1.76-.99,2.47-.49.77-1.1,1.43-1.43,2.2-3.57,7.92-7.04,15.89-10.55,23.8-.44.93-.88,1.81-1.26,2.75-6.54,16.44-13.14,32.82-19.57,49.25-2.58,6.6-4.84,13.3-7.31,20.01.27.11.49.22.77.38.44-.6,1.1-1.15,1.37-1.87,4.51-11.76,8.96-23.53,13.52-35.29,4.56-11.76,9.23-23.47,13.85-35.23,2.09-4.84,4.18-9.67,6.27-14.51,1.59-3.68,3.13-7.37,4.73-11.05.38-.82,1.7-1.37.6-2.91M537.93,250.61c-2.97,4.4-5.99,8.74-9.01,13.08-2.58,3.63-5.44,6.93-8.9,9.67-1.26,1.04-2.69,2.25-2.53,5.11,5.39-4.18,8.74-9.07,12.15-14.02,1.48-1.87,2.69-4.12,4.56-5.5,2.91-2.09,2.8-5.39,4.45-7.92-.22-.17-.44-.28-.71-.44M553.87,212.19c.66-2.31,4.89-16.87,5-17.26,1.87-5.33,3.68-10.72,5.55-16.05.82-2.31,1.76-4.56,3.08-6.76.06.33.22.71.11.99-2.53,6.98-4.62,14.57-7.15,21.55-.16.38-5.72,15.39-6.6,17.53-.06.16-.11.27-.11.27M199.44,258.2l-.06.06.06-.06c.6-1.81,2.64-3.24,1.81-6.1-4.01,5.66-7.75,10.99-11.49,16.27-2.36,2.25-4.73,4.45-7.04,6.76-.71.66-1.43,1.48-.38,2.58,3.68-1.98,5.72-5.5,8.08-8.68,1.48-1.87,2.91-3.74,4.45-5.55,1.48-1.76,2.97-3.46,4.51-5.22h.11c.05.16.16.27.27.49.06-.16.11-.33.16-.49h-.44c-.06,0-.06-.06-.06-.06M372.31,198.5c-2.42,4.89-4.84,9.78-7.31,14.73-.16.49-.33,1.04-.49,1.54.11.06.27.11.44.22.22-.44.44-.82.66-1.26,2.47-4.89,4.89-9.78,7.37-14.68q2.31-3.24,2.42-6.32c-1.26,2.36-2.14,4.07-3.08,5.77M418.1,246.49c-.06.38-.11.77-.16,1.15.22-.22.38-.49.6-.71,3.63-4.4,10.5-18.91,11.98-22.59-2.09,3.96-10.33,18.19-12.42,22.15M274.8,256.71c-.33.71-.66,1.43-1.04,2.14-2.03,3.02-3.85,6.21-4.89,9.78,2.42-2.75,4.12-5.94,5.44-9.34.33-.77.71-1.59,1.1-2.36-.22-.11-.38-.17-.6-.22M229.45,250.06c-1.21,2.64-2.36,5.33-3.57,8.02-1.15,1.32-1.98,2.8-2.2,4.45.27.11.55.22.77.33.66-1.43,1.32-2.91,1.98-4.34,2.75-4.67,3.3-6.16,3.02-8.46M608.67,106.65c-.6,1.04-1.21,2.14-1.81,3.19-1.65,2.09-3.13,4.23-3.02,7.26,1.21-2.25,2.36-4.45,3.57-6.71l2.03-3.3c-.27-.17-.55-.27-.77-.44M222.03,258.64c-.05.16-.11.38-.16.6-.66,1.81-1.59,4.07-2.25,5.88.27.11.49.22.77.33,1.21-2.8,2.47-5.55,3.68-8.36,1.04-1.48,2.42-2.8,1.92-4.89.06,0,.06-.06.06-.06,0,0,0-.05.06-.05h-.11v.11c-.71,1.48-1.48,2.97-2.25,4.45-.27,0-.49.06-.71.06h-.06v-.06c.11-.77.11-1.59.38-2.31.6-1.76,1.37-3.41,2.03-5.17l.66-1.32c-.16-.06-.33-.17-.49-.22-.22.38-.44.77-.66,1.15-2.25,4.45-9.4,14.29-10.5,20.06,1.04-1.04,5.39-8.9,7.04-10.66.49-.6.77-.55.6.38v.06M602.57,117.26c-.38.77-.71,1.59-1.04,2.42-.22.49-.38,1.04-.55,1.54.17.05.33.11.49.16.17-.38.38-.82.6-1.21.44-.88.88-1.7,1.32-2.58-.27-.11-.55-.22-.82-.33M427.06,242.42c-.6,1.15-.93,1.87-1.32,2.58-.06.38-.11.71-.22,1.1.22-.22.44-.44.66-.66.66-.66,1.48-1.32.88-3.02M436.18,256.27c-.06.38-.06.77-.11,1.21.27-.22.49-.44.77-.6.16-.38.33-.71.49-1.04-.38.16-.77.33-1.15.44M223.19,247.48l-.06.33c-.11,0-.16-.06-.27,0,.11-.06.16-.11.22-.16,0-.06.06-.11.11-.17.27-.6.6-1.21.93-1.87,5.66-10.17,11.21-20.39,16.93-30.51,6.82-12.04,16.33-21.82,26.38-31.17,3.08-2.91,9.34-2.03,12.64,1.54,3.13,3.35,4.89,7.2,4.56,11.98-.55,8.3-2.25,16.33-4.73,24.19-2.09,6.76-4.18,13.52-6.21,20.28-.33,1.04-.49,2.14-.11,3.41.6-.99,1.26-2.03,1.81-3.08,8.46-15.61,18.14-30.45,29.68-43.97,3.57-4.23,7.53-8.19,11.27-12.31,2.14-2.31,4.34-4.62,6.38-7.04,1.1-1.32,2.25-1.59,3.96-1.48,6.98.6,12.59,6.87,10.99,15.56-1.1,6.27-2.58,12.37-4.84,18.3-7.37,19.79-14.73,39.52-22.04,59.31-.93,2.47-1.7,5-2.47,7.53-.22.82-.16,1.7-.33,3.35,1.26-1.1,1.98-1.7,2.58-2.36,7.75-8.57,14.24-18.14,20.39-27.87,6.05-9.45,12.31-18.85,17.92-28.58,4.4-7.7,7.75-15.94,11.76-23.8,2.58-5.22,5.33-10.33,8.3-15.34,3.41-5.83,6.32-5.06,11.71-2.31,1.26.66,2.31,1.65,3.79,1.98.88.22,1.98.44,1.7,1.98-.06.33.71.88,1.15,1.26,3.41,3.08,3.85,4.56,1.81,8.52-3.41,6.65-7.15,13.14-10.55,19.73-3.79,7.42-7.31,15.01-10.99,22.48-.49.99-.99,2.03-1.48,3.02-.6.55-1.37,1.1-.49,2.03.44-.44.88-.88,1.32-1.32.55-.99,1.1-1.92,1.65-2.91,7.7-13.58,16.77-26.22,27.54-37.6,6.21-6.6,13.47-11.87,21.33-16.27,3.79-2.14,7.92-2.69,12.09-1.48,6.16,1.7,11.1,4.95,14.84,10.39,5.06,7.26,7.81,15.01,7.37,23.8-.33,6.16-1.92,12.04-4.4,17.59-2.64,5.88-5.66,11.6-8.52,17.37-.55,1.15-1.15,2.31-1.15,3.85.6-.33,1.32-.6,1.87-1.04,11.43-9.12,21.44-19.62,29.74-31.77,3.63-5.28,6.71-11.05,10.66-16.11,4.12-5.22,8.74-10.22,13.58-14.79,5.83-5.55,13.08-8.57,21.05-9.56,1.76-.22,3.57.05,5.28.38,10.83,2.31,19.24,10.88,21.27,21.71.82,4.18-.93,7.92-2.53,11.65-.82,1.92-2.2,3.57-.71,5.94.44.71-.27,2.42-.88,3.46-2.47,4.51-5.06,9.07-7.75,13.47-7.04,11.49-12.7,23.58-17.04,36.28l.11.99.49-.49c7.15-6.65,13.25-14.18,18.96-22.1,1.15-1.65,2.2-3.41,3.41-5,3.96-5.11,6.32-10.77,7.53-17.15,2.36-12.53,6.21-24.74,10.55-36.72,8.08-22.37,16.27-44.63,24.9-66.78,4.73-12.15,11.27-23.42,18.8-34.13,1.59-2.25,3.41-4.4,5.22-6.49,1.81-2.03,3.63-2.25,6.16-.99.77.38,1.48,1.04,2.31,1.21,2.14.44,2.8,1.81,2.58,3.9,1.59-1.1,3.46-.33,3.52.66.11,2.03,1.65,2.75,2.47,4.07,1.48,2.53,1.7,5.06.11,7.81-3.74,6.32-7.42,12.64-10.72,19.18-8.85,17.53-16.38,35.62-23.64,53.81-3.41,8.57-7.2,16.98-10.55,25.56-7.64,19.68-15.45,39.3-20.78,59.75-1.98,7.59-3.13,15.34-4.34,23.09-.49,3.08-.49,6.32,1.54,9.23,1.98.27,3.13-1.1,4.18-2.25,4.29-4.62,8.96-9.01,12.64-14.13,7.97-11.05,15.5-22.48,23.2-33.75,4.51-6.71,8.57-13.74,13.58-20.12,8.08-10.33,14.84-21.71,24.57-30.73,6.21-5.72,13.19-9.73,21.6-11.05,2.2-.33,4.56-.38,6.71.16,10.77,2.69,18.19,9.01,21.11,20.01,1.32,4.89-.27,9.29-2.31,13.52-.88,1.87-1.98,3.41-.55,5.61.44.66-.27,2.36-.88,3.41-2.91,5.17-5.83,10.33-8.9,15.39-6.54,10.88-11.65,22.43-16,34.35-.11.27,0,.66,0,1.37,16.87-15.72,27.65-35.62,40.4-53.92,1.48.55,2.75,1.1,4.01,1.54,1.76.55,2.03,1.87,1.48,3.3-.55,1.54-1.21,3.08-2.09,4.45-7.31,11.38-14.46,22.87-22.04,34.08-4.34,6.38-9.23,12.37-14.13,18.36-1.54,1.92-3.68,3.41-5.77,4.84-.93.66-2.42,1.1-3.52.93-4.18-.77-8.08-2.31-10.88-5.61-.93-1.1-1.43-2.64-2.03-4.07-.38-.99-.66-2.09-1.21-3.79-1.1,1.59-1.92,2.64-2.69,3.74-3.08,4.4-6.65,8.36-10.94,11.54-3.68,2.69-7.42,3.9-12.04,2.09-3.3-1.26-6.65-2.14-9.34-4.67-2.25-2.14-3.52-4.51-4.29-7.42-1.76-7.04-1.54-14.07-.27-21.11.44-2.58.88-5.17,1.37-7.97-.55.33-.82.38-.99.55-5.11,7.81-10.22,15.67-15.39,23.47-4.84,7.26-10.28,14.02-16.93,19.9-5,4.4-10.55,4.56-16.33,2.58-5.94-2.03-8.68-7.04-9.18-12.86-.55-6.71-.38-13.41-.55-20.12,0-.88.06-1.7.17-3.46-1.1,1.26-1.7,1.87-2.25,2.58-4.73,6.16-9.29,12.31-14.13,18.36-1.59,1.92-3.74,3.35-5.66,5-1.92,1.7-4.12,1.59-6.43.82-5.72-1.92-10.28-4.95-11.16-11.54-.06-.22-.27-.38-.71-1.1-.82,1.04-1.59,1.87-2.25,2.86-3.13,4.62-6.82,8.74-11.38,12.09-3.68,2.75-7.53,3.96-12.04,1.98-2.25-1.04-4.78-1.59-6.93-2.86-4.67-2.69-6.43-7.15-7.2-12.31-1.26-8.68-.27-17.09,1.87-25.5.49-1.87.88-3.68,1.43-6.16-.99.55-1.48.71-1.87,1.04-8.3,7.64-16.38,15.5-24.9,22.87-11.71,10.22-24.63,18.52-39.14,24.19-5.17,2.03-10.39,1.81-15.67.49-2.2-.55-4.51-1.04-6.49-2.09-2.42-1.21-4.67-2.91-6.87-4.56-1.1-.82-1.65-2.2-.82-3.35.55-.77,1.81-1.1,2.75-1.54.11-.05.27-.05.38-.05,6.16,1.59,10.77-1.81,15.28-4.95,9.01-6.21,15.94-14.4,22.32-23.14,10-13.74,17.09-28.91,22.7-44.85,1.7-4.78,2.75-9.73,2.36-14.84-.06-.88-.27-1.7-.49-3.13-1.7.44-3.3.66-4.73,1.21-8.74,3.3-16.49,8.19-23.03,14.95-10,10.33-18.47,21.77-25.5,34.3-10.94,19.57-20.28,39.85-27.7,61.01-3.24,9.29-6.93,18.47-9.95,27.81-2.75,8.68-5,17.53-7.26,26.33-2.09,8.19-3.85,16.49-5.77,24.74-.66,2.8-1.37,5.61-2.03,8.36-5.88.93-10.61-.49-14.57-4.84-5.39-5.88-7.86-12.75-7.2-20.56.55-7.04,1.48-14.07,2.91-21,4.73-22.04,11.76-43.37,20.01-64.37.27-.66.44-1.43.6-2.14.22-.49.44-.93.66-1.43-.16-.06-.33-.17-.44-.22-.27.33-.55.71-.82,1.04-1.76,1.98-3.52,4.01-5.33,5.94-1.1,1.21-2.2,2.47-3.35,3.57-4.89,4.67-9.07,4.67-15.72,1.87-3.35-1.37-4.51-4.56-4.89-8.03-.77-7.53.22-14.95,1.76-22.26,3.68-17.42,8.63-34.52,15.12-51.12.38-1.04.66-2.09.38-3.63-1.1,1.04-2.25,2.03-3.19,3.19-8.3,10.55-15.83,21.6-22.21,33.42-6.27,11.71-12.7,23.31-19.18,34.85-1.48,2.64-3.41,5.06-5.11,7.53-1.1,1.65-2.64,2.31-4.62,1.7-2.14-.66-4.34-1.15-6.43-2.03-2.03-.77-3.13-2.42-3.19-4.67,0-2.2-.11-4.34.06-6.49.88-13.63,3.63-26.99,7.53-40.13,3.08-10.39,6.05-20.83,9.12-31.28-.06-.27-.06-.6-.06-.93-.11.16-.27.33-.38.49-2.31,2.64-4.78,5.17-6.87,7.97-7.15,9.56-12.81,20.06-18.25,30.62-6.82,13.25-13.3,26.66-19.95,40.02-.44.93-.82,1.87-1.37,2.69-1.43,2.2-2.31,5.28-5.61,4.95-4.18-.38-8.63-1.21-10.88-5.11-1.15-2.03-1.04-4.89-1.21-7.37-.16-3.57,0-7.09,0-11.27-.88,1.1-1.48,1.92-2.09,2.69-4.62,6.05-9.12,12.15-13.91,18.03-1.59,2.03-3.9,3.52-5.88,5.28-1.59,1.43-3.57,1.7-5.39,1.04-2.69-.99-5.44-2.2-7.75-3.85-1.54-1.1-2.47-3.08-3.41-4.84-.66-1.15-.88-2.53-1.48-4.56-1.04,1.43-1.81,2.36-2.53,3.3-2.91,4.18-6.21,7.97-10.22,11.16-4.12,3.3-8.41,4.95-13.63,2.69-2.42-1.04-4.95-1.59-7.2-3.19-5.5-3.79-6.27-9.56-6.82-15.39-.66-7.53.55-14.9,2.31-22.21,4.12-17.31,11.16-33.31,22.26-47.27,3.63-4.56,7.64-8.85,11.82-12.92,5.66-5.5,12.53-8.74,20.34-10.22,3.24-.6,6.32-.27,9.34.77,9.34,3.24,16,9.18,18.41,19.02.66,2.58.49,5.5.11,8.19-.27,2.03-1.26,4.07-2.25,5.99-.93,1.76-1.54,3.24-.49,5.28.44.82-.22,2.42-.77,3.46-2.97,5.28-5.99,10.55-9.12,15.72-6.27,10.44-11.27,21.49-15.39,32.93-.22.55-.22,1.15.22,2.09,3.13-3.41,6.54-6.6,9.34-10.22,5.22-6.71,10.17-13.58,15.12-20.45.88-1.15,1.32-2.69,1.7-4.18,3.96-14.84,7.53-29.85,14.24-43.86,2.09-4.34,4.18-8.63,6.32-12.97.49-.99,1.1-2.09,1.92-2.75.82-.66,2.2-1.32,2.97-1.04,2.8.88,5.77,1.81,8.14,3.46,1.81,1.26,3.19,3.46,4.01,5.55.55,1.26-.16,3.19-.66,4.67-4.01,11.6-8.19,23.09-12.15,34.68-1.76,5.28-3.13,10.66-4.67,16l-.22,2.53M222.53,248.03c0-.11,0-.22-.06-.27.11,0,.27,0,.38.06-.11.06-.22.17-.33.22"/>
            <g>
              <path class="cls-2" d="M3.84,380.75c-2.56,0-3.84-1.28-3.84-3.84v-25.72c0-2.56,1.28-3.84,3.84-3.84h16.53c1.93,0,2.89.95,2.89,2.84s-.96,2.89-2.89,2.89H7.01v7.82h12.27c1.96,0,2.94.96,2.94,2.89s-.98,2.89-2.94,2.89H7.01v8.34h13.36c1.93,0,2.89.95,2.89,2.84s-.96,2.89-2.89,2.89H3.84Z"/>
              <path class="cls-2" d="M40.26,381.18c-1.2,0-2.12-.33-2.75-.99-.63-.66-.95-1.61-.95-2.84v-11.65l-9.66-13.74c-.44-.66-.63-1.38-.57-2.15.06-.77.38-1.44.95-2.01.57-.57,1.37-.85,2.42-.85,1.48,0,2.76.79,3.84,2.37l6.82,9.85,6.82-9.85c.6-.85,1.19-1.46,1.78-1.82.58-.36,1.27-.54,2.06-.54,1.01,0,1.79.26,2.34.78.55.52.85,1.17.9,1.94s-.21,1.57-.78,2.39l-9.57,13.69v11.6c0,2.56-1.22,3.84-3.65,3.84Z"/>
              <path class="cls-2" d="M64.41,380.75c-2.56,0-3.84-1.28-3.84-3.84v-25.72c0-2.56,1.28-3.84,3.84-3.84h16.53c1.93,0,2.89.95,2.89,2.84s-.96,2.89-2.89,2.89h-13.36v7.82h12.27c1.96,0,2.94.96,2.94,2.89s-.98,2.89-2.94,2.89h-12.27v8.34h13.36c1.93,0,2.89.95,2.89,2.84s-.96,2.89-2.89,2.89h-16.53Z"/>
              <path class="cls-2" d="M113.72,381.28c-2.46,0-4.6-.4-6.42-1.18-1.82-.79-3.21-1.88-4.19-3.27-.98-1.39-1.47-3.01-1.47-4.88,0-2.15.6-4,1.8-5.57,1.2-1.56,2.81-2.91,4.83-4.05l.05-.05c-1.11-1.14-1.93-2.3-2.46-3.48-.54-1.18-.81-2.39-.81-3.62,0-1.64.41-3.09,1.23-4.33.82-1.25,1.97-2.23,3.46-2.94,1.48-.71,3.2-1.07,5.16-1.07,2.72,0,4.86.69,6.44,2.08,1.58,1.39,2.37,3.24,2.37,5.54,0,1.74-.47,3.32-1.42,4.76-.95,1.44-2.45,2.76-4.5,3.95l5.64,5.78c.41-.88.77-1.84,1.07-2.87.3-1.03.54-2.11.73-3.24.35-1.89,1.39-2.84,3.13-2.84.98,0,1.71.28,2.2.83.49.55.67,1.33.54,2.35-.25,1.89-.68,3.67-1.28,5.33-.6,1.66-1.33,3.17-2.18,4.52l3.55,3.46c.76.73,1.14,1.44,1.14,2.16s-.28,1.31-.83,1.8c-.55.49-1.3.73-2.25.73-.85,0-1.55-.17-2.08-.5-.54-.33-1.12-.81-1.75-1.44l-1.7-1.75c-1.39,1.2-2.94,2.13-4.64,2.79-1.7.66-3.49.99-5.35.99ZM114.15,375.73c2.11,0,3.98-.69,5.59-2.08l-7.58-7.58c-2.27,1.39-3.41,3.16-3.41,5.3,0,1.36.47,2.42,1.4,3.2.93.77,2.27,1.16,4,1.16ZM114.9,351.72c-1.01,0-1.82.3-2.42.9-.6.6-.9,1.39-.9,2.37,0,.76.18,1.46.54,2.11.36.65.99,1.44,1.87,2.39,1.45-.79,2.48-1.55,3.08-2.27.6-.73.9-1.55.9-2.46,0-1.01-.28-1.77-.83-2.27-.55-.5-1.3-.76-2.25-.76Z"/>
              <path class="cls-2" d="M154.69,380.75c-1.23,0-2.16-.32-2.79-.97-.63-.65-.95-1.57-.95-2.77v-26c0-1.2.32-2.12.95-2.77.63-.65,1.55-.97,2.75-.97,2.43,0,3.65,1.25,3.65,3.74v23.54h12.69c2.11,0,3.17,1.03,3.17,3.08s-1.06,3.13-3.17,3.13h-16.29Z"/>
              <path class="cls-2" d="M178.46,381.18c-1.33,0-2.27-.44-2.84-1.33-.57-.88-.55-1.97.05-3.27l12.12-26.57c.5-1.07,1.11-1.85,1.8-2.34.69-.49,1.5-.73,2.42-.73s1.72.25,2.42.73c.69.49,1.28,1.27,1.75,2.34l12.22,26.57c.6,1.33.62,2.42.07,3.29-.55.87-1.44,1.3-2.68,1.3-1.07,0-1.9-.25-2.49-.76-.58-.5-1.1-1.29-1.54-2.37l-1.99-4.55h-15.58l-1.94,4.55c-.47,1.11-.98,1.9-1.52,2.39-.54.49-1.3.73-2.27.73ZM191.92,355.18l-5.26,12.6h10.7l-5.35-12.6h-.09Z"/>
              <path class="cls-2" d="M224.69,381.28c-2.02,0-4.04-.22-6.06-.66-2.02-.44-3.77-1.09-5.26-1.94-.88-.47-1.44-1.11-1.66-1.92-.22-.8-.17-1.59.14-2.34.32-.76.82-1.29,1.52-1.61.69-.32,1.53-.24,2.51.24,1.26.73,2.67,1.26,4.22,1.61,1.55.35,3.08.52,4.59.52,2.27,0,3.91-.36,4.9-1.07.99-.71,1.49-1.6,1.49-2.68,0-.92-.35-1.64-1.04-2.18-.69-.54-1.91-.99-3.65-1.37l-5.35-1.14c-5.97-1.26-8.95-4.36-8.95-9.28,0-2.12.57-3.97,1.71-5.57,1.14-1.59,2.72-2.83,4.76-3.72,2.04-.88,4.4-1.33,7.08-1.33,1.77,0,3.5.21,5.21.64,1.7.43,3.2,1.05,4.5,1.87.79.47,1.28,1.09,1.47,1.85.19.76.13,1.48-.17,2.18-.3.69-.81,1.18-1.52,1.47-.71.28-1.59.17-2.63-.33-1.04-.54-2.15-.93-3.32-1.18-1.17-.25-2.37-.38-3.6-.38-1.99,0-3.53.39-4.62,1.16-1.09.77-1.63,1.78-1.63,3.01,0,.92.33,1.66.99,2.23.66.57,1.82,1.03,3.46,1.37l5.35,1.14c6.13,1.33,9.19,4.33,9.19,9,0,2.08-.56,3.91-1.68,5.47-1.12,1.56-2.7,2.78-4.74,3.65-2.04.87-4.44,1.3-7.22,1.3Z"/>
              <path class="cls-2" d="M246.81,381.18c-1.2,0-2.12-.33-2.75-.99-.63-.66-.95-1.59-.95-2.79v-26.67c0-2.53,1.23-3.79,3.69-3.79s3.65,1.26,3.65,3.79v26.67c0,2.53-1.22,3.79-3.65,3.79Z"/>
              <path class="cls-2" d="M260.88,381.18c-1.2,0-2.12-.33-2.75-.99-.63-.66-.95-1.59-.95-2.79v-26.71c0-1.2.32-2.12.95-2.77.63-.65,1.55-.97,2.75-.97,2.43,0,3.65,1.25,3.65,3.74v11.22h.09l12.6-13.17c.54-.57,1.1-1,1.68-1.3.58-.3,1.26-.45,2.01-.45,1.07,0,1.86.28,2.37.85.5.57.73,1.24.66,2.01-.06.77-.41,1.48-1.04,2.11l-11.13,11.37,11.79,12.55c.73.79,1.1,1.59,1.11,2.42.02.82-.25,1.51-.81,2.06-.55.55-1.37.83-2.44.83-.92,0-1.65-.19-2.2-.57-.55-.38-1.16-.93-1.82-1.66l-12.79-13.45h-.09v11.89c0,1.2-.31,2.13-.92,2.79-.62.66-1.52.99-2.72.99Z"/>
            </g>
            <g>
              <path class="cls-2" d="M400.28,381.39c-1.2,0-2.12-.33-2.75-.99-.63-.66-.95-1.59-.95-2.79v-26.67c0-2.53,1.23-3.79,3.69-3.79s3.65,1.26,3.65,3.79v10.04h15.54v-10.04c0-2.53,1.21-3.79,3.65-3.79s3.69,1.26,3.69,3.79v26.67c0,1.2-.32,2.13-.95,2.79-.63.66-1.55.99-2.75.99s-2.07-.33-2.7-.99c-.63-.66-.95-1.59-.95-2.79v-10.51h-15.54v10.51c0,2.53-1.22,3.79-3.65,3.79Z"/>
              <path class="cls-2" d="M449.02,381.49c-3.28,0-6.17-.72-8.64-2.16-2.48-1.44-4.4-3.44-5.78-6.02-1.37-2.57-2.06-5.6-2.06-9.07s.69-6.5,2.06-9.07c1.37-2.57,3.29-4.57,5.75-5.99s5.35-2.13,8.67-2.13,6.21.71,8.69,2.13c2.48,1.42,4.4,3.42,5.78,5.99,1.37,2.57,2.06,5.58,2.06,9.02s-.69,6.51-2.06,9.09c-1.37,2.59-3.3,4.6-5.78,6.04-2.48,1.44-5.38,2.16-8.69,2.16ZM449.02,375.24c2.78,0,4.95-.97,6.51-2.91s2.34-4.63,2.34-8.08-.77-6.16-2.32-8.08c-1.55-1.91-3.73-2.87-6.54-2.87s-4.9.96-6.47,2.87c-1.56,1.91-2.34,4.6-2.34,8.08s.78,6.13,2.34,8.08,3.72,2.91,6.47,2.91Z"/>
              <path class="cls-2" d="M483.17,381.49c-2.02,0-4.04-.22-6.06-.66-2.02-.44-3.77-1.09-5.26-1.94-.88-.47-1.44-1.11-1.66-1.92-.22-.8-.17-1.59.14-2.34.32-.76.82-1.29,1.52-1.61.69-.32,1.53-.24,2.51.24,1.26.73,2.67,1.26,4.22,1.61,1.55.35,3.08.52,4.59.52,2.27,0,3.91-.36,4.9-1.07.99-.71,1.49-1.6,1.49-2.68,0-.92-.35-1.64-1.04-2.18-.69-.54-1.91-.99-3.65-1.37l-5.35-1.14c-5.97-1.26-8.95-4.36-8.95-9.28,0-2.12.57-3.97,1.71-5.57,1.14-1.59,2.72-2.83,4.76-3.72,2.04-.88,4.4-1.33,7.08-1.33,1.77,0,3.5.21,5.21.64,1.7.43,3.2,1.05,4.5,1.87.79.47,1.28,1.09,1.47,1.85.19.76.13,1.48-.17,2.18-.3.69-.81,1.18-1.52,1.47-.71.28-1.59.17-2.63-.33-1.04-.54-2.15-.93-3.32-1.18-1.17-.25-2.37-.38-3.6-.38-1.99,0-3.53.39-4.62,1.16-1.09.77-1.63,1.78-1.63,3.01,0,.92.33,1.66.99,2.23.66.57,1.82,1.03,3.46,1.37l5.35,1.14c6.13,1.33,9.19,4.33,9.19,9,0,2.08-.56,3.91-1.68,5.47-1.12,1.56-2.7,2.78-4.74,3.65-2.04.87-4.44,1.3-7.22,1.3Z"/>
              <path class="cls-2" d="M505.29,381.39c-1.2,0-2.12-.33-2.75-.99-.63-.66-.95-1.59-.95-2.79v-26.29c0-2.49,1.25-3.74,3.74-3.74h11.51c3.73,0,6.6.94,8.62,2.82,2.02,1.88,3.03,4.49,3.03,7.84s-1.01,5.97-3.03,7.86c-2.02,1.89-4.89,2.84-8.62,2.84h-7.91v8.67c0,1.2-.31,2.13-.92,2.79-.62.66-1.52.99-2.72.99ZM508.93,363.25h6.68c3.88,0,5.83-1.67,5.83-5.02s-1.94-4.93-5.83-4.93h-6.68v9.95Z"/>
              <path class="cls-2" d="M536.73,381.39c-1.2,0-2.12-.33-2.75-.99-.63-.66-.95-1.59-.95-2.79v-26.67c0-2.53,1.23-3.79,3.69-3.79s3.65,1.26,3.65,3.79v26.67c0,2.53-1.22,3.79-3.65,3.79Z"/>
              <path class="cls-2" d="M558.76,381.39c-1.2,0-2.12-.33-2.75-.99-.63-.66-.95-1.59-.95-2.79v-23.97h-8.38c-2.05,0-3.08-1.01-3.08-3.03s1.03-3.03,3.08-3.03h24.11c2.05,0,3.08,1.01,3.08,3.03s-1.03,3.03-3.08,3.03h-8.38v23.97c0,1.2-.31,2.13-.92,2.79-.62.66-1.52.99-2.72.99Z"/>
              <path class="cls-2" d="M574.25,381.39c-1.33,0-2.27-.44-2.84-1.33-.57-.88-.55-1.97.05-3.27l12.12-26.57c.5-1.07,1.11-1.85,1.8-2.34.69-.49,1.5-.73,2.42-.73s1.72.25,2.42.73c.69.49,1.28,1.27,1.75,2.34l12.22,26.57c.6,1.33.62,2.42.07,3.29-.55.87-1.44,1.3-2.68,1.3-1.07,0-1.9-.25-2.49-.76-.58-.5-1.1-1.29-1.54-2.37l-1.99-4.55h-15.58l-1.94,4.55c-.47,1.11-.98,1.9-1.52,2.39-.54.49-1.3.73-2.27.73ZM587.7,355.39l-5.26,12.6h10.7l-5.35-12.6h-.09Z"/>
              <path class="cls-2" d="M612.7,380.97c-1.23,0-2.16-.32-2.79-.97-.63-.65-.95-1.57-.95-2.77v-26c0-1.2.32-2.12.95-2.77.63-.65,1.55-.97,2.75-.97,2.43,0,3.65,1.25,3.65,3.74v23.54h12.69c2.11,0,3.17,1.03,3.17,3.08s-1.06,3.13-3.17,3.13h-16.29Z"/>
            </g>
          </g>
        </g>
      </g>
      <g>
        <path class="cls-2" d="M838.61,194.11l-37.76-51.86-14.1,14.62v37.24h-26.8v-121.82h26.8v53.25l49.42-53.25h32.37l-49.6,51.69,51.86,70.13h-32.19Z"/>
        <path class="cls-2" d="M974.18,194.11l-11.14-27.32h-51.51l-11.14,27.32h-27.32l52.21-122.69h24.71l52.21,122.69h-28.02ZM937.28,103.61l-16.18,39.5h32.37l-16.18-39.5Z"/>
        <path class="cls-2" d="M1116.18,194.11v-79.53l-34.28,52.03h-.7l-33.93-51.51v79.01h-26.28v-121.82h28.89l32.02,51.51,32.02-51.51h28.89v121.82h-26.63Z"/>
        <path class="cls-2" d="M1219.2,157.56h-20.36v36.55h-26.8v-121.82h49.77c29.06,0,46.64,17.23,46.64,42.11v.35c0,28.19-21.93,42.81-49.25,42.81ZM1241.3,114.92c0-12.01-8.35-18.45-21.75-18.45h-20.71v37.24h21.23c13.4,0,21.23-8.01,21.23-18.45v-.35Z"/>
        <path class="cls-2" d="M1366.77,194.11l-11.14-27.32h-51.51l-11.14,27.32h-27.32l52.21-122.69h24.71l52.21,122.69h-28.02ZM1329.88,103.61l-16.18,39.5h32.37l-16.18-39.5Z"/>
        <path class="cls-2" d="M1413.59,194.11v-121.82h26.8v97.45h60.74v24.36h-87.54Z"/>
        <path class="cls-2" d="M1611.97,194.11l-11.14-27.32h-51.51l-11.14,27.32h-27.32l52.21-122.69h24.71l52.21,122.69h-28.02ZM1575.08,103.61l-16.18,39.5h32.37l-16.18-39.5Z"/>
        <path class="cls-2" d="M1710.99,194.11v-121.82h91.89v23.84h-65.26v24.71h57.43v23.84h-57.43v25.58h66.13v23.84h-92.76Z"/>
        <path class="cls-2" d="M1888.67,145.55v48.55h-26.8v-48.03l-46.81-73.79h31.33l29.06,48.9,29.58-48.9h30.46l-46.81,73.27Z"/>
        <path class="cls-2" d="M1952.18,194.11v-121.82h91.89v23.84h-65.26v24.71h57.43v23.84h-57.43v25.58h66.13v23.84h-92.76Z"/>
        <path class="cls-2" d="M2202.95,196.54l-14.1-14.27c-9.92,8.18-21.58,13.57-35.67,13.57-23.32,0-40.9-13.57-40.9-35.33,0-15.66,8.35-26.63,23.67-33.59-5.92-8.53-8.53-16.01-8.53-24.54,0-16.88,13.4-32.19,36.89-32.19,20.71,0,34.28,13.4,34.28,30.8s-10.44,26.1-25.58,32.02l16.18,16.18c4-6.26,8-13.4,11.83-20.88l19.66,10.79c-4.7,8.53-9.92,17.58-16.01,25.76l17.92,17.92-19.67,13.75ZM2150.57,143.29c-8.01,4.18-11.31,10.09-11.31,16.18,0,8.7,7.14,14.44,17.05,14.44,6.09,0,12.01-2.61,17.58-6.96l-23.32-23.67ZM2163.79,91.08c-7.13,0-11.83,5.05-11.83,12.53,0,5.57,2.09,9.57,7.14,15.31,10.62-4,16.18-8.53,16.18-16.36,0-7.31-4.7-11.49-11.49-11.49Z"/>
        <path class="cls-2" d="M759.95,361.24v-121.82h26.8v97.46h60.74v24.36h-87.54Z"/>
        <path class="cls-2" d="M958.34,361.24l-11.14-27.32h-51.51l-11.14,27.32h-27.32l52.21-122.69h24.71l52.21,122.69h-28.02ZM921.44,270.75l-16.18,39.5h32.37l-16.18-39.5Z"/>
        <path class="cls-2" d="M1046.74,362.98c-18.45,0-37.07-6.44-51.69-19.49l15.84-18.97c10.96,9.05,22.45,14.79,36.37,14.79,10.96,0,17.58-4.35,17.58-11.49v-.35c0-6.79-4.18-10.27-24.54-15.49-24.54-6.27-40.37-13.05-40.37-37.24v-.35c0-22.1,17.75-36.72,42.64-36.72,17.75,0,32.89,5.57,45.25,15.49l-13.92,20.19c-10.79-7.48-21.41-12.01-31.67-12.01s-15.66,4.7-15.66,10.62v.35c0,8.01,5.22,10.62,26.28,16.01,24.71,6.44,38.63,15.31,38.63,36.55v.35c0,24.19-18.45,37.76-44.72,37.76Z"/>
        <path class="cls-2" d="M1116,361.24v-121.82h26.8v121.82h-26.8Z"/>
        <path class="cls-2" d="M1251.92,361.24l-37.76-51.86-14.1,14.62v37.24h-26.8v-121.82h26.8v53.25l49.42-53.25h32.37l-49.6,51.69,51.86,70.13h-32.19Z"/>
        <path class="cls-2" d="M1428.72,361.24v-48.9h-49.42v48.9h-26.8v-121.82h26.8v48.21h49.42v-48.21h26.8v121.82h-26.8Z"/>
        <path class="cls-2" d="M1543.92,363.33c-37.59,0-64.56-28.02-64.56-62.65v-.35c0-34.63,27.32-63,64.91-63s64.56,28.02,64.56,62.65v.35c0,34.63-27.32,63-64.91,63ZM1580.82,300.33c0-20.88-15.31-38.29-36.89-38.29s-36.55,17.05-36.55,37.94v.35c0,20.88,15.31,38.29,36.89,38.29s36.54-17.05,36.54-37.94v-.35Z"/>
        <path class="cls-2" d="M1675.14,362.98c-18.45,0-37.07-6.44-51.69-19.49l15.84-18.97c10.96,9.05,22.45,14.79,36.37,14.79,10.96,0,17.58-4.35,17.58-11.49v-.35c0-6.79-4.18-10.27-24.54-15.49-24.54-6.27-40.37-13.05-40.37-37.24v-.35c0-22.1,17.75-36.72,42.64-36.72,17.75,0,32.89,5.57,45.25,15.49l-13.92,20.19c-10.79-7.48-21.41-12.01-31.67-12.01s-15.66,4.7-15.66,10.62v.35c0,8.01,5.22,10.62,26.28,16.01,24.71,6.44,38.63,15.31,38.63,36.55v.35c0,24.19-18.45,37.76-44.72,37.76Z"/>
        <path class="cls-2" d="M1790.34,324.7h-20.36v36.55h-26.8v-121.82h49.77c29.06,0,46.64,17.23,46.64,42.11v.35c0,28.19-21.93,42.81-49.25,42.81ZM1812.44,282.06c0-12.01-8.35-18.45-21.75-18.45h-20.71v37.24h21.23c13.4,0,21.23-8.01,21.23-18.45v-.35Z"/>
        <path class="cls-2" d="M1860.65,361.24v-121.82h26.8v121.82h-26.8Z"/>
        <path class="cls-2" d="M1973.07,264.14v97.11h-26.8v-97.11h-37.07v-24.71h100.94v24.71h-37.07Z"/>
        <path class="cls-2" d="M2105.67,361.24l-11.14-27.32h-51.51l-11.14,27.32h-27.32l52.21-122.69h24.71l52.21,122.69h-28.02ZM2068.78,270.75l-16.18,39.5h32.37l-16.18-39.5Z"/>
        <path class="cls-2" d="M2152.48,361.24v-121.82h26.8v97.46h60.74v24.36h-87.54Z"/>
      </g>
    </g>
  </g>
</svg>