<?xml version="1.0" encoding="UTF-8"?>
<svg id="Layer_2" data-name="Layer 2" xmlns="http://www.w3.org/2000/svg" viewBox="0 0 464.76 261.88">
  <defs>
    <style>
      .cls-1 {
        fill: #ffce41;
      }

      .cls-2 {
        fill: #fff;
      }

      .cls-3 {
        fill: #44bfb7;
      }
    </style>
  </defs>
  <g id="Layer_2-2" data-name="Layer 2">
    <g id="logo">
      <g>
        <path class="cls-3" d="M358.91,67c-7.97-2.09-15.12-1.89-24.87,2.25-8.43,3.75-15.69,7.53-23.34,12.6-9.02,5.98-17.92,12.14-27.44,17.33-8.96,4.88-18.3,8.75-28.38,10.7-4.87.94-9.77.94-14.7.97-6.33.04-12.43-1.09-18.4-3.05-10.83-3.56-20.06-9.7-28.14-17.66-7.07-6.96-12.89-14.87-17.54-23.63-.16-.3-.32-.59-.36-1.05.32.28.66.53.94.84,5.78,6.69,12.24,12.62,19.59,17.55,10.73,7.18,22.47,11.7,35.28,13.35,15.74,2.03,31,.07,45.82-5.54.13-.05.26-.11.34-.35-1.92.28-3.84.61-5.77.84-11.68,1.4-23.01.4-33.67-5.03-3.41-1.73-6.53-3.89-9.18-6.76.51.24,1.04.45,1.53.7,7.64,3.91,15.76,5.7,24.33,5.36,7.68-.3,15.04-2.18,22.24-4.8,8.49-3.09,16.55-7.15,24.65-11.11,7.19-3.51,14.32-7.24,22.07-9.38,10.89-3.73,26.01-5.55,34.02-.65,8.96,4.55,12.45,13.84,12.45,13.84,0,.08-4.34-5.08-11.48-7.34"/>
        <path class="cls-3" d="M322.1,45.57c-15.36-17.65-34.04-29.24-57.61-31.92-15.42-1.75-30.35.46-44.79,6.21.57-.09,1.13-.17,1.7-.26.58-.1,1.15-.21,1.73-.3,10.87-1.71,21.57-1.35,31.96,2.68,4.7,1.82,9.01,4.32,12.77,7.71.26.24.51.49.75.74.04.04.03.14.06.31-1.69-.79-3.3-1.61-4.97-2.31-10.42-4.43-21.14-4.73-32.06-2.28-9.51,2.14-18.37,6.02-27.13,10.19-7.62,3.62-15.2,7.31-22.89,10.78-10.81,4.88-22.22,6.12-33.92,5.04-4.89-.46-9.64-1.59-13.89-4.21-.53-.33-1.02-.72-1.53-1.09-.14-.11-.26-.25-.38-.36,2.4.41,4.77.91,7.16,1.19,6.33.74,12.46-.37,18.43-2.4,8.69-2.96,16.5-7.61,24.16-12.56,8.7-5.62,17.28-11.41,26.06-16.9,8.43-5.28,17.29-9.74,26.88-12.57,24.71-7.28,46.79-2.34,66.16,14.56,8.6,7.5,15.4,16.48,20.78,26.53.21.4.39.81.58,1.22"/>
        <path class="cls-1" d="M269.4,40.17c7.44,9.98,6.35,24.01-2.47,33.08-8.73,8.99-22.9,10.25-33.29,2.98-10.26-7.18-13.82-20.83-8.41-32.19,5.29-11.11,18.22-17.12,29.79-13.73-4.95,3.27-6.93,7.59-4.58,13.19,1.64,3.91,5.62,6.02,9.96,5.67,4.46-.37,7.48-3.35,9-8.99"/>
        <rect class="cls-3" x="241.85" y="221.7" width="185.86" height="4.06"/>
        <rect class="cls-3" x=".13" y="221.7" width="189.41" height="4.06"/>
        <g>
          <path class="cls-1" d="M43.73,122.03l.33-.04c.18-.18.37-.37.55-.55.15-.18.33-.37.48-.55.04-.18.11-.4.18-.59-.18.07-.37.18-.55.26-.15.18-.33.33-.48.51-.18.18-.33.33-.51.51-.11.18-.26.33-.37.48l.29-.04h.07M43.66,122.03c-.4.29-1.47,1.21-1.62,1.28l-.55.55c-.18.15-.33.33-.51.48-.15.18-.33.37-.51.55-1.62,1.76-3.27,3.52-4.92,5.29-.22.29-.48.59-.73.84-.11.18-.26.37-.4.51-.04.22-.07.4-.15.59.18-.07.33-.15.51-.22.15-.15.33-.33.51-.48.22-.26.48-.51.73-.77,1.62-1.76,3.23-3.56,4.85-5.32.18-.18.33-.33.51-.51l.48-.51c.18-.18.33-.37.51-.55.07-.22,1.14-1.36,1.36-1.73,0-.04.04-.07.04-.07-.04,0-.07.04-.11.07M113.07,210.94c-3.23-.04-6.42.22-9.65.11-2.68-.07-5.47-.15-8.04-.81-7.86-2.13-14.9-5.95-21.07-11.23-7.82-6.68-14.24-14.65-19.97-23.16-3.3-4.92-6.35-9.98-9.14-15.2-2.79-5.25-5.18-10.76-7.67-16.19-.77-1.65-.62-3.01.77-4.52,10.98-12.11,22.58-23.57,34.91-34.29,11.86-10.35,24.26-20.01,37.44-28.6,3.71-2.46,7.34-5.1,11.64-6.53.18-2.68-.92-4.77-3.49-6.75-1.47-1.14-3.08-1.43-4.77-.88-.88.29-1.76.7-2.53,1.17-4.18,2.53-8.52,4.88-12.52,7.67-15.34,10.57-29.88,22.17-43.43,34.98-4.96,4.7-9.8,9.54-14.72,14.35-.59.55-1.03,1.47-2.46,1.39.4-1.06.66-1.95,1.03-2.75,1.25-2.5,2.57-4.96,3.78-7.45,7.27-15.05,15.09-29.84,23.49-44.27.26-.44.37-.95.62-1.39.62-1.03.33-2.02-.33-2.83-.44-.55-1.17-.88-1.91-1.39.04-.22.18-.7.26-.95-.88-.84-1.8-1.54-2.42-2.39-.84-1.1-2.2-.84-3.19-1.62-1.43-1.17-2.2-1.06-3.41.44-1.43,1.76-2.75,3.67-3.85,5.65-8.08,14.65-15.27,29.7-22.39,44.86-6.57,14.06-12.48,28.41-18.06,42.91-4.81,12.44-9.1,25.07-11.09,38.32-.88,5.73-.33,11.31,2.42,16.52.77,1.43,1.65,2.75,3.34,3.27,1.36.4,2.72.84,4.44,1.36.77-10.06,1.8-19.86,4.37-29.44,3.82-14.21,7.89-25.88,9.76-27.75.29.44.55.84.81,1.25,2.31,3.93,4.52,7.93,7.05,11.71,3.16,4.7,6.57,9.18,9.87,13.8,5.54,7.75,12.37,14.32,19.46,20.56,4.85,4.22,10.24,7.78,16,10.65,9.47,4.66,19.46,7.08,30.14,6.13,3.56-.33,6.75-1.43,9.69-3.41.4-.29.7-.77,1.03-1.14-1.17-.55-2.09-1.14-3.12-1.51-.99-.33-2.06-.66-3.08-.66M73.5,100.59c.55-.48,1.1-.92,1.69-1.39.18-.15.37-.29.55-.44.29-.26.59-.48.84-.73.29-.26,6.31-4.88,7.78-5.98-1.36,1.21-6.53,5.36-6.53,5.54-.33.26-.66.51-.99.77-.26.26-.51.51-.77.73-.18.18-.37.33-.55.48-.55.48-1.1.92-1.65,1.39-.18.11-.37.22-.51.37l.15-.73ZM68.84,104.59l2.79-2.35c.26-.22.55-.44.84-.66.07.11.18.22.29.33-.26.26-.51.51-.73.77-.92.77-1.84,1.54-2.72,2.35-.37.29-.7.59-1.03.92l-.33-.26c.29-.37.59-.73.88-1.1M64.36,108.7c.88-.81,1.8-1.62,2.68-2.39.18-.15.37-.26.55-.37-.04.22-.07.48-.11.73l-2.79,2.39c-.15.11-.33.22-.48.37l.15-.73ZM63.44,109.62c.11.07.26.22.26.26-.11.18-.26.33-.4.51l-.29-.29c.15-.18.29-.33.44-.48M54.67,117.77c.18-.18.37-.33.51-.51.18-.15.37-.33.51-.48.18-.18.37-.33.51-.51l.51-.51c.18-.15.37-.29.51-.44.18-.18.37-.33.51-.51l3.19-2.9.51-.51c.18-.15.37-.33.55-.48.15-.11.33-.22.48-.37-.04.26-.07.48-.11.73-.18.18-.33.33-.51.51-.18.15-.37.33-.59.48-1.03.95-2.09,1.95-3.12,2.94-.18.15-.37.29-.55.48-.15.15-.33.33-.51.51-.15.15-.33.33-.51.48-.15.18-.33.33-.51.51-.15.15-.33.33-.51.48l-.51.51c-.26.22-.51.44-.77.7-.11-.11-.18-.22-.29-.33l.7-.77ZM53.64,119.13c.07,0,.15.11.18.15-.04.07-.04.11-.07.18-.07-.07-.18-.11-.26-.15.07-.07.11-.18.15-.18M52.8,119.75c.04.07.15.15.15.18-.04.07-.11.11-.18.15-.04,0-.11-.04-.15-.07.04-.07.11-.15.18-.26M51.37,121.11c.26-.22.51-.48.77-.7.07.11.18.18.29.29l-.7.77-.77.66c-.11-.07-.18-.18-.29-.26.26-.26.48-.51.7-.77M50.12,122.32c.07.07.15.11.26.18-.07.04-.11.11-.18.18-.04-.07-.11-.15-.15-.18,0-.04.04-.11.07-.18M48.72,123.83c.04.07.07.11.15.18-.07.04-.11.11-.18.15-.04-.04-.11-.04-.15-.07.04-.07.11-.18.18-.26M47.7,124.78c.04.07.07.11.15.18-.04.07-.07.11-.11.15-.07-.04-.15-.11-.22-.18.04-.04.11-.07.18-.15M38.52,122.69c.04.07.11.11.15.18-.04.11-.11.18-.15.29-.07-.04-.15-.11-.15-.15.04-.11.11-.22.15-.33M56.03,70.23c.22,1.84-.95,2.97-1.58,4.37-.22-.11-.44-.26-.66-.37.77-1.32,1.51-2.68,2.24-4M54.12,75.12c-3.16,6.09-6.2,12.26-9.58,18.24-.22-.11-.4-.22-.62-.33l9.51-18.21c.22.11.48.18.7.29M37.05,100.41c5.14-10.13,10.31-20.26,15.45-30.43.15-.26.44-.48.66-.7.11.07.18.18.26.29-5.43,10.79-10.9,21.58-16.33,32.34-.18-.04-.26-.07-.29-.11-.07-.04-.15-.15-.11-.18.11-.4.18-.84.37-1.21M42.01,96.99c0,2.02-10.17,24.3-12.85,28.08,3.71-9.47,8.3-18.54,12.85-28.08M36.54,102.32c-1.06,3.63-2.83,6.94-4.77,10.17,1.1-3.6,2.86-6.9,4.77-10.17M31.25,112.89c.18.11.37.22.55.33-.95,2.02-1.87,4-2.79,5.98-.18-.07-.37-.15-.55-.22.73-2.13,1.65-4.15,2.79-6.09M18.81,140.97l.84.26c-.73,1.95-1.51,3.89-2.24,5.84-.18-.04-.37-.11-.55-.18.22-2.09,1.51-3.89,1.95-5.91M16.57,147.17c.22,2.02-3.23,12.59-5.29,15.05.92-2.31,4.22-12.37,5.29-15.05M19.69,157.49c-1.21,2.57-4.15,12.3-5.91,14.65,1.62-5.54,5.91-17.8,8.26-23.05.59,1.47-.07,3.49-2.35,8.41M24.17,129.96c-.18.04-.37.07-.55.11l.33-.33c1.21-3.05,2.42-6.09,3.67-9.1.15-.37.44-.7.77-1.21-.15,1.95-2.75,8.3-4.22,10.54M27.25,130.25c-.18-.07-.37-.18-.55-.26.62-1.47,1.28-2.9,1.91-4.37.22.15.44.26.66.4-.66,1.39-1.36,2.83-2.02,4.22M30.55,130.65c-.07.18-.37.26-.59.44.77-5.8,28.56-60.97,32.49-64.57.04.15.18.33.15.44-11.27,20.92-22.5,41.88-32.05,63.69M34.26,132.12c.07-.18.11-.37.15-.59.15-.15.29-.33.4-.51.26-.26.51-.55.73-.84,1.65-1.76,3.3-3.52,4.92-5.29.18-.18.37-.37.51-.55.18-.15.33-.33.51-.48l.55-.55c.15-.07,1.21-.99,1.62-1.28h.07c-.22.37-1.28,1.5-1.36,1.73-.18.18-.33.37-.51.55l-.48.51c-.18.18-.33.33-.51.51-1.62,1.76-3.23,3.56-4.85,5.32-.26.26-.51.51-.73.77-.18.15-.37.33-.51.48-.18.07-.33.15-.51.22M42.23,126.87c-.07.22-.11.4-.18.62-.15.18-.33.37-.48.55-.15.15-.29.33-.48.51-.15.33-.26.7-.4,1.06l-.66-.55c.22-.29.4-.62.62-.92.15-.18.33-.37.48-.55.18-.15.37-.33.51-.48.18-.07.4-.18.59-.26M35.22,134.25c.81-1.76,2.39-2.94,3.71-4.29.29-.18.55-.4.84-.59-.15.33-.29.7-.44,1.03-1.21,1.39-2.46,2.79-3.67,4.18l-.44-.33ZM36.39,137.12c.04-.15.04-.29.07-.44,1.32-1.58,2.64-3.19,4.04-4.74,1.28-1.39,2.68-2.72,4.04-4.07.18-.18.37-.33.51-.51.15-.15.29-.26.44-.4l1.1-1.1c.22-.07.4-.15.59-.22-.07.22-.15.48-.26.7-.33.33-.66.66-.99,1.03-.18.15-.33.33-.51.51-.15.18-.33.33-.48.51-2.75,2.86-5.47,5.73-8.22,8.55-.11.07-.22.11-.33.18M148.17,178.04c-.07.11-.15.22-.15.33,0,.07.07.11.15.15.04-.11.11-.22.18-.33-.07-.04-.15-.11-.18-.15M284.24,155.8v.33s.11-.11.15-.15c0-.07-.11-.11-.15-.18M285.71,161.34c-.07.04-.11.11-.18.18.15.04.26.07.37.07v-.15c-.07-.04-.15-.11-.18-.11M277.16,168.5c.26-.51,1.36-2.39,1.36-2.42,0-.07.11-.11.15-.18.04.07.15.15.15.18,0,.07-1.25,1.87-1.65,2.42v.04c-.04.07-.07.11-.07.11M182.19,164.35c-.04.07-.11.11-.15.18.07.04.15.11.22.15.04-.04.04-.07.07-.15-.04-.04-.07-.11-.15-.18M407.36,70.27c-.11.07-.29.11-.37.22-.04.11.07.29.07.4.15-.07.33-.11.37-.22.04-.07-.04-.26-.07-.4M149.05,175.84c-.26.51-.48,1.03-.7,1.54.15.07.29.15.44.18.26-.51.48-1.03.7-1.5-.15-.07-.29-.15-.44-.22M147.47,178.96c-.22.51-.44,1.03-.62,1.54.15.07.33.15.51.22.18-.55.4-1.06.59-1.58-.15-.07-.33-.15-.48-.18M370.36,158.41c-.22.84-.44,1.65-.66,2.5.18.04.33.07.51.11.26-.77.51-1.58.77-2.39-.22-.07-.4-.15-.62-.22M232.48,164.65s-.04.04-.04.04M232.56,164.5l.11-.22c1.32-2.68,8.99-17.69,9.29-18.32.18.07.33.15.48.22-.26.66-.55,1.36-.84,2.06-.22,0-7.38,13.51-8.92,16.04l-.11.22c-.04.07-.07.11-.07.15M146.59,180.72c-.51,1.03-.92,1.8-1.28,2.57q1.43-.95,1.28-2.57M388.57,101.44c-.59,1.87-5.43,12.96-5.43,13.47-.4,1.1-.81,2.2-1.21,3.3-.18-.07-.4-.15-.59-.22.4-1.06,6.39-14.5,7.23-16.56.04-.11.07-.18.07-.22M374.43,135.94c-.37,1.1-.73,2.2-1.14,3.3.18.07.37.11.55.18.37-1.1.73-2.2,1.1-3.3l-.51-.18ZM246.14,130.07c-.48.88-.95,1.73-1.39,2.61.22.11.44.18.66.29.77-1.73.44-.95,1.21-2.68l-.48-.22ZM371.53,154.29c-.26,1.06-.55,2.17-.81,3.27.18.04.37.11.55.15.37-1.06.73-2.17,1.1-3.23-.29-.07-.55-.15-.84-.18M211.38,224.77c-.4,1.69-.77,3.41-1.14,5.1.18.04.37.11.55.15.4-1.69.77-3.41,1.17-5.1l-.59-.15ZM276.09,175.59c1.8-.84,7.45-9.07,7.6-11.23-1.03,1.62-6.79,9.98-7.6,11.23M209.84,231.2c-.51,2.61-1.03,5.18-1.58,7.78.18.04.33.11.51.18,1.03-2.53,1.06-5.25,1.62-7.89-.18,0-.37-.04-.55-.07M244.34,133.11c-.92,2.02-8.74,19.16-9.91,21.66,1.69-1.54,9.87-19.05,10.39-21.36-.15-.11-.29-.18-.48-.29M375.06,135.32c2.46-5.43,4.66-10.9,6.31-16.67-2.53,5.4-4.81,10.9-6.31,16.67M209.87,162.85c-2.28,7.05-5.43,13.8-6.75,21.18l.59.18,6.83-21.14c-.22-.07-.44-.15-.66-.22M452.18,166.04c-.26.33-.51.66-.77.99-4.22,5.47-7.34,11.78-12.88,16.19-.59.48-1.32,1.1-.92,2.35,1.51-.66,2.53-1.69,3.45-2.86,1.91-2.46,3.78-4.99,5.69-7.45.62-.81,1.17-2.13,1.95-2.24,1.25-.18,1.06-1.25,1.47-1.76.92-1.17,1.43-2.61,2.06-3.96.18-.33.26-.73.37-1.1-.11-.04-.26-.11-.4-.15M448.22,131.98c-2.06-1.1-4.22-1.69-6.57-1.28-3.6.62-6.72,2.24-9.54,4.44-3.78,2.94-6.72,6.64-9.51,10.46-7.75,10.57-11.82,22.65-14.65,35.24-.4,1.91-.99,3.89-.29,6.28.81-.62,1.54-1.06,2.06-1.65,2.97-3.45,6.09-6.79,8.81-10.42,6.02-8.04,11.82-16.26,17.77-24.34,1.36-1.84,2.9-3.6,4.66-4.96,2.06-1.54,3.6-3.27,4.4-5.69.18-.62.51-1.21.84-1.98.4-.07.66-.15.88-.15,2.35-.04,3.16-.88,3.05-3.19-.07-1.36-.84-2.2-1.91-2.75M356.08,131.83c-2.06-1.03-4.22-1.58-6.57-1.1-5.4,1.06-9.58,4.11-13.21,8-11.71,12.63-17.55,27.97-20.67,44.6-.22,1.1-.04,2.28-.04,3.93,1.03-.84,1.8-1.32,2.39-1.98,1.73-1.84,3.52-3.67,5.03-5.69,5.58-7.42,11.05-14.9,16.59-22.36,2.53-3.38,4.81-7.05,7.78-9.95,2.86-2.75,5.95-5.18,6.79-9.18.51-.11.77-.18,1.03-.18,2.24-.04,3.05-.81,3.05-2.9,0-1.58-.88-2.57-2.17-3.19M132.49,132.23c-2.02-1.36-4.29-1.98-6.75-1.58-5.62.95-9.91,4.07-13.66,8.15-11.97,12.92-17.84,28.63-20.81,45.66-.15.73-.04,1.54-.04,2.86,1.06-.81,1.73-1.17,2.2-1.69,2.83-3.27,5.8-6.39,8.37-9.84,6.09-8.11,11.93-16.41,17.95-24.56,1.39-1.87,2.86-3.89,4.74-5.21,2.61-1.8,4.18-4.11,5.18-6.97.07-.29.26-.59.48-1.1.59,0,1.03,0,1.43.04,1.32.11,2.02-.48,2.31-1.8.4-1.84.15-2.94-1.39-3.96M255.83,127.87c-.33.18-.59.26-.73.48-.37.55-.73,1.1-1.06,1.69-5.58,9.95-10.54,20.19-15.23,30.58-1.98,4.37-3.78,8.81-5.65,13.25-.11.11-.26.22-.33.37-6.53,15.67-12.63,31.53-17.33,47.87-1.06,3.82-1.84,7.71-2.72,11.53-1.21,4.22-2.17,8.44-1.36,12.92.62-4.07,1.28-8.11,1.95-12.15.48-2.06.88-4.07,1.43-6.09,3.34-12.26,7.16-24.37,11.82-36.23,2.31-5.91,4.7-11.75,7.05-17.62,2.75-6.13,5.4-12.37,8.37-18.43,4.22-8.63,8.74-17.11,13.1-25.7.37-.73,1.14-1.39.7-2.46M293.05,156.13c-3.89,6.42-7.78,12.88-11.64,19.31l-.33.95c.22-.22.48-.4.7-.59,4.81-5.87,8.88-12.22,11.56-19.42.04-.26.11-.55.15-.84-.15.18-.29.4-.44.59M400.86,81.32c-.26.66-.48,1.17-.66,1.65-.33.51-.73.95-.95,1.47-2.39,5.29-4.7,10.61-7.05,15.89-.29.62-.59,1.21-.84,1.84-4.37,10.98-8.77,21.91-13.07,32.89-1.73,4.4-3.23,8.88-4.88,13.36.18.07.33.15.51.26.29-.4.73-.77.92-1.25,3.01-7.86,5.98-15.71,9.03-23.57,3.05-7.86,6.17-15.67,9.25-23.53,1.39-3.23,2.79-6.46,4.18-9.69,1.06-2.46,2.09-4.92,3.16-7.38.26-.55,1.14-.92.4-1.95M359.24,167.36c-1.98,2.94-4,5.84-6.02,8.74-1.73,2.42-3.63,4.63-5.95,6.46-.84.7-1.8,1.5-1.69,3.41,3.6-2.79,5.84-6.06,8.11-9.36.99-1.25,1.8-2.75,3.05-3.67,1.95-1.39,1.87-3.6,2.97-5.29-.15-.11-.29-.18-.48-.29M369.88,141.7c.44-1.54,3.27-11.27,3.34-11.53,1.25-3.56,2.46-7.16,3.71-10.72.55-1.54,1.17-3.05,2.06-4.52.04.22.15.48.07.66-1.69,4.66-3.08,9.73-4.77,14.39-.11.26-3.82,10.28-4.4,11.71-.04.11-.07.18-.07.18M133.19,172.43l-.04.04.04-.04c.4-1.21,1.76-2.17,1.21-4.07-2.68,3.78-5.18,7.34-7.67,10.87-1.58,1.51-3.16,2.97-4.7,4.52-.48.44-.95.99-.26,1.73,2.46-1.32,3.82-3.67,5.4-5.8.99-1.25,1.95-2.5,2.97-3.71.99-1.17,1.98-2.31,3.01-3.49h.07c.04.11.11.18.18.33.04-.11.07-.22.11-.33h-.29s-.04-.04-.04-.04M248.64,132.56c-1.62,3.27-3.23,6.53-4.88,9.84-.11.33-.22.7-.33,1.03.07.04.18.07.29.15.15-.29.29-.55.44-.84,1.65-3.27,3.27-6.53,4.92-9.8q1.54-2.17,1.62-4.22c-.84,1.58-1.43,2.72-2.06,3.85M279.21,164.61c-.04.26-.07.51-.11.77.15-.15.26-.33.4-.48,2.42-2.94,7.01-12.63,8-15.09-1.39,2.64-6.9,12.15-8.3,14.79M183.52,171.44c-.22.48-.44.95-.7,1.43-1.36,2.02-2.57,4.15-3.27,6.53,1.62-1.84,2.75-3.96,3.63-6.24.22-.51.48-1.06.73-1.58-.15-.07-.26-.11-.4-.15M153.23,167c-.81,1.76-1.58,3.56-2.39,5.36-.77.88-1.32,1.87-1.47,2.97.18.07.37.15.51.22.44-.95.88-1.95,1.32-2.9,1.84-3.12,2.2-4.11,2.02-5.65M406.48,71.22c-.4.7-.81,1.43-1.21,2.13-1.1,1.39-2.09,2.83-2.02,4.85.81-1.51,1.58-2.97,2.39-4.48l1.36-2.2c-.18-.11-.37-.18-.51-.29M148.28,172.72c-.04.11-.07.26-.11.4-.44,1.21-1.06,2.72-1.51,3.93.18.07.33.15.51.22.81-1.87,1.65-3.71,2.46-5.58.7-.99,1.62-1.87,1.28-3.27.04,0,.04-.04.04-.04,0,0,0-.04.04-.04h-.07v.07c-.48.99-.99,1.98-1.51,2.97-.18,0-.33.04-.48.04h-.04v-.04c.07-.51.07-1.06.26-1.54.4-1.17.92-2.28,1.36-3.45l.44-.88c-.11-.04-.22-.11-.33-.15-.15.26-.29.51-.44.77-1.51,2.97-6.28,9.54-7.01,13.4.7-.7,3.6-5.95,4.7-7.12.33-.4.51-.37.4.26v.04M402.41,78.31c-.26.51-.48,1.06-.7,1.62-.15.33-.26.7-.37,1.03.11.04.22.07.33.11.11-.26.26-.55.4-.81.29-.59.59-1.14.88-1.73-.18-.07-.37-.15-.55-.22M285.2,161.89c-.4.77-.62,1.25-.88,1.73-.04.26-.07.48-.15.73.15-.15.29-.29.44-.44.44-.44.99-.88.59-2.02M291.29,171.14c-.04.26-.04.51-.07.81.18-.15.33-.29.51-.4.11-.26.22-.48.33-.7-.26.11-.51.22-.77.29M149.05,165.27l-.04.22c-.07,0-.11-.04-.18,0,.07-.04.11-.07.15-.11,0-.04.04-.07.07-.11.18-.4.4-.81.62-1.25,3.78-6.79,7.49-13.62,11.31-20.37,4.55-8.04,10.9-14.57,17.62-20.81,2.06-1.95,6.24-1.36,8.44,1.03,2.09,2.24,3.27,4.81,3.05,8-.37,5.54-1.51,10.9-3.16,16.15-1.39,4.52-2.79,9.03-4.15,13.55-.22.7-.33,1.43-.07,2.28.4-.66.84-1.36,1.21-2.06,5.65-10.42,12.11-20.34,19.82-29.37,2.39-2.83,5.03-5.47,7.53-8.22,1.43-1.54,2.9-3.08,4.26-4.7.73-.88,1.51-1.06,2.64-.99,4.66.4,8.41,4.59,7.34,10.39-.73,4.18-1.73,8.26-3.23,12.22-4.92,13.21-9.84,26.39-14.72,39.61-.62,1.65-1.14,3.34-1.65,5.03-.15.55-.11,1.14-.22,2.24.84-.73,1.32-1.14,1.73-1.58,5.18-5.73,9.51-12.11,13.62-18.61,4.04-6.31,8.22-12.59,11.97-19.09,2.94-5.14,5.18-10.65,7.86-15.89,1.73-3.49,3.56-6.9,5.54-10.24,2.28-3.89,4.22-3.38,7.82-1.54.84.44,1.54,1.1,2.53,1.32.59.15,1.32.29,1.14,1.32-.04.22.48.59.77.84,2.28,2.06,2.57,3.05,1.21,5.69-2.28,4.44-4.77,8.77-7.05,13.18-2.53,4.96-4.88,10.02-7.34,15.01-.33.66-.66,1.36-.99,2.02-.4.37-.92.73-.33,1.36.29-.29.59-.59.88-.88.37-.66.73-1.28,1.1-1.95,5.14-9.07,11.2-17.51,18.39-25.11,4.15-4.4,8.99-7.93,14.24-10.87,2.53-1.43,5.29-1.8,8.08-.99,4.11,1.14,7.42,3.3,9.91,6.94,3.38,4.85,5.21,10.02,4.92,15.89-.22,4.11-1.28,8.04-2.94,11.75-1.76,3.93-3.78,7.75-5.69,11.6-.37.77-.77,1.54-.77,2.57.4-.22.88-.4,1.25-.7,7.64-6.09,14.32-13.1,19.86-21.22,2.42-3.52,4.48-7.38,7.12-10.76,2.75-3.49,5.84-6.83,9.07-9.87,3.89-3.71,8.74-5.73,14.06-6.39,1.17-.15,2.39.04,3.52.26,7.23,1.54,12.85,7.27,14.21,14.5.55,2.79-.62,5.29-1.69,7.78-.55,1.28-1.47,2.39-.48,3.96.29.48-.18,1.62-.59,2.31-1.65,3.01-3.38,6.06-5.18,8.99-4.7,7.67-8.48,15.75-11.38,24.23l.07.66.33-.33c4.77-4.44,8.85-9.47,12.66-14.76.77-1.1,1.47-2.28,2.28-3.34,2.64-3.41,4.22-7.19,5.03-11.45,1.58-8.37,4.15-16.52,7.05-24.52,5.4-14.94,10.87-29.81,16.63-44.6,3.16-8.11,7.53-15.64,12.55-22.8,1.06-1.5,2.28-2.94,3.49-4.33,1.21-1.36,2.42-1.5,4.11-.66.51.26.99.7,1.54.81,1.43.29,1.87,1.21,1.73,2.61,1.06-.73,2.31-.22,2.35.44.07,1.36,1.1,1.84,1.65,2.72.99,1.69,1.14,3.38.07,5.21-2.5,4.22-4.96,8.44-7.16,12.81-5.91,11.71-10.94,23.79-15.78,35.94-2.28,5.73-4.81,11.34-7.05,17.07-5.1,13.14-10.31,26.25-13.88,39.9-1.32,5.07-2.09,10.24-2.9,15.42-.33,2.06-.33,4.22,1.03,6.17,1.32.18,2.09-.73,2.79-1.51,2.86-3.08,5.98-6.02,8.44-9.43,5.32-7.38,10.35-15.01,15.49-22.54,3.01-4.48,5.73-9.18,9.07-13.44,5.4-6.9,9.91-14.5,16.41-20.52,4.15-3.82,8.81-6.5,14.43-7.38,1.47-.22,3.05-.26,4.48.11,7.19,1.8,12.15,6.02,14.1,13.36.88,3.27-.18,6.2-1.54,9.03-.59,1.25-1.32,2.28-.37,3.74.29.44-.18,1.58-.59,2.28-1.95,3.45-3.89,6.9-5.95,10.28-4.37,7.27-7.78,14.98-10.68,22.94-.07.18,0,.44,0,.92,11.27-10.5,18.46-23.79,26.98-36.01.99.37,1.84.73,2.68,1.03,1.17.37,1.36,1.25.99,2.2-.37,1.03-.81,2.06-1.39,2.97-4.88,7.6-9.65,15.27-14.72,22.76-2.9,4.26-6.17,8.26-9.43,12.26-1.03,1.28-2.46,2.28-3.85,3.23-.62.44-1.62.73-2.35.62-2.79-.51-5.4-1.54-7.27-3.74-.62-.73-.95-1.76-1.36-2.72-.26-.66-.44-1.39-.81-2.53-.73,1.06-1.28,1.76-1.8,2.5-2.06,2.94-4.44,5.58-7.3,7.71-2.46,1.8-4.96,2.61-8.04,1.39-2.2-.84-4.44-1.43-6.24-3.12-1.5-1.43-2.35-3.01-2.86-4.96-1.17-4.7-1.03-9.4-.18-14.1.29-1.73.59-3.45.92-5.32-.37.22-.55.26-.66.37-3.41,5.21-6.83,10.46-10.28,15.67-3.23,4.85-6.86,9.36-11.31,13.29-3.34,2.94-7.05,3.05-10.9,1.73-3.96-1.36-5.8-4.7-6.13-8.59-.37-4.48-.26-8.96-.37-13.44,0-.59.04-1.14.11-2.31-.73.84-1.14,1.25-1.51,1.73-3.16,4.11-6.2,8.22-9.43,12.26-1.06,1.28-2.5,2.24-3.78,3.34-1.28,1.14-2.75,1.06-4.29.55-3.82-1.28-6.86-3.3-7.45-7.71-.04-.15-.18-.26-.48-.73-.55.7-1.06,1.25-1.5,1.91-2.09,3.08-4.55,5.84-7.6,8.08-2.46,1.84-5.03,2.64-8.04,1.32-1.5-.7-3.19-1.06-4.63-1.91-3.12-1.8-4.29-4.77-4.81-8.22-.84-5.8-.18-11.42,1.25-17.03.33-1.25.59-2.46.95-4.11-.66.37-.99.48-1.25.7-5.54,5.1-10.94,10.35-16.63,15.27-7.82,6.83-16.45,12.37-26.14,16.15-3.45,1.36-6.94,1.21-10.46.33-1.47-.37-3.01-.7-4.33-1.39-1.62-.81-3.12-1.95-4.59-3.05-.73-.55-1.1-1.47-.55-2.24.37-.51,1.21-.73,1.84-1.03.07-.04.18-.04.26-.04,4.11,1.06,7.19-1.21,10.2-3.3,6.02-4.15,10.65-9.62,14.9-15.45,6.68-9.18,11.42-19.31,15.16-29.95,1.14-3.19,1.84-6.5,1.58-9.91-.04-.59-.18-1.14-.33-2.09-1.14.29-2.2.44-3.16.81-5.84,2.2-11.01,5.47-15.38,9.98-6.68,6.9-12.33,14.54-17.03,22.91-7.3,13.07-13.55,26.61-18.5,40.75-2.17,6.2-4.63,12.33-6.64,18.57-1.84,5.8-3.34,11.71-4.85,17.58-1.39,5.47-2.57,11.01-3.85,16.52-.44,1.87-.92,3.74-1.36,5.58-3.93.62-7.08-.33-9.73-3.23-3.6-3.93-5.25-8.52-4.81-13.73.37-4.7.99-9.4,1.95-14.02,3.16-14.72,7.86-28.96,13.36-42.99.18-.44.29-.95.4-1.43.15-.33.29-.62.44-.95-.11-.04-.22-.11-.29-.15-.18.22-.37.48-.55.7-1.17,1.32-2.35,2.68-3.56,3.96-.73.81-1.47,1.65-2.24,2.39-3.27,3.12-6.06,3.12-10.5,1.25-2.24-.92-3.01-3.05-3.27-5.36-.51-5.03.15-9.98,1.17-14.87,2.46-11.64,5.76-23.05,10.09-34.14.26-.7.44-1.39.26-2.42-.73.7-1.51,1.36-2.13,2.13-5.54,7.05-10.57,14.43-14.83,22.32-4.18,7.82-8.48,15.56-12.81,23.27-.99,1.76-2.28,3.38-3.41,5.03-.73,1.1-1.76,1.54-3.08,1.14-1.43-.44-2.9-.77-4.29-1.36-1.36-.51-2.09-1.62-2.13-3.12,0-1.47-.07-2.9.04-4.33.59-9.1,2.42-18.02,5.03-26.8,2.06-6.94,4.04-13.91,6.09-20.89-.04-.18-.04-.4-.04-.62-.07.11-.18.22-.26.33-1.54,1.76-3.19,3.45-4.59,5.32-4.77,6.39-8.55,13.4-12.19,20.45-4.55,8.85-8.88,17.8-13.33,26.72-.29.62-.55,1.25-.92,1.8-.95,1.47-1.54,3.52-3.74,3.3-2.79-.26-5.76-.81-7.27-3.41-.77-1.36-.7-3.27-.81-4.92-.11-2.39,0-4.74,0-7.53-.59.73-.99,1.28-1.39,1.8-3.08,4.04-6.09,8.11-9.29,12.04-1.06,1.36-2.61,2.35-3.93,3.52-1.06.95-2.39,1.14-3.6.7-1.8-.66-3.63-1.47-5.18-2.57-1.03-.73-1.65-2.06-2.28-3.23-.44-.77-.59-1.69-.99-3.05-.7.95-1.21,1.58-1.69,2.2-1.95,2.79-4.15,5.32-6.83,7.45-2.75,2.2-5.62,3.3-9.1,1.8-1.62-.7-3.3-1.06-4.81-2.13-3.67-2.53-4.18-6.39-4.55-10.28-.44-5.03.37-9.95,1.54-14.83,2.75-11.56,7.45-22.25,14.87-31.57,2.42-3.05,5.1-5.91,7.89-8.63,3.78-3.67,8.37-5.84,13.58-6.83,2.17-.4,4.22-.18,6.24.51,6.24,2.17,10.68,6.13,12.3,12.7.44,1.73.33,3.67.07,5.47-.18,1.36-.84,2.72-1.51,4-.62,1.17-1.03,2.17-.33,3.52.29.55-.15,1.62-.51,2.31-1.98,3.52-4,7.05-6.09,10.5-4.18,6.97-7.53,14.35-10.28,21.99-.15.37-.15.77.15,1.39,2.09-2.28,4.37-4.4,6.24-6.83,3.49-4.48,6.79-9.07,10.09-13.66.59-.77.88-1.8,1.14-2.79,2.64-9.91,5.03-19.93,9.51-29.29,1.39-2.9,2.79-5.76,4.22-8.66.33-.66.73-1.39,1.28-1.84.55-.44,1.47-.88,1.98-.7,1.87.59,3.85,1.21,5.43,2.31,1.21.84,2.13,2.31,2.68,3.71.37.84-.11,2.13-.44,3.12-2.68,7.75-5.47,15.42-8.11,23.16-1.17,3.52-2.09,7.12-3.12,10.68l-.15,1.69M148.61,165.64c0-.07,0-.15-.04-.18.07,0,.18,0,.26.04-.07.04-.15.11-.22.15"/>
          <g>
            <path class="cls-2" d="M2.56,254.27c-1.71,0-2.56-.85-2.56-2.56v-17.18c0-1.71.85-2.56,2.56-2.56h11.04c1.29,0,1.93.63,1.93,1.9s-.64,1.93-1.93,1.93H4.68v5.22h8.19c1.31,0,1.96.64,1.96,1.93s-.65,1.93-1.96,1.93H4.68v5.57h8.92c1.29,0,1.93.63,1.93,1.9s-.64,1.93-1.93,1.93H2.56Z"/>
            <path class="cls-2" d="M26.89,254.56c-.8,0-1.41-.22-1.83-.66-.42-.44-.63-1.08-.63-1.9v-7.78l-6.45-9.17c-.3-.44-.42-.92-.38-1.44.04-.52.25-.96.63-1.34.38-.38.92-.57,1.61-.57.99,0,1.84.53,2.56,1.58l4.55,6.58,4.55-6.58c.4-.57.8-.98,1.19-1.22.39-.24.85-.36,1.38-.36.67,0,1.2.17,1.57.52.37.35.57.78.6,1.3s-.14,1.05-.52,1.6l-6.39,9.14v7.75c0,1.71-.81,2.56-2.44,2.56Z"/>
            <path class="cls-2" d="M43.02,254.27c-1.71,0-2.56-.85-2.56-2.56v-17.18c0-1.71.85-2.56,2.56-2.56h11.04c1.29,0,1.93.63,1.93,1.9s-.64,1.93-1.93,1.93h-8.92v5.22h8.19c1.31,0,1.96.64,1.96,1.93s-.65,1.93-1.96,1.93h-8.19v5.57h8.92c1.29,0,1.93.63,1.93,1.9s-.64,1.93-1.93,1.93h-11.04Z"/>
            <path class="cls-2" d="M75.94,254.62c-1.64,0-3.07-.26-4.29-.79-1.21-.53-2.15-1.25-2.8-2.18-.65-.93-.98-2.01-.98-3.26,0-1.43.4-2.67,1.2-3.72.8-1.04,1.88-1.95,3.23-2.7l.03-.03c-.74-.76-1.29-1.53-1.64-2.32-.36-.79-.54-1.6-.54-2.42,0-1.1.27-2.06.82-2.89.55-.83,1.32-1.49,2.31-1.96.99-.47,2.14-.71,3.45-.71,1.81,0,3.25.46,4.3,1.39,1.05.93,1.58,2.16,1.58,3.7,0,1.16-.32,2.22-.95,3.18-.63.96-1.63,1.84-3,2.64l3.76,3.86c.27-.59.51-1.23.71-1.91.2-.68.36-1.41.49-2.17.23-1.27.93-1.9,2.09-1.9.65,0,1.14.18,1.47.55.33.37.45.89.36,1.57-.17,1.26-.45,2.45-.85,3.56-.4,1.11-.89,2.11-1.45,3.02l2.37,2.31c.51.49.76.96.76,1.44s-.18.88-.55,1.2c-.37.33-.87.49-1.5.49-.57,0-1.03-.11-1.39-.33-.36-.22-.75-.54-1.17-.96l-1.14-1.17c-.93.8-1.96,1.42-3.1,1.87-1.14.44-2.33.66-3.57.66ZM76.23,250.92c1.41,0,2.66-.46,3.73-1.39l-5.06-5.06c-1.52.93-2.28,2.11-2.28,3.54,0,.91.31,1.62.93,2.13.62.52,1.51.77,2.67.77ZM76.73,234.88c-.68,0-1.21.2-1.61.6-.4.4-.6.93-.6,1.58,0,.51.12.98.36,1.41.24.43.66.96,1.25,1.6.97-.53,1.66-1.03,2.06-1.52.4-.48.6-1.03.6-1.64,0-.67-.18-1.18-.55-1.52-.37-.34-.87-.51-1.5-.51Z"/>
            <path class="cls-2" d="M103.3,254.27c-.82,0-1.44-.22-1.87-.65-.42-.43-.63-1.05-.63-1.85v-17.36c0-.8.21-1.42.63-1.85.42-.43,1.03-.65,1.83-.65,1.62,0,2.44.83,2.44,2.5v15.72h8.48c1.41,0,2.12.69,2.12,2.06s-.71,2.09-2.12,2.09h-10.88Z"/>
            <path class="cls-2" d="M119.18,254.56c-.89,0-1.52-.29-1.9-.89-.38-.59-.37-1.32.03-2.18l8.1-17.74c.34-.72.74-1.24,1.2-1.57.46-.33,1-.49,1.61-.49s1.15.16,1.61.49c.46.33.85.85,1.17,1.57l8.16,17.74c.4.89.42,1.62.05,2.2-.37.58-.96.87-1.79.87-.72,0-1.27-.17-1.66-.51-.39-.34-.73-.86-1.03-1.58l-1.33-3.04h-10.41l-1.3,3.04c-.32.74-.65,1.27-1.01,1.6-.36.33-.86.49-1.52.49ZM128.16,237.19l-3.51,8.41h7.15l-3.57-8.41h-.06Z"/>
            <path class="cls-2" d="M150.05,254.62c-1.35,0-2.7-.15-4.05-.44-1.35-.29-2.52-.73-3.51-1.3-.59-.32-.96-.74-1.11-1.28-.15-.54-.12-1.06.09-1.57.21-.51.55-.86,1.01-1.08.46-.21,1.02-.16,1.68.16.84.49,1.78.84,2.81,1.08,1.03.23,2.06.35,3.07.35,1.52,0,2.61-.24,3.27-.71.66-.47,1-1.07,1-1.79,0-.61-.23-1.1-.7-1.45-.46-.36-1.28-.66-2.44-.92l-3.57-.76c-3.99-.84-5.98-2.91-5.98-6.2,0-1.41.38-2.65,1.14-3.72.76-1.06,1.82-1.89,3.18-2.48,1.36-.59,2.94-.89,4.73-.89,1.18,0,2.34.14,3.48.43,1.14.28,2.14.7,3,1.25.53.32.85.73.98,1.23.13.51.09.99-.11,1.46-.2.46-.54.79-1.01.98-.47.19-1.06.12-1.76-.22-.7-.36-1.43-.62-2.21-.79-.78-.17-1.58-.25-2.4-.25-1.33,0-2.36.26-3.08.77-.73.52-1.09,1.19-1.09,2.01,0,.61.22,1.11.66,1.49.44.38,1.21.69,2.31.92l3.57.76c4.09.89,6.14,2.89,6.14,6.01,0,1.39-.37,2.61-1.12,3.65-.75,1.04-1.8,1.86-3.16,2.44-1.36.58-2.97.87-4.82.87Z"/>
            <path class="cls-2" d="M164.82,254.56c-.8,0-1.41-.22-1.83-.66-.42-.44-.63-1.06-.63-1.87v-17.81c0-1.69.82-2.53,2.47-2.53s2.44.84,2.44,2.53v17.81c0,1.69-.81,2.53-2.44,2.53Z"/>
            <path class="cls-2" d="M174.22,254.56c-.8,0-1.41-.22-1.83-.66-.42-.44-.63-1.06-.63-1.87v-17.84c0-.8.21-1.42.63-1.85.42-.43,1.03-.65,1.83-.65,1.62,0,2.44.83,2.44,2.5v7.5h.06l8.41-8.79c.36-.38.73-.67,1.12-.87.39-.2.84-.3,1.34-.3.72,0,1.24.19,1.58.57.34.38.48.83.44,1.34-.04.52-.27.99-.7,1.41l-7.43,7.59,7.88,8.38c.48.53.73,1.06.74,1.61.01.55-.17,1.01-.54,1.38-.37.37-.91.55-1.63.55-.61,0-1.1-.13-1.47-.38-.37-.25-.77-.62-1.22-1.11l-8.54-8.98h-.06v7.94c0,.8-.21,1.42-.62,1.87-.41.44-1.02.66-1.82.66Z"/>
          </g>
          <g>
            <path class="cls-2" d="M267.31,254.7c-.8,0-1.41-.22-1.83-.66-.42-.44-.63-1.06-.63-1.87v-17.81c0-1.69.82-2.53,2.47-2.53s2.44.84,2.44,2.53v6.71h10.37v-6.71c0-1.69.81-2.53,2.44-2.53s2.47.84,2.47,2.53v17.81c0,.8-.21,1.42-.63,1.87-.42.44-1.03.66-1.83.66s-1.38-.22-1.8-.66c-.42-.44-.63-1.06-.63-1.87v-7.02h-10.37v7.02c0,1.69-.81,2.53-2.44,2.53Z"/>
            <path class="cls-2" d="M299.86,254.76c-2.19,0-4.12-.48-5.77-1.44-1.66-.96-2.94-2.3-3.86-4.02-.92-1.72-1.38-3.74-1.38-6.06s.46-4.34,1.38-6.06c.92-1.72,2.2-3.05,3.84-4s3.57-1.42,5.79-1.42,4.15.47,5.8,1.42c1.66.95,2.94,2.28,3.86,4,.92,1.72,1.38,3.73,1.38,6.03s-.46,4.34-1.38,6.07c-.92,1.73-2.2,3.07-3.86,4.03-1.66.96-3.59,1.44-5.8,1.44ZM299.86,250.59c1.86,0,3.31-.65,4.35-1.95s1.57-3.09,1.57-5.39-.52-4.12-1.55-5.39c-1.03-1.28-2.49-1.91-4.37-1.91s-3.27.64-4.32,1.91c-1.04,1.28-1.57,3.07-1.57,5.39s.52,4.1,1.57,5.39,2.48,1.95,4.32,1.95Z"/>
            <path class="cls-2" d="M322.67,254.76c-1.35,0-2.7-.15-4.05-.44-1.35-.29-2.52-.73-3.51-1.3-.59-.32-.96-.74-1.11-1.28-.15-.54-.12-1.06.09-1.57.21-.51.55-.86,1.01-1.08.46-.21,1.02-.16,1.68.16.84.49,1.78.84,2.81,1.08,1.03.23,2.06.35,3.07.35,1.52,0,2.61-.24,3.27-.71.66-.47,1-1.07,1-1.79,0-.61-.23-1.1-.7-1.45-.46-.36-1.28-.66-2.44-.92l-3.57-.76c-3.99-.84-5.98-2.91-5.98-6.2,0-1.41.38-2.65,1.14-3.72.76-1.06,1.82-1.89,3.18-2.48,1.36-.59,2.94-.89,4.73-.89,1.18,0,2.34.14,3.48.43,1.14.28,2.14.7,3,1.25.53.32.85.73.98,1.23.13.51.09.99-.11,1.46-.2.46-.54.79-1.01.98-.47.19-1.06.12-1.76-.22-.7-.36-1.43-.62-2.21-.79-.78-.17-1.58-.25-2.4-.25-1.33,0-2.36.26-3.08.77-.73.52-1.09,1.19-1.09,2.01,0,.61.22,1.11.66,1.49.44.38,1.21.69,2.31.92l3.57.76c4.09.89,6.14,2.89,6.14,6.01,0,1.39-.37,2.61-1.12,3.65-.75,1.04-1.8,1.86-3.16,2.44-1.36.58-2.97.87-4.82.87Z"/>
            <path class="cls-2" d="M337.44,254.7c-.8,0-1.41-.22-1.83-.66-.42-.44-.63-1.06-.63-1.87v-17.55c0-1.67.83-2.5,2.5-2.5h7.69c2.49,0,4.41.63,5.76,1.88,1.35,1.26,2.02,3,2.02,5.24s-.67,3.99-2.02,5.25c-1.35,1.26-3.27,1.9-5.76,1.9h-5.28v5.79c0,.8-.21,1.42-.62,1.87-.41.44-1.02.66-1.82.66ZM339.87,242.59h4.46c2.59,0,3.89-1.12,3.89-3.35s-1.3-3.29-3.89-3.29h-4.46v6.64Z"/>
            <path class="cls-2" d="M358.44,254.7c-.8,0-1.41-.22-1.83-.66-.42-.44-.63-1.06-.63-1.87v-17.81c0-1.69.82-2.53,2.47-2.53s2.44.84,2.44,2.53v17.81c0,1.69-.81,2.53-2.44,2.53Z"/>
            <path class="cls-2" d="M373.15,254.7c-.8,0-1.41-.22-1.83-.66-.42-.44-.63-1.06-.63-1.87v-16.01h-5.6c-1.37,0-2.06-.67-2.06-2.02s.68-2.02,2.06-2.02h16.1c1.37,0,2.06.67,2.06,2.02s-.69,2.02-2.06,2.02h-5.6v16.01c0,.8-.21,1.42-.62,1.87-.41.44-1.02.66-1.82.66Z"/>
            <path class="cls-2" d="M383.49,254.7c-.89,0-1.52-.29-1.9-.89-.38-.59-.37-1.32.03-2.18l8.1-17.74c.34-.72.74-1.24,1.2-1.57.46-.33,1-.49,1.61-.49s1.15.16,1.61.49c.46.33.85.85,1.17,1.57l8.16,17.74c.4.89.42,1.62.05,2.2-.37.58-.96.87-1.79.87-.72,0-1.27-.17-1.66-.51-.39-.34-.73-.86-1.03-1.58l-1.33-3.04h-10.41l-1.3,3.04c-.32.74-.65,1.27-1.01,1.6-.36.33-.86.49-1.52.49ZM392.47,237.34l-3.51,8.41h7.15l-3.57-8.41h-.06Z"/>
            <path class="cls-2" d="M409.17,254.42c-.82,0-1.44-.22-1.87-.65-.42-.43-.63-1.05-.63-1.85v-17.36c0-.8.21-1.42.63-1.85.42-.43,1.03-.65,1.83-.65,1.62,0,2.44.83,2.44,2.5v15.72h8.48c1.41,0,2.12.69,2.12,2.06s-.71,2.09-2.12,2.09h-10.88Z"/>
          </g>
        </g>
      </g>
    </g>
  </g>
</svg>